<?xml version="1.0" standalone="no"?>
<!DOCTYPE svg PUBLIC "-//W3C//DTD SVG 1.1//EN" "http://www.w3.org/Graphics/SVG/1.1/DTD/svg11.dtd" >
<svg xmlns="http://www.w3.org/2000/svg" xmlns:xlink="http://www.w3.org/1999/xlink" version="1.1">
<metadata>
Created by FontForge 20190801 at Sat Aug  8 01:02:01 2015
 By Jimmy Wärting
(c) 2015 Apple Inc. All rights reserved.
</metadata>
<defs>
<font id="SFUIText-SemiboldItalic" horiz-adv-x="0" >
  <font-face 
    font-family="SF UI Text"
    font-weight="600"
    font-style="italic"
    font-stretch="normal"
    units-per-em="2048"
    panose-1="0 0 7 0 0 0 0 0 0 0"
    ascent="1638"
    descent="-410"
    x-height="1094"
    cap-height="1443"
    bbox="-575 -571 2977 2209"
    underline-thickness="169"
    underline-position="-373"
    slope="-12"
    unicode-range="U+0020-FB02"
  />
<missing-glyph horiz-adv-x="2048" 
d="M-75 -494l50 229h1849l-50 -229h-1849zM19 -51l50 229h1848l-49 -229h-1849zM113 392l50 229h1848l-49 -229h-1849zM207 835l50 229h1848l-49 -229h-1849zM301 1278l50 229h1848l-50 -229h-1848zM395 1721l50 229h1848l-50 -229h-1848z" />
    <glyph glyph-name=".notdef" horiz-adv-x="2048" 
d="M-75 -494l50 229h1849l-50 -229h-1849zM19 -51l50 229h1848l-49 -229h-1849zM113 392l50 229h1848l-49 -229h-1849zM207 835l50 229h1848l-49 -229h-1849zM301 1278l50 229h1848l-50 -229h-1848zM395 1721l50 229h1848l-50 -229h-1848z" />
    <glyph glyph-name=".null" 
 />
    <glyph glyph-name="nonmarkingreturn" 
 />
    <glyph glyph-name="space" unicode=" " horiz-adv-x="546" 
 />
    <glyph glyph-name="exclam" unicode="!" horiz-adv-x="695" 
d="M448 1444h276l-228 -967h-231zM306 -26q-74 0 -120 45t-46 111q0 71 45.5 117t120.5 46q74 0 119.5 -45t45.5 -112q0 -70 -45.5 -116t-119.5 -46z" />
    <glyph glyph-name="quotedbl" unicode="&#x22;" horiz-adv-x="972" 
d="M492 857h-217l124 586h217zM924 857h-218l124 586h218z" />
    <glyph glyph-name="numbersign" unicode="#" horiz-adv-x="1337" 
d="M1349 873h-209l-122 -286h208l-77 -194h-208l-164 -393h-200l164 393h-255l-164 -393h-199l164 393h-206l78 194h206l121 286h-205l77 192h205l158 378h199l-157 -378h255l158 378h200l-158 -378h207zM680 886l-130 -312h273l132 312h-275z" />
    <glyph glyph-name="dollar" unicode="$" horiz-adv-x="1384" 
d="M819 591l-86 -402q121 3 191 61t70 148q0 65 -41 109.5t-134 83.5zM741 876l80 378q-108 -3 -175.5 -58.5t-67.5 -137.5q0 -61 40.5 -104.5t122.5 -77.5zM869 828l36 -13q174 -64 260.5 -157.5t86.5 -228.5q0 -205 -151.5 -327t-396.5 -122h-16l-25 -119h-138l29 134
q-172 36 -279 147t-114 265h247q10 -75 59.5 -127.5t130.5 -74.5l92 434l-56 20q-151 55 -232.5 152.5t-81.5 225.5q0 188 145 306.5t382 118.5h18l28 131h139l-32 -149q157 -39 252.5 -148t97.5 -252h-242q-20 140 -153 190z" />
    <glyph glyph-name="percent" unicode="%" horiz-adv-x="1734" 
d="M612 1304q-65 0 -113 -70.5t-48 -167.5q0 -66 28 -105t76 -39q65 0 112 71.5t47 170.5q0 65 -27 102.5t-75 37.5zM428 0h-269l724 758l606 685h268l-737 -768zM546 752q-133 0 -213 85t-80 228q0 171 106 289.5t259 118.5q134 0 214 -85t80 -227q0 -170 -106.5 -289.5
t-259.5 -119.5zM1363 522q-65 0 -113 -71t-48 -168q0 -66 28 -105t75 -39q65 0 112 72t47 170q0 66 -27 103.5t-74 37.5zM1297 -31q-134 0 -214 85.5t-80 227.5q0 172 106 290.5t260 118.5q133 0 213 -85.5t80 -226.5q0 -171 -106.5 -290.5t-258.5 -119.5z" />
    <glyph glyph-name="ampersand" unicode="&#x26;" horiz-adv-x="1500" 
d="M642 1099q0 -43 22 -90.5t73 -115.5q133 43 196.5 110t63.5 145q0 64 -45 102.5t-116 38.5q-80 0 -137 -55.5t-57 -134.5zM624 166q169 0 290 80l-284 423q-2 -1 -25.5 -9t-24.5 -9q-116 -42 -177 -109.5t-61 -150.5q0 -98 77 -161.5t205 -63.5zM1073 0l-55 83
q-178 -110 -412 -110q-140 0 -255.5 51.5t-181.5 142.5t-66 203q0 284 364 426l68 28q-116 168 -116 291q0 149 120 252t298 103q164 0 272.5 -85.5t108.5 -214.5q0 -131 -95.5 -238.5t-289.5 -178.5l245 -353q108 132 122 322l3 40h217l-4 -46q-26 -286 -222 -493l149 -223
h-270z" />
    <glyph glyph-name="quotesingle" unicode="'" horiz-adv-x="541" 
d="M492 857h-217l124 586h217z" />
    <glyph glyph-name="parenleft" unicode="(" horiz-adv-x="776" 
d="M529 -277h-228q-52 105 -84 269t-32 318q0 319 121 618.5t341 514.5h265q-221 -222 -347 -522.5t-126 -627.5q0 -297 90 -570z" />
    <glyph glyph-name="parenright" unicode=")" horiz-adv-x="775" 
d="M342 1443h228q52 -105 84 -269t32 -319q0 -318 -121 -617.5t-340 -514.5h-265q220 222 346 521.5t126 627.5q0 297 -90 571z" />
    <glyph glyph-name="asterisk" unicode="*" horiz-adv-x="965" 
d="M868 787l-192 176l-34 -275l-164 6l84 275l-260 -147l-54 151l281 97l-231 130l114 145l192 -182l34 282l165 -7l-87 -281l263 155l52 -152l-281 -101l232 -127z" />
    <glyph glyph-name="plus" unicode="+" horiz-adv-x="1383" 
d="M832 474l-90 -419h-221l90 419h-416l46 218h414l89 418h221l-88 -418h420l-46 -218h-419z" />
    <glyph glyph-name="comma" unicode="," horiz-adv-x="674" 
d="M233 -381h-203l214 612h257z" />
    <glyph glyph-name="hyphen" unicode="-" horiz-adv-x="983" 
d="M849 465h-656l48 233h657z" />
    <glyph glyph-name="hyphen" unicode="&#x2011;" horiz-adv-x="983" 
d="M849 465h-656l48 233h657z" />
    <glyph glyph-name="period" unicode="." horiz-adv-x="674" 
d="M279 -21q-69 0 -114.5 45.5t-45.5 109.5q0 68 45 114.5t115 46.5t115 -45t45 -109q0 -69 -45 -115.5t-115 -46.5z" />
    <glyph glyph-name="slash" unicode="/" horiz-adv-x="750" 
d="M141 -302h-227l795 1745h231z" />
    <glyph glyph-name="zero" unicode="0" horiz-adv-x="1361" 
d="M665 -36q-219 0 -347 147.5t-128 396.5q0 206 53.5 387t144.5 309t217.5 201.5t267.5 73.5q219 0 347 -147.5t128 -397.5q0 -276 -90.5 -498.5t-246.5 -347t-346 -124.5zM449 498q0 -150 59.5 -234t167.5 -84q109 0 204.5 104t152.5 281t57 379q0 149 -60 234t-166 85
q-109 0 -205 -104.5t-153 -281.5t-57 -379z" />
    <glyph glyph-name="one" unicode="1" horiz-adv-x="1016" 
d="M429 0l250 1167h-18l-412 -250l54 262l434 264h257l-307 -1443h-258z" />
    <glyph glyph-name="two" unicode="2" horiz-adv-x="1288" 
d="M284 1038q18 194 168.5 317.5t367.5 123.5q200 0 332.5 -109t132.5 -274q0 -130 -88 -244.5t-340 -321.5l-356 -295l-4 -18h656l-45 -217h-1020l40 193l578 483q199 165 260.5 240.5t61.5 154.5q0 85 -64.5 140t-165.5 55q-104 0 -178.5 -61.5t-93.5 -163.5v-4
q-14 0 -118 0.5t-124 0.5z" />
    <glyph glyph-name="three" unicode="3" horiz-adv-x="1336" 
d="M550 642l41 200h198q121 0 200 67t79 170q0 85 -66.5 137t-173.5 52q-94 0 -168 -52.5t-101 -138.5h-241q38 183 182.5 292.5t349.5 109.5t338.5 -104.5t133.5 -265.5q0 -140 -94 -243t-242 -126l-3 -18q120 -26 185 -102.5t65 -192.5q0 -133 -72 -239t-201 -165
t-291 -59q-226 0 -373 115t-148 292q0 11 4 49h244v-5q-5 -101 73.5 -167t205.5 -66q136 0 217.5 70.5t81.5 188.5q0 89 -74.5 145t-191.5 56h-158z" />
    <glyph glyph-name="four" unicode="4" horiz-adv-x="1378" 
d="M753 0l58 269h-707l41 240q240 316 783 934h379l-204 -956h195l-45 -218h-195l-58 -269h-247zM391 496l-3 -15h472l160 752h-14q-341 -384 -615 -737z" />
    <glyph glyph-name="five" unicode="5" horiz-adv-x="1327" 
d="M678 -36q-216 0 -361 118.5t-145 295.5q0 8 2 34h242v-4q2 -102 78 -165t196 -63q139 0 226 92t87 234q0 115 -72.5 183.5t-186.5 68.5q-77 0 -145.5 -31t-112.5 -84h-241l243 800h861l-46 -218h-653l-119 -380l17 -1q112 107 283 107q178 0 300 -118.5t122 -297.5
q0 -251 -158.5 -411t-416.5 -160z" />
    <glyph glyph-name="six" unicode="6" horiz-adv-x="1369" 
d="M1286 528q0 -117 -44.5 -222t-121 -180t-183.5 -118.5t-227 -43.5q-240 0 -378.5 150t-138.5 410q0 184 47.5 354.5t135.5 303.5q94 144 228.5 220.5t293.5 76.5q206 0 343 -117.5t143 -299.5h-255q-11 92 -78 146t-170 54q-149 0 -258 -131t-155 -366l18 -1
q65 88 161 136t209 48q188 0 309 -118t121 -302zM774 749q-136 0 -230 -92.5t-94 -225.5q0 -112 74 -182t193 -70q132 0 223 94t91 230q0 108 -72 177t-185 69z" />
    <glyph glyph-name="seven" unicode="7" horiz-adv-x="1213" 
d="M130 0l887 1209l3 17h-715l46 217h983l-46 -220l-878 -1223h-280z" />
    <glyph glyph-name="eight" unicode="8" horiz-adv-x="1376" 
d="M1264 418q0 -198 -165 -326t-419 -128q-239 0 -390.5 110.5t-151.5 284.5q0 161 110.5 278.5t285.5 139.5l4 17q-88 38 -139.5 110.5t-51.5 158.5q0 180 149 298t375 118q204 0 343.5 -105t139.5 -259q0 -140 -89.5 -240.5t-236.5 -125.5l-4 -18q113 -41 176.5 -124
t63.5 -189zM719 653q-134 0 -222.5 -75.5t-88.5 -190.5q0 -101 77 -160.5t206 -59.5q135 0 223.5 74.5t88.5 189.5q0 99 -79 160.5t-205 61.5zM594 1039q0 -85 66 -138.5t170 -53.5q114 0 190 69t76 171q0 86 -65.5 139t-171.5 53q-115 0 -190 -68t-75 -172z" />
    <glyph glyph-name="nine" unicode="9" horiz-adv-x="1368" 
d="M763 692q135 0 229 92.5t94 226.5q0 112 -73 181.5t-192 69.5q-132 0 -223 -93.5t-91 -230.5q0 -108 72 -177t184 -69zM251 915q0 158 75.5 287.5t207.5 203t294 73.5q240 0 377.5 -150t137.5 -411q0 -183 -48 -353.5t-136 -303.5q-94 -144 -227 -220.5t-291 -76.5
q-205 0 -343 115.5t-146 293.5h255q9 -88 77 -140.5t174 -52.5q151 0 261 131.5t153 364.5l-17 1q-65 -89 -160.5 -136.5t-207.5 -47.5q-191 0 -313.5 119t-122.5 303z" />
    <glyph glyph-name="colon" unicode=":" horiz-adv-x="674" 
d="M279 -21q-69 0 -114.5 45.5t-45.5 109.5q0 68 45 114.5t115 46.5t115 -45t45 -109q0 -69 -45 -115.5t-115 -46.5zM437 729q-69 0 -114.5 45t-45.5 109q0 68 45 114.5t115 46.5q69 0 114.5 -45t45.5 -109q0 -68 -45 -114.5t-115 -46.5z" />
    <glyph glyph-name="semicolon" unicode=";" horiz-adv-x="674" 
d="M185 -381h-203l215 612h257zM437 729q-69 0 -114.5 45t-45.5 109q0 68 45 114.5t115 46.5t115 -45t45 -109q0 -68 -45 -114.5t-115 -46.5z" />
    <glyph glyph-name="less" unicode="&#x3c;" horiz-adv-x="1383" 
d="M1136 220l-52 -252l-820 550l42 201l1033 451l-54 -263l-748 -297l-3 -17z" />
    <glyph glyph-name="equal" unicode="=" horiz-adv-x="1384" 
d="M1202 251h-1050l46 219h1049zM1295 697h-1049l45 219h1050z" />
    <glyph glyph-name="greater" unicode="&#x3e;" horiz-adv-x="1384" 
d="M350 918l52 252l820 -550l-42 -201l-1033 -451l55 263l747 296l3 18z" />
    <glyph glyph-name="question" unicode="?" horiz-adv-x="1108" 
d="M237 1066q28 176 157 283t330 107q200 0 324 -99.5t124 -249.5q0 -127 -77 -232.5t-209 -164.5q-111 -49 -157 -93.5t-60 -118.5l-9 -49h-238l15 70q23 128 80 196t177 121q117 54 167.5 112.5t50.5 136.5q0 68 -54 114.5t-148 46.5q-86 0 -149 -48t-87 -132h-237z
M480 -25q-74 0 -121 43t-47 111q0 72 47 119t121 47q72 0 119.5 -43.5t47.5 -111.5q0 -71 -47 -118t-120 -47z" />
    <glyph glyph-name="at" unicode="@" horiz-adv-x="1892" 
d="M1150 1442q213 0 384.5 -86t268 -238.5t96.5 -342.5q0 -178 -62 -325t-170 -231t-240 -84q-101 0 -166.5 46.5t-65.5 119.5q0 4 0.5 11.5t0.5 10.5l-18 -1q-79 -141 -239 -141q-137 0 -220.5 92.5t-83.5 246.5q0 209 117 353.5t286 144.5q88 0 155 -45.5t83 -116.5l18 -1
l25 125h189l-125 -574q-4 -24 -4 -35q0 -85 93 -85q66 0 126.5 68t97.5 180t37 234q0 151 -76 270.5t-212.5 186.5t-308.5 67q-207 0 -380.5 -103t-273.5 -281.5t-100 -392.5q0 -274 189 -439t504 -165q113 0 175 19l-31 -150q-95 -19 -198 -19q-175 0 -325 54.5t-255 151.5
t-164.5 235t-59.5 299q0 199 71 374t194.5 299.5t296.5 196t371 71.5zM1232 652q0 87 -45 139t-120 52q-95 0 -162 -91.5t-67 -221.5q0 -83 43.5 -132t117.5 -49q97 0 165 88.5t68 214.5z" />
    <glyph glyph-name="A" unicode="A" horiz-adv-x="1457" 
d="M1053 0l-43 369h-535l-203 -369h-270l829 1443h283l201 -1443h-262zM904 1166l-325 -593h415l-72 593h-18z" />
    <glyph glyph-name="B" unicode="B" horiz-adv-x="1393" 
d="M762 0h-654l307 1443h557q185 0 298 -86t113 -228q0 -140 -89.5 -242.5t-231.5 -125.5l-3 -18q118 -21 186.5 -97.5t68.5 -188.5q0 -200 -155.5 -328.5t-396.5 -128.5zM633 1242l-86 -402h260q139 0 226.5 65t87.5 168q0 169 -242 169h-246zM411 208h316q140 0 231.5 72
t91.5 181q0 95 -65.5 144t-191.5 49h-286z" />
    <glyph glyph-name="C" unicode="C" horiz-adv-x="1507" 
d="M1282 954q1 2 1 9q-8 129 -98.5 207t-232.5 78q-139 0 -253.5 -87t-180.5 -239.5t-66 -338.5q0 -179 92.5 -283.5t250.5 -104.5q132 0 234 65.5t139 172.5h259q-50 -215 -226.5 -342t-428.5 -127q-265 0 -424.5 163.5t-159.5 435.5q0 262 100.5 471.5t279 327
t401.5 117.5q243 0 406 -142t163 -354q0 -9 -2 -29h-254z" />
    <glyph glyph-name="D" unicode="D" horiz-adv-x="1517" 
d="M415 1443h472q285 0 445 -160t160 -443q0 -239 -97 -431t-269 -300.5t-385 -108.5h-632zM631 1222l-215 -1000h310q218 0 359 166t141 427q0 190 -102.5 298.5t-284.5 108.5h-208z" />
    <glyph glyph-name="E" unicode="E" horiz-adv-x="1253" 
d="M1089 223l-46 -223h-935l307 1443h935l-47 -223h-674l-83 -383h637l-44 -210h-637l-88 -404h675z" />
    <glyph glyph-name="F" unicode="F" horiz-adv-x="1211" 
d="M369 0h-261l307 1443h921l-47 -223h-660l-91 -420h604l-45 -215h-604z" />
    <glyph glyph-name="G" unicode="G" horiz-adv-x="1551" 
d="M1518 751l-38 -188q-60 -292 -238 -445.5t-457 -153.5q-269 0 -432.5 166t-163.5 440q0 196 58.5 365t161 288.5t247 187.5t312.5 68q235 0 397.5 -132t172.5 -330v-35h-254q-8 119 -99.5 192t-233.5 73q-140 0 -253.5 -85t-178.5 -236t-65 -336q0 -183 96 -288.5
t262 -105.5q152 0 262.5 87t139.5 231l7 36h-341l43 201h595z" />
    <glyph glyph-name="H" unicode="H" horiz-adv-x="1575" 
d="M1328 0h-262l134 623h-699l-134 -623h-259l307 1443h260l-128 -597h699l128 597h261z" />
    <glyph glyph-name="I" unicode="I" horiz-adv-x="616" 
d="M368 0h-260l307 1443h260z" />
    <glyph glyph-name="J" unicode="J" horiz-adv-x="1182" 
d="M90 386h252v-6q2 -83 54 -131.5t141 -48.5q183 0 232 231l216 1012h257l-224 -1056q-43 -205 -170 -314t-327 -109q-197 0 -318.5 113t-113.5 289q0 13 1 20z" />
    <glyph glyph-name="K" unicode="K" horiz-adv-x="1416" 
d="M366 0h-258l307 1443h257l-141 -659h17l701 659h313l-682 -647l407 -796h-293l-325 639l-206 -190z" />
    <glyph glyph-name="L" unicode="L" horiz-adv-x="1199" 
d="M1075 226l-47 -226h-920l307 1443h260l-260 -1217h660z" />
    <glyph glyph-name="M" unicode="M" horiz-adv-x="1847" 
d="M350 0h-242l307 1443h294l207 -1051h17l659 1051h315l-307 -1443h-242l217 1015h-14l-604 -959h-184l-191 959h-15z" />
    <glyph glyph-name="N" unicode="N" horiz-adv-x="1553" 
d="M361 0h-253l307 1443h212l498 -1011h18l217 1011h253l-307 -1443h-211l-501 1005h-17z" />
    <glyph glyph-name="O" unicode="O" horiz-adv-x="1603" 
d="M798 -36q-178 0 -318 79t-216 217t-76 311q0 195 60 364.5t164.5 288.5t250.5 187t312 68q271 0 439 -171.5t168 -435.5q0 -196 -59.5 -365.5t-163.5 -288.5t-249.5 -186.5t-311.5 -67.5zM1316 851q0 178 -97.5 286.5t-256.5 108.5q-141 0 -257.5 -86t-183 -236.5
t-66.5 -332.5q0 -178 98 -286.5t258 -108.5q142 0 257.5 85t181.5 235t66 335z" />
    <glyph glyph-name="P" unicode="P" horiz-adv-x="1345" 
d="M415 1443h520q200 0 325.5 -112.5t125.5 -298.5q0 -170 -78.5 -298t-215 -194.5t-312.5 -66.5h-310l-101 -473h-260zM631 1227l-117 -540h260q158 0 253.5 86.5t95.5 235.5q0 105 -68 161.5t-189 56.5h-235z" />
    <glyph glyph-name="Q" unicode="Q" horiz-adv-x="1603" 
d="M1338 -149h-253l-71 143q-99 -30 -216 -30q-269 0 -439.5 172t-170.5 435q0 195 60.5 364.5t165 288.5t250 187t311.5 68q180 0 319 -79t213.5 -216.5t74.5 -311.5q0 -251 -95.5 -454t-266.5 -321zM811 194q61 0 108 12l-122 250h245l66 -121q99 84 154.5 219.5
t55.5 297.5q0 178 -98 287t-257 109q-141 0 -258.5 -86t-184.5 -237t-67 -334q0 -179 98.5 -288t259.5 -109z" />
    <glyph glyph-name="R" unicode="R" horiz-adv-x="1389" 
d="M108 0l307 1443h545q199 0 321.5 -110.5t122.5 -288.5q0 -164 -100 -293t-268 -178l202 -573h-278l-178 541h-298l-116 -541h-260zM631 1229l-105 -483h294q142 0 230.5 77t88.5 198q0 97 -60 152.5t-165 55.5h-283z" />
    <glyph glyph-name="S" unicode="S" horiz-adv-x="1331" 
d="M111 407h252q19 -103 109 -165.5t218 -62.5q131 0 213 59t82 154q0 74 -53.5 123t-179.5 90l-145 47q-156 51 -241 151.5t-85 234.5q0 190 155.5 315.5t391.5 125.5q225 0 373.5 -122t159.5 -315h-247q-19 102 -99.5 162t-198.5 60q-117 0 -193.5 -56t-76.5 -142
q0 -67 50 -115.5t157 -84.5l142 -47q182 -60 268 -155t86 -236q0 -208 -160.5 -336t-418.5 -128q-238 0 -389 119t-170 324z" />
    <glyph glyph-name="T" unicode="T" horiz-adv-x="1328" 
d="M725 0h-260l260 1220h-443l46 223h1147l-46 -223h-444z" />
    <glyph glyph-name="U" unicode="U" horiz-adv-x="1549" 
d="M761 -36q-252 0 -396.5 129t-146.5 333q0 65 13 127l188 890h260l-185 -880q-14 -61 -12 -114q4 -118 82 -185t221 -67q140 0 237 81t129 227l199 938h261l-211 -994q-49 -231 -214 -358t-425 -127z" />
    <glyph glyph-name="V" unicode="V" horiz-adv-x="1442" 
d="M803 0h-297l-198 1443h266l132 -1138h18l596 1138h289z" />
    <glyph glyph-name="W" unicode="W" horiz-adv-x="2036" 
d="M1154 1022l-502 -1022h-246l-80 1443h252l32 -1074h14l515 1074h215l71 -1074h15l480 1074h265l-687 -1443h-250l-79 1022h-15z" />
    <glyph glyph-name="X" unicode="X" horiz-adv-x="1456" 
d="M20 0l638 747l-314 696h291l225 -523h17l439 523h289l-640 -730l326 -713h-283l-237 522h-18l-448 -522h-285z" />
    <glyph glyph-name="Y" unicode="Y" horiz-adv-x="1412" 
d="M768 0h-261l121 564l-319 879h268l223 -622h17l476 622h285l-695 -896z" />
    <glyph glyph-name="Z" unicode="Z" horiz-adv-x="1373" 
d="M69 0l37 176l963 1027l3 17h-722l46 223h1057l-37 -176l-961 -1027l-2 -17h758l-45 -223h-1097z" />
    <glyph glyph-name="bracketleft" unicode="[" horiz-adv-x="815" 
d="M430 1444h530l-40 -191h-290l-279 -1302h303l-40 -191h-542z" />
    <glyph glyph-name="backslash" unicode="\" horiz-adv-x="750" 
d="M339 -302l-45 1745h222l44 -1745h-221z" />
    <glyph glyph-name="bracketright" unicode="]" horiz-adv-x="815" 
d="M860 1443l-358 -1683h-534l39 191h295l279 1302h-299l40 190h538z" />
    <glyph glyph-name="asciicircum" unicode="^" horiz-adv-x="1036" 
d="M707 1225l-293 -450h-227l448 637h234l179 -637h-219l-105 450h-17z" />
    <glyph glyph-name="underscore" unicode="_" horiz-adv-x="934" 
d="M808 -298h-945l40 191h944z" />
    <glyph glyph-name="grave" unicode="`" horiz-adv-x="1079" 
d="M999 1275h-234l-209 347h268z" />
    <glyph glyph-name="a" unicode="a" horiz-adv-x="1174" 
d="M518 176q103 0 183 59t100 150l23 106l-250 -11q-111 -4 -174 -48t-63 -116q0 -61 50.5 -100.5t130.5 -39.5zM420 -18q-140 0 -234.5 86t-94.5 214q0 165 126.5 261t355.5 104l286 11l15 70q5 25 5 44q0 66 -53.5 104t-146.5 38q-78 0 -132 -29t-77 -83h-241
q35 145 162 229.5t307 84.5q193 0 310.5 -87t117.5 -229q0 -40 -9 -89l-151 -711h-241l29 138h-17q-50 -72 -135 -114t-182 -42z" />
    <glyph glyph-name="b" unicode="b" horiz-adv-x="1310" 
d="M717 -18q-115 0 -207 60.5t-122 156.5h-17l-44 -199h-239l322 1517h248l-121 -575l18 1q117 169 334 169q166 0 272.5 -116.5t106.5 -303.5q0 -199 -72.5 -362t-199 -255.5t-279.5 -92.5zM672 196q144 0 241 130.5t97 324.5q0 120 -60.5 186t-164.5 66
q-144 0 -245 -131.5t-101 -317.5q0 -121 63.5 -189.5t169.5 -68.5z" />
    <glyph glyph-name="c" unicode="c" horiz-adv-x="1181" 
d="M1178 732h-240q-5 79 -67 127t-152 48q-142 0 -234.5 -127.5t-92.5 -317.5q0 -131 63.5 -202.5t167.5 -71.5q89 0 152.5 42t90.5 120h242q-30 -163 -166.5 -267.5t-335.5 -104.5q-211 0 -338 126t-127 336q0 192 75 346t211 242t309 88q180 0 300.5 -99t138.5 -240
q3 -21 3 -45z" />
    <glyph glyph-name="d" unicode="d" horiz-adv-x="1314" 
d="M523 -18q-167 0 -276 118t-109 315q0 198 74 358t201.5 249.5t281.5 89.5q118 0 203.5 -58.5t113.5 -151.5h18l130 615h250l-322 -1517h-241l32 151h-17q-59 -79 -146.5 -124t-192.5 -45zM626 191q144 0 243.5 131.5t99.5 318.5q0 120 -63.5 189t-169.5 69
q-144 0 -242.5 -126t-98.5 -317q0 -120 64.5 -192.5t166.5 -72.5z" />
    <glyph glyph-name="e" unicode="e" horiz-adv-x="1224" 
d="M613 -22q-207 0 -338.5 124.5t-131.5 340.5q0 301 162.5 487t421.5 186q192 0 318.5 -123t127.5 -330q0 -77 -16 -173h-773q0 -6 -0.5 -19.5t-0.5 -19.5q0 -133 71 -202t175 -69q177 0 237 122h245q-37 -145 -170.5 -234.5t-327.5 -89.5zM413 658h517q3 9 3 40
q0 95 -58.5 157.5t-160.5 62.5q-108 0 -188.5 -70.5t-112.5 -189.5z" />
    <glyph glyph-name="f" unicode="f" horiz-adv-x="801" 
d="M161 0l187 889h-179l40 198h178l23 118q31 159 126 231t267 72q86 0 160 -19l-38 -182q-40 11 -110 11q-133 0 -161 -138l-18 -93h238l-40 -198h-236l-187 -889h-250z" />
    <glyph glyph-name="g" unicode="g" horiz-adv-x="1298" 
d="M520 -416q-207 0 -339.5 93.5t-135.5 231.5h251q8 -60 72 -98t169 -38q122 0 193.5 54.5t94.5 152.5l45 197h-17q-112 -157 -326 -157q-166 0 -275.5 117t-109.5 304q0 190 71.5 344t196 240.5t275.5 86.5q114 0 205.5 -59t122.5 -154h17l42 195h241l-245 -1141
q-37 -173 -181 -271t-367 -98zM627 212q142 0 238.5 122t96.5 307q0 118 -64.5 188t-172.5 70q-142 0 -234.5 -118t-92.5 -306q0 -122 61.5 -192.5t167.5 -70.5z" />
    <glyph glyph-name="h" unicode="h" horiz-adv-x="1270" 
d="M88 0l322 1512h249l-125 -582h17q121 184 329 184q154 0 244.5 -91.5t90.5 -227.5q0 -60 -15 -129l-140 -666h-249l132 625q12 55 12 91q0 86 -53 137t-147 51q-107 0 -180.5 -68t-97.5 -178l-140 -658h-249z" />
    <glyph glyph-name="i" unicode="i" horiz-adv-x="569" 
d="M91 0l232 1094h248l-232 -1094h-248zM515 1272q-67 0 -110 38t-43 96q0 59 43 99.5t110 40.5q68 0 110.5 -38t42.5 -96q0 -59 -43 -99.5t-110 -40.5z" />
    <glyph glyph-name="j" unicode="j" horiz-adv-x="569" 
d="M572 1094l-247 -1159q-64 -309 -382 -309q-65 0 -119 10l44 199q27 -5 61 -5q67 0 103 30.5t52 103.5l240 1130h248zM515 1272q-68 0 -110.5 38t-42.5 96q0 59 43 99.5t110 40.5t110 -38t43 -96q0 -59 -43 -99.5t-110 -40.5z" />
    <glyph glyph-name="k" unicode="k" horiz-adv-x="1165" 
d="M496 671l484 423h298l-542 -476l341 -618h-277l-264 479l-117 -94l-82 -385h-249l322 1517h249l-180 -846h17z" />
    <glyph glyph-name="l" unicode="l" horiz-adv-x="565" 
d="M88 0l322 1517h250l-322 -1517h-250z" />
    <glyph glyph-name="m" unicode="m" horiz-adv-x="1852" 
d="M79 0l232 1094h241l-38 -176h17q49 87 132 140.5t177 53.5q111 0 186.5 -58t97.5 -141h18q126 199 351 199q133 0 220 -86t87 -217q0 -57 -14 -129l-144 -680h-249l136 641q11 53 11 91q0 73 -45.5 120.5t-123.5 47.5q-86 0 -155 -63t-92 -170l-142 -667h-243l136 641
q11 53 11 91q0 73 -45.5 120.5t-122.5 47.5q-86 0 -155.5 -62t-90.5 -164l-144 -674h-249z" />
    <glyph glyph-name="n" unicode="n" horiz-adv-x="1253" 
d="M79 0l233 1094h240l-36 -170h17q123 188 335 188q150 0 240 -92.5t90 -230.5q0 -61 -15 -128l-140 -661h-249l132 619q12 51 12 92q0 85 -51.5 137t-144.5 52q-104 0 -177 -68.5t-97 -178.5l-140 -653h-249z" />
    <glyph glyph-name="o" unicode="o" horiz-adv-x="1267" 
d="M402 460q0 -125 63 -199.5t170 -74.5q133 0 227.5 128.5t94.5 307.5q0 134 -60 210t-166 76q-144 0 -236.5 -126.5t-92.5 -321.5zM616 -22q-212 0 -343 129.5t-131 339.5q0 191 77.5 344t215.5 239t311 86q212 0 342 -129t130 -340q0 -189 -78 -342.5t-215.5 -240
t-308.5 -86.5z" />
    <glyph glyph-name="p" unicode="p" horiz-adv-x="1305" 
d="M666 196q144 0 241 130.5t97 324.5q0 120 -60.5 186t-164.5 66q-144 0 -245 -131.5t-101 -317.5q0 -121 63.5 -189.5t169.5 -68.5zM253 -364h-248l310 1458h240l-32 -151h17q59 79 147.5 124t194.5 45q166 0 273 -116.5t107 -303.5q0 -199 -73 -362t-200 -255.5
t-281 -92.5q-117 0 -203 60t-113 157h-18z" />
    <glyph glyph-name="q" unicode="q" horiz-adv-x="1305" 
d="M620 191q144 0 245 131.5t101 318.5q0 120 -63.5 189t-169.5 69q-143 0 -240.5 -128t-97.5 -317q0 -125 60.5 -194t164.5 -69zM1009 -364h-247l108 515h-17q-125 -169 -337 -169q-166 0 -272.5 119.5t-106.5 310.5q0 196 73 357t200.5 252t281.5 91q117 0 207.5 -59.5
t120.5 -150.5h17l41 192h241z" />
    <glyph glyph-name="r" unicode="r" horiz-adv-x="865" 
d="M73 0l233 1094h241l-30 -146h16q97 164 280 164q88 0 136 -20l-50 -231q-69 24 -156 24q-117 0 -188 -65.5t-100 -200.5l-132 -619h-250z" />
    <glyph glyph-name="s" unicode="s" horiz-adv-x="1114" 
d="M88 307h243q15 -63 74.5 -102t147.5 -39q94 0 152.5 37.5t58.5 97.5q0 41 -28 70.5t-93 50.5l-170 57q-130 45 -193 115.5t-63 177.5q0 154 122 249t316 95q188 0 305 -86t132 -230h-232q-13 59 -68.5 93t-138.5 34q-85 0 -140 -36.5t-55 -93.5q0 -41 32.5 -70.5
t100.5 -52.5l167 -57q134 -45 195 -114t61 -176q0 -155 -129.5 -252t-334.5 -97q-199 0 -326.5 91t-135.5 238z" />
    <glyph glyph-name="t" unicode="t" horiz-adv-x="809" 
d="M509 -5q-133 0 -213 59.5t-80 168.5q0 42 11 95l123 571h-178l41 198h179l57 275h250l-59 -275h239l-43 -198h-237l-110 -515q-10 -43 -10 -76q0 -105 127 -105q44 0 82 5l-39 -192q-44 -11 -140 -11z" />
    <glyph glyph-name="u" unicode="u" horiz-adv-x="1252" 
d="M1267 1094l-232 -1094h-240l35 159h-17q-50 -85 -133.5 -133t-197.5 -48q-149 0 -240 88.5t-91 230.5q0 62 15 140l137 657h250l-131 -617q-11 -59 -11 -99q0 -183 187 -183q108 0 183 69t99 185l138 645h249z" />
    <glyph glyph-name="v" unicode="v" horiz-adv-x="1157" 
d="M221 1094h249l86 -825h18l421 825h268l-615 -1094h-278z" />
    <glyph glyph-name="w" unicode="w" horiz-adv-x="1681" 
d="M1780 1094l-529 -1094h-262l-48 783h-17l-376 -783h-257l-65 1094h238l21 -811h17l376 811h243l37 -817h17l356 817h249z" />
    <glyph glyph-name="x" unicode="x" horiz-adv-x="1149" 
d="M596 372h-17l-300 -372h-278l471 551l-241 543h271l147 -374h17l295 374h281l-471 -548l242 -546h-261z" />
    <glyph glyph-name="y" unicode="y" horiz-adv-x="1173" 
d="M141 -399q-25 0 -73 4t-58 6l41 200q37 -8 90 -8q68 0 119 33.5t90 110.5l28 54l-155 1093h251l87 -835h17l430 835h267l-650 -1163q-101 -185 -210 -257.5t-274 -72.5z" />
    <glyph glyph-name="z" unicode="z" horiz-adv-x="1140" 
d="M57 0l32 155l717 722l2 17h-555l43 200h872l-37 -169l-690 -708l-2 -17h546l-42 -200h-886z" />
    <glyph glyph-name="braceleft" unicode="{" horiz-adv-x="889" 
d="M390 620l-4 -17q73 -13 113.5 -56t40.5 -113q0 -37 -9 -82l-62 -286q-11 -50 -11 -84q0 -70 44 -100.5t142 -30.5h45l-39 -188h-80q-165 0 -261.5 69.5t-96.5 183.5q0 58 14 121l53 244q12 55 12 95q0 62 -33 87.5t-107 25.5l51 246q97 0 144.5 45.5t72.5 163.5l49 224
q39 189 160 270t336 81h81l-40 -191h-45q-119 0 -180 -48t-86 -164l-56 -258q-24 -114 -84.5 -171t-163.5 -67z" />
    <glyph glyph-name="bar" unicode="|" horiz-adv-x="723" 
d="M339 -303h-224l372 1746h224z" />
    <glyph glyph-name="braceright" unicode="}" horiz-adv-x="889" 
d="M611 563l4 17q-73 12 -113.5 55t-40.5 113q0 37 9 82l62 287q11 50 11 83q0 70 -44 101t-142 31h-45l39 187h80q165 0 261.5 -69t96.5 -183q0 -59 -14 -121l-53 -244q-12 -57 -12 -96q0 -61 32.5 -86.5t107.5 -25.5l-51 -246q-97 0 -144 -46t-73 -164l-49 -223
q-39 -189 -159.5 -270.5t-336.5 -81.5h-81l40 191h45q119 0 180 48.5t86 164.5l56 258q24 113 84.5 170.5t163.5 67.5z" />
    <glyph glyph-name="asciitilde" unicode="~" horiz-adv-x="1216" 
d="M756 491q-57 0 -106.5 24t-82.5 58t-62.5 68t-61 58t-62.5 24q-99 0 -130 -162h-208q26 185 118 285t221 100q57 0 105.5 -24t81.5 -58t62.5 -68.5t60 -58.5t61.5 -24q100 0 131 163h208q-26 -186 -116 -285.5t-220 -99.5z" />
    <glyph glyph-name="nonbreakingspace" unicode="&#xa0;" horiz-adv-x="546" 
 />
    <glyph glyph-name="exclamdown" unicode="&#xa1;" horiz-adv-x="695" 
d="M344 -329h-276l229 967h230zM487 1140q74 0 120 -44.5t46 -110.5q0 -71 -46 -117t-120 -46t-120 45t-46 111q0 71 45.5 116.5t120.5 45.5z" />
    <glyph glyph-name="cent" unicode="&#xa2;" horiz-adv-x="1383" 
d="M1236 518q-29 -152 -150 -254t-300 -116l-38 -181h-217l42 203q-141 43 -222.5 159.5t-81.5 281.5q0 182 68 331t191.5 239.5t282.5 104.5l34 161h217l-39 -182q118 -38 192 -123.5t87 -192.5q3 -21 3 -45h-239q-6 79 -68 127t-152 48q-142 0 -234 -128t-92 -318
q0 -131 63.5 -204t166.5 -73q89 0 152.5 42t90.5 120h243z" />
    <glyph glyph-name="sterling" unicode="&#xa3;" horiz-adv-x="1384" 
d="M1234 223l-46 -219h-1102l45 218q65 7 129.5 35t119 73t90.5 112.5t40 145.5q0 24 -3 55h-312l39 188h260q-15 131 -15 177q0 221 143 346t416 125q106 0 218 -22t174 -51l-44 -209q-48 27 -139.5 46t-178.5 19q-155 0 -243.5 -68t-88.5 -204q0 -66 10 -159h401l-39 -188
h-349q1 -13 1 -37q-2 -145 -68.5 -237t-182.5 -128l-3 -18h728z" />
    <glyph glyph-name="currency" unicode="&#xa4;" horiz-adv-x="1383" 
d="M489 651q0 -100 72.5 -172t172.5 -72t172.5 72t72.5 172t-72.5 172t-172.5 72t-172.5 -72t-72.5 -172zM1332 1021l-214 -178q45 -90 45 -192q0 -143 -84 -257l108 -137l-171 -143l-110 140q-83 -36 -172 -36q-148 0 -265 93l-218 -181l-116 151l215 178q-45 90 -45 192
q0 141 85 258l-110 137l171 143l111 -141q83 36 172 36q148 0 265 -93l217 180z" />
    <glyph glyph-name="yen" unicode="&#xa5;" horiz-adv-x="1384" 
d="M1072 229h-270l-48 -229h-261l49 229h-274l34 157h273l31 145h-274l34 157h206l-278 755h269l223 -622h17l475 622h286l-589 -755h195l-34 -157h-271l-31 -145h272z" />
    <glyph glyph-name="brokenbar" unicode="&#xa6;" horiz-adv-x="723" 
d="M568 774h-223l142 669h224zM339 -303h-224l142 670h224z" />
    <glyph glyph-name="section" unicode="&#xa7;" horiz-adv-x="1032" 
d="M498 440l101 -46q79 17 127 64t48 109q0 95 -113 141l-97 44q-82 -11 -136 -59t-54 -112q0 -89 124 -141zM450 -277q-176 0 -295 91.5t-125 238.5h225q12 -63 66 -103t133 -40q86 0 140.5 40t54.5 102q0 43 -25 74.5t-86 55.5l-159 70q-233 100 -233 290q0 108 72.5 185
t194.5 103l3 18q-81 52 -115 106.5t-34 132.5q0 149 116 241.5t297 92.5q174 0 283.5 -88.5t123.5 -236.5h-220q-9 62 -60.5 99.5t-128.5 37.5q-79 0 -129.5 -38.5t-50.5 -97.5q0 -81 121 -131l143 -65q122 -53 181.5 -122t59.5 -168q0 -106 -71 -187.5t-192 -108.5l-2 -15
q78 -52 111 -106.5t33 -131.5q0 -148 -122 -243.5t-310 -95.5z" />
    <glyph glyph-name="dieresis" unicode="&#xa8;" horiz-adv-x="1079" 
d="M546 1265q-61 0 -102 40.5t-41 100.5t41 100.5t102 40.5t102 -40.5t41 -100.5t-41 -100.5t-102 -40.5zM991 1265q-61 0 -102 40.5t-41 100.5t41 100.5t102 40.5t102 -40.5t41 -100.5t-41 -100.5t-102 -40.5z" />
    <glyph glyph-name="copyright" unicode="&#xa9;" horiz-adv-x="1742" 
d="M902 -148q-154 0 -291.5 56.5t-236.5 152.5t-157 230.5t-58 284.5q0 238 113.5 435t311.5 310t438 113q157 0 295 -55.5t236.5 -151t155.5 -230t57 -286.5q0 -239 -113.5 -436t-312 -310t-438.5 -113zM914 5q142 0 270.5 54.5t221.5 147.5t147.5 222t54.5 271
q0 165 -77 298t-213.5 208t-306.5 75q-141 0 -270 -55t-221.5 -147.5t-147.5 -221.5t-55 -270q0 -163 78 -296.5t214.5 -209.5t304.5 -76zM1326 772h-167q-3 61 -47.5 99.5t-111.5 38.5q-101 0 -169.5 -91.5t-68.5 -226.5q0 -94 45 -148t124 -54q127 0 171 107h172
q-28 -117 -123 -185t-229 -68q-148 0 -239 94t-91 247q0 203 118.5 336.5t297.5 133.5q141 0 229 -79t89 -204z" />
    <glyph glyph-name="ordfeminine" unicode="&#xaa;" horiz-adv-x="998" 
d="M595 925q-87 -3 -136 -37t-49 -91q0 -50 39 -81t102 -31q79 0 139 46t77 118l17 83zM458 512q-120 0 -198.5 72t-78.5 183q0 139 103.5 218.5t291.5 84.5l239 7q1 4 7 29.5t6 26.5q5 28 4 37q1 52 -40.5 81.5t-112.5 29.5q-124 0 -160 -85h-222q32 126 136 196.5
t257 70.5q167 0 268.5 -75.5t101.5 -199.5q0 -39 -7 -73l-126 -590h-221l22 109h-16q-42 -58 -109.5 -90t-144.5 -32z" />
    <glyph glyph-name="guillemotleft" unicode="&#xab;" horiz-adv-x="1426" 
d="M1390 982l-446 -431l-2 -12l250 -390h-237l-261 413l2 8l431 412h263zM891 982l-443 -427l-2 -13l247 -393h-237l-261 413l2 8l425 412h269z" />
    <glyph glyph-name="logicalnot" unicode="&#xac;" horiz-adv-x="1383" 
d="M1273 692l-127 -608h-216l83 390h-794l45 218h1009z" />
    <glyph glyph-name="registered" unicode="&#xae;" horiz-adv-x="1260" 
d="M624 737h-115l104 491h246q65 0 110 -42t45 -100q0 -64 -39 -108t-103 -57l88 -184h-128l-81 171h-90zM708 1129l-28 -129h111q96 0 96 74q0 25 -18 40t-52 15h-109zM241 969q0 219 153.5 371.5t373.5 152.5q226 0 377 -149.5t151 -374.5q0 -143 -70 -263.5
t-191.5 -190.5t-266.5 -70q-224 0 -375.5 150.5t-151.5 373.5zM1173 969q0 174 -115 289t-290 115q-169 0 -286.5 -117.5t-117.5 -286.5q0 -173 114.5 -288t287.5 -115q170 0 288.5 117.5t118.5 285.5z" />
    <glyph glyph-name="macron" unicode="&#xaf;" horiz-adv-x="1079" 
d="M1103 1305h-712l34 164h713z" />
    <glyph glyph-name="degree" unicode="&#xb0;" horiz-adv-x="915" 
d="M625 768q-148 0 -247.5 100.5t-99.5 246.5t99.5 246.5t247.5 100.5q149 0 248.5 -100.5t99.5 -246.5t-99.5 -246.5t-248.5 -100.5zM625 927q84 0 136.5 54t52.5 134q0 81 -52.5 134.5t-136.5 53.5q-83 0 -135 -53.5t-52 -134.5q0 -80 52 -134t135 -54z" />
    <glyph glyph-name="plusminus" unicode="&#xb1;" horiz-adv-x="1384" 
d="M1143 86h-1005l41 197h1004zM869 654l-55 -255h-215l55 255h-395l39 192h396l55 255h216l-56 -255h395l-40 -192h-395z" />
    <glyph glyph-name="two.sups" unicode="&#xb2;" horiz-adv-x="894" 
d="M344 1534q9 134 115.5 220.5t261.5 86.5q142 0 233 -73t91 -187q0 -83 -55 -155.5t-203 -183.5q-1 -1 -94 -71.5t-106 -77.5l-2 -12h376l-39 -184h-692l35 168l334 256q131 98 174 145.5t43 93.5q0 44 -32 72t-84 28q-55 0 -94.5 -34t-49.5 -90v-2h-212z" />
    <glyph glyph-name="three.sups" unicode="&#xb3;" horiz-adv-x="916" 
d="M538 1290l33 161h117q64 0 105 33t41 84q0 43 -34 69.5t-89 26.5q-49 0 -86.5 -26t-51.5 -70h-212q25 125 125.5 199t244.5 74q143 0 235 -69t92 -176q0 -90 -62 -154t-157 -74l-2 -13q78 -17 119.5 -66.5t41.5 -124.5q0 -128 -105.5 -210t-271.5 -82q-168 0 -270 90.5
t-86 225.5h218q-2 -57 36 -92t102 -35q67 0 107.5 35t40.5 92q0 45 -37 73.5t-95 28.5h-99z" />
    <glyph glyph-name="acute" unicode="&#xb4;" horiz-adv-x="1079" 
d="M476 1275l323 347h280l-357 -347h-246z" />
    <glyph glyph-name="mugreek" unicode="&#xb5;" horiz-adv-x="1331" 
d="M-5 -364l308 1458h250l-126 -594q-16 -73 -16 -116q0 -188 186 -188q105 0 188 78.5t109 200.5l132 619h247l-166 -778q-6 -30 -6 -56q0 -37 19.5 -53t66.5 -16q29 0 54 5l-41 -194q-45 -12 -116 -12q-219 0 -219 193v6h-18q-49 -89 -129 -150t-185 -61q-64 0 -113 29.5
t-63 78.5h-17l-97 -450h-248z" />
    <glyph glyph-name="mugreek" unicode="&#x3bc;" horiz-adv-x="1331" 
d="M-5 -364l308 1458h250l-126 -594q-16 -73 -16 -116q0 -188 186 -188q105 0 188 78.5t109 200.5l132 619h247l-166 -778q-6 -30 -6 -56q0 -37 19.5 -53t66.5 -16q29 0 54 5l-41 -194q-45 -12 -116 -12q-219 0 -219 193v6h-18q-49 -89 -129 -150t-185 -61q-64 0 -113 29.5
t-63 78.5h-17l-97 -450h-248z" />
    <glyph glyph-name="paragraph" unicode="&#xb6;" horiz-adv-x="1459" 
d="M802 -245h-244l160 747q-184 11 -296 123t-112 281q0 234 164 383t430 154h257zM963 -245l358 1688h244l-359 -1688h-243z" />
    <glyph glyph-name="periodcentered" unicode="&#xb7;" horiz-adv-x="689" 
d="M432 570q-75 0 -121.5 46t-46.5 116q0 74 46 121.5t122 47.5q74 0 120.5 -46.5t46.5 -115.5q0 -74 -46 -121.5t-121 -47.5z" />
    <glyph glyph-name="cedilla" unicode="&#xb8;" horiz-adv-x="1079" 
d="M257 -233l16 107l104 163h168l-103 -162q166 -24 166 -162q0 -92 -71 -148.5t-186 -56.5q-103 0 -182 36l26 123q69 -27 144 -27q45 0 70.5 16.5t25.5 45.5q0 65 -122 65h-56z" />
    <glyph glyph-name="one.sups" unicode="&#xb9;" horiz-adv-x="730" 
d="M438 897l149 696h-13l-252 -148l44 213l267 158h234l-196 -919h-233z" />
    <glyph glyph-name="ordmasculine" unicode="&#xba;" horiz-adv-x="1076" 
d="M716 1275q-109 0 -183.5 -101.5t-74.5 -247.5q0 -109 47.5 -171t131.5 -62q107 0 182.5 104t75.5 251q0 106 -48 166.5t-131 60.5zM623 503q-187 0 -295.5 111.5t-108.5 302.5q0 236 146.5 391.5t367.5 155.5q188 0 294.5 -110t106.5 -303q0 -236 -145.5 -392
t-365.5 -156z" />
    <glyph glyph-name="guillemotright" unicode="&#xbb;" horiz-adv-x="1428" 
d="M586 592l-251 390h238l261 -413l-2 -8l-431 -412h-263l446 431zM1084 589l-247 393h237l261 -413l-2 -8l-425 -412h-269l443 427z" />
    <glyph glyph-name="onequarter" unicode="&#xbc;" horiz-adv-x="2203" 
d="M1712 0l31 147h-453l39 209q149 204 463 563h336l-126 -586h115l-39 -186h-114l-32 -147h-220zM1532 336l-3 -12h257l91 425h-11q-177 -203 -334 -413zM454 524l149 696h-13l-252 -148l44 213l267 158h234l-196 -919h-233zM534 0l531 757l452 686h239l-526 -739
l-457 -704h-239z" />
    <glyph glyph-name="onehalf" unicode="&#xbd;" horiz-adv-x="2195" 
d="M1468 637q9 134 115.5 220.5t261.5 86.5q142 0 233 -73t91 -187q0 -83 -55 -155.5t-203 -183.5q-1 -1 -94 -71.5t-106 -77.5l-2 -12h376l-39 -184h-692l35 168l334 256q131 98 174 145.5t43 93.5q0 44 -32 72t-84 28q-55 0 -94.5 -34t-49.5 -90v-2h-212zM454 524l149 696
h-13l-252 -148l44 213l267 158h234l-196 -919h-233zM534 0l531 757l452 686h239l-526 -739l-457 -704h-239z" />
    <glyph glyph-name="threequarters" unicode="&#xbe;" horiz-adv-x="2337" 
d="M494 917l33 161h117q64 0 105 33t41 84q0 43 -34 69.5t-89 26.5q-49 0 -86.5 -26t-51.5 -70h-212q25 125 125.5 199t244.5 74q143 0 235 -69t92 -176q0 -90 -62 -154t-157 -74l-2 -13q78 -17 119.5 -66.5t41.5 -124.5q0 -128 -105.5 -210t-271.5 -82q-168 0 -270 90.5
t-86 225.5h218q-2 -57 36 -92t102 -35q67 0 107.5 35t40.5 92q0 45 -37 73.5t-95 28.5h-99zM1846 0l31 147h-453l39 209q149 204 463 563h336l-126 -586h115l-39 -186h-114l-32 -147h-220zM1666 336l-3 -12h257l91 425h-11q-177 -203 -334 -413zM668 0l531 757l452 686h239
l-526 -739l-457 -704h-239z" />
    <glyph glyph-name="questiondown" unicode="&#xbf;" horiz-adv-x="1107" 
d="M725 1140q74 0 121.5 -43t47.5 -111q0 -72 -47.5 -118.5t-121.5 -46.5q-72 0 -119.5 43t-47.5 111q0 71 47 118t120 47zM731 49h237q-28 -176 -156.5 -283t-329.5 -107q-200 0 -324.5 99t-124.5 249q0 128 77 233.5t210 164.5q110 49 156 93.5t60 118.5l10 48h237
l-14 -69q-24 -129 -81 -197t-177 -121q-116 -53 -167 -112t-51 -136q0 -68 54 -115t148 -47q86 0 149.5 48t86.5 133z" />
    <glyph glyph-name="Agrave" unicode="&#xc0;" horiz-adv-x="1457" 
d="M1053 0l-43 369h-535l-203 -369h-270l829 1443h283l201 -1443h-262zM904 1166l-325 -593h415l-72 593h-18zM947 1895l170 -310h-234l-203 310h267z" />
    <glyph glyph-name="Aacute" unicode="&#xc1;" horiz-adv-x="1457" 
d="M1053 0l-43 369h-535l-203 -369h-270l829 1443h283l201 -1443h-262zM904 1166l-325 -593h415l-72 593h-18zM875 1585l354 310h282l-386 -310h-250z" />
    <glyph glyph-name="Acircumflex" unicode="&#xc2;" horiz-adv-x="1457" 
d="M1053 0l-43 369h-535l-203 -369h-270l829 1443h283l201 -1443h-262zM904 1166l-325 -593h415l-72 593h-18zM1188 1906l186 -321h-226l-96 189h-18l-176 -189h-250l322 321h258z" />
    <glyph glyph-name="Atilde" unicode="&#xc3;" horiz-adv-x="1457" 
d="M1053 0l-43 369h-535l-203 -369h-270l829 1443h283l201 -1443h-262zM904 1166l-325 -593h415l-72 593h-18zM1189 1577q-56 0 -104.5 23.5t-77 52t-61.5 52t-61 23.5q-84 0 -104 -109h-166q18 124 91 196t174 72q45 0 85 -15.5t68 -37.5t52.5 -44.5t49.5 -38t49 -15.5
q84 0 104 109h166q-18 -125 -91 -196.5t-174 -71.5z" />
    <glyph glyph-name="Adieresis" unicode="&#xc4;" horiz-adv-x="1457" 
d="M1053 0l-43 369h-535l-203 -369h-270l829 1443h283l201 -1443h-262zM904 1166l-325 -593h415l-72 593h-18zM808 1577q-61 0 -102 40.5t-41 100.5t41 100.5t102 40.5t102 -40.5t41 -100.5t-41 -100.5t-102 -40.5zM1253 1577q-61 0 -102 40.5t-41 100.5t41 100.5t102 40.5
t102 -40.5t41 -100.5t-41 -100.5t-102 -40.5z" />
    <glyph glyph-name="Aring" unicode="&#xc5;" horiz-adv-x="1457" 
d="M1053 0l-43 369h-535l-203 -369h-270l829 1443h283l201 -1443h-262zM904 1166l-325 -593h415l-72 593h-18zM1040 1553q-83 0 -139.5 55.5t-56.5 137.5t56.5 137.5t139.5 55.5t139.5 -55.5t56.5 -137.5t-56.5 -137.5t-139.5 -55.5zM1040 1653q40 0 67 26t27 67t-27 67
t-67 26q-41 0 -67.5 -26t-26.5 -67t27 -67t67 -26z" />
    <glyph glyph-name="AE" unicode="&#xc6;" horiz-adv-x="2025" 
d="M1190 1235h-136l-407 -632h407zM926 0l86 398h-488l-260 -398h-263l923 1443h1204l-47 -223h-653l-84 -389h617l-44 -211h-616l-87 -397h653l-46 -223h-895z" />
    <glyph glyph-name="Ccedilla" unicode="&#xc7;" horiz-adv-x="1509" 
d="M1536 954h-254q1 2 1 9q-8 129 -98.5 207t-232.5 78q-139 0 -253.5 -87t-180.5 -239.5t-66 -338.5q0 -179 92.5 -283.5t250.5 -104.5q132 0 234 65.5t139 172.5h259q-45 -197 -198 -321t-375 -144l-60 -95q166 -24 166 -162q0 -92 -71 -148.5t-186 -56.5q-103 0 -182 36
l26 123q69 -27 144 -27q45 0 70.5 16.5t25.5 45.5q0 65 -122 65h-56l16 107l62 97q-229 26 -364 186t-135 408q0 262 100.5 471.5t279 327t401.5 117.5q243 0 406 -142t163 -354q0 -9 -2 -29z" />
    <glyph glyph-name="Egrave" unicode="&#xc8;" horiz-adv-x="1254" 
d="M857 1895l170 -310h-234l-203 310h267zM1089 223l-46 -223h-935l307 1443h935l-47 -223h-674l-83 -383h637l-44 -210h-637l-88 -404h675z" />
    <glyph glyph-name="Eacute" unicode="&#xc9;" horiz-adv-x="1254" 
d="M785 1585l354 310h282l-386 -310h-250zM1089 223l-46 -223h-935l307 1443h935l-47 -223h-674l-83 -383h637l-44 -210h-637l-88 -404h675z" />
    <glyph glyph-name="Ecircumflex" unicode="&#xca;" horiz-adv-x="1254" 
d="M1098 1906l186 -321h-226l-96 189h-18l-176 -189h-250l322 321h258zM1089 223l-46 -223h-935l307 1443h935l-47 -223h-674l-83 -383h637l-44 -210h-637l-88 -404h675z" />
    <glyph glyph-name="Edieresis" unicode="&#xcb;" horiz-adv-x="1254" 
d="M718 1577q-61 0 -102 40.5t-41 100.5t41 100.5t102 40.5t102 -40.5t41 -100.5t-41 -100.5t-102 -40.5zM1163 1577q-61 0 -102 40.5t-41 100.5t41 100.5t102 40.5t102 -40.5t41 -100.5t-41 -100.5t-102 -40.5zM1089 223l-46 -223h-935l307 1443h935l-47 -223h-674
l-83 -383h637l-44 -210h-637l-88 -404h675z" />
    <glyph glyph-name="Igrave" unicode="&#xcc;" horiz-adv-x="616" 
d="M368 0h-260l307 1443h260zM521 1895l170 -310h-234l-203 310h267z" />
    <glyph glyph-name="Iacute" unicode="&#xcd;" horiz-adv-x="616" 
d="M368 0h-260l307 1443h260zM449 1585l354 310h282l-386 -310h-250z" />
    <glyph glyph-name="Icircumflex" unicode="&#xce;" horiz-adv-x="616" 
d="M368 0h-260l307 1443h260zM762 1906l186 -321h-226l-96 189h-18l-176 -189h-250l322 321h258z" />
    <glyph glyph-name="Idieresis" unicode="&#xcf;" horiz-adv-x="616" 
d="M368 0h-260l307 1443h260zM382 1577q-61 0 -102 40.5t-41 100.5t41 100.5t102 40.5t102 -40.5t41 -100.5t-41 -100.5t-102 -40.5zM827 1577q-61 0 -102 40.5t-41 100.5t41 100.5t102 40.5t102 -40.5t41 -100.5t-41 -100.5t-102 -40.5z" />
    <glyph glyph-name="Eth" unicode="&#xd0;" horiz-adv-x="1517" 
d="M416 222h310q218 0 359 166t141 427q0 190 -102.5 298.5t-284.5 108.5h-208l-83 -384h207l-42 -204h-208zM415 1443h472q285 0 445 -160t160 -443q0 -239 -97 -431t-269 -300.5t-385 -108.5h-632l134 634h-163l43 204h164z" />
    <glyph glyph-name="Ntilde" unicode="&#xd1;" horiz-adv-x="1553" 
d="M1223 1577q-56 0 -104.5 23.5t-77 52t-61.5 52t-61 23.5q-84 0 -104 -109h-166q18 124 91 196t174 72q45 0 85 -15.5t68 -37.5t52.5 -44.5t49.5 -38t49 -15.5q84 0 104 109h166q-18 -125 -91 -196.5t-174 -71.5zM361 0h-253l307 1443h212l498 -1011h18l217 1011h253
l-307 -1443h-211l-501 1005h-17z" />
    <glyph glyph-name="Ograve" unicode="&#xd2;" horiz-adv-x="1603" 
d="M949 1894l170 -310h-234l-203 310h267zM798 -36q-178 0 -318 79t-216 217t-76 311q0 195 60 364.5t164.5 288.5t250.5 187t312 68q271 0 439 -171.5t168 -435.5q0 -196 -59.5 -365.5t-163.5 -288.5t-249.5 -186.5t-311.5 -67.5zM1316 851q0 178 -97.5 286.5t-256.5 108.5
q-141 0 -257.5 -86t-183 -236.5t-66.5 -332.5q0 -178 98 -286.5t258 -108.5q142 0 257.5 85t181.5 235t66 335z" />
    <glyph glyph-name="Oacute" unicode="&#xd3;" horiz-adv-x="1603" 
d="M877 1584l354 310h282l-386 -310h-250zM798 -36q-178 0 -318 79t-216 217t-76 311q0 195 60 364.5t164.5 288.5t250.5 187t312 68q271 0 439 -171.5t168 -435.5q0 -196 -59.5 -365.5t-163.5 -288.5t-249.5 -186.5t-311.5 -67.5zM1316 851q0 178 -97.5 286.5t-256.5 108.5
q-141 0 -257.5 -86t-183 -236.5t-66.5 -332.5q0 -178 98 -286.5t258 -108.5q142 0 257.5 85t181.5 235t66 335z" />
    <glyph glyph-name="Ocircumflex" unicode="&#xd4;" horiz-adv-x="1603" 
d="M1190 1905l186 -321h-226l-96 189h-18l-176 -189h-250l322 321h258zM798 -36q-178 0 -318 79t-216 217t-76 311q0 195 60 364.5t164.5 288.5t250.5 187t312 68q271 0 439 -171.5t168 -435.5q0 -196 -59.5 -365.5t-163.5 -288.5t-249.5 -186.5t-311.5 -67.5zM1316 851
q0 178 -97.5 286.5t-256.5 108.5q-141 0 -257.5 -86t-183 -236.5t-66.5 -332.5q0 -178 98 -286.5t258 -108.5q142 0 257.5 85t181.5 235t66 335z" />
    <glyph glyph-name="Otilde" unicode="&#xd5;" horiz-adv-x="1603" 
d="M798 -36q-178 0 -318 79t-216 217t-76 311q0 195 60 364.5t164.5 288.5t250.5 187t312 68q271 0 439 -171.5t168 -435.5q0 -196 -59.5 -365.5t-163.5 -288.5t-249.5 -186.5t-311.5 -67.5zM1316 851q0 178 -97.5 286.5t-256.5 108.5q-141 0 -257.5 -86t-183 -236.5
t-66.5 -332.5q0 -178 98 -286.5t258 -108.5q142 0 257.5 85t181.5 235t66 335zM1191 1576q-56 0 -104.5 23.5t-77 52t-61.5 52t-61 23.5q-84 0 -104 -109h-166q18 124 91 196t174 72q45 0 85 -15.5t68 -38t52.5 -44.5t49.5 -37.5t49 -15.5q84 0 104 109h166
q-18 -125 -91 -196.5t-174 -71.5z" />
    <glyph glyph-name="Odieresis" unicode="&#xd6;" horiz-adv-x="1603" 
d="M810 1576q-61 0 -102 40.5t-41 100.5t41 100.5t102 40.5t102 -40.5t41 -100.5t-41 -100.5t-102 -40.5zM1255 1576q-61 0 -102 40.5t-41 100.5t41 100.5t102 40.5t102 -40.5t41 -100.5t-41 -100.5t-102 -40.5zM798 -36q-178 0 -318 79t-216 217t-76 311q0 195 60 364.5
t164.5 288.5t250.5 187t312 68q271 0 439 -171.5t168 -435.5q0 -196 -59.5 -365.5t-163.5 -288.5t-249.5 -186.5t-311.5 -67.5zM1316 851q0 178 -97.5 286.5t-256.5 108.5q-141 0 -257.5 -86t-183 -236.5t-66.5 -332.5q0 -178 98 -286.5t258 -108.5q142 0 257.5 85
t181.5 235t66 335z" />
    <glyph glyph-name="multiply" unicode="&#xd7;" horiz-adv-x="1383" 
d="M952 113l-233 310l-364 -290l-126 173l364 290l-234 313l179 138l233 -307l365 289l126 -173l-365 -290l234 -315z" />
    <glyph glyph-name="Oslash" unicode="&#xd8;" horiz-adv-x="1577" 
d="M1237 1115l-610 -871q81 -48 184 -48q142 0 257.5 85t181.5 235t66 335q0 158 -79 264zM536 325l611 872q-80 49 -185 49q-141 0 -257.5 -86t-183 -236.5t-66.5 -332.5q0 -160 81 -266zM1463 1438l-74 -106q92 -82 142.5 -201t50.5 -259q0 -196 -59.5 -365.5
t-163.5 -288.5t-249.5 -186.5t-311.5 -67.5q-175 0 -313 76l-71 -101l-100 70l71 101q-94 84 -145.5 202.5t-51.5 258.5q0 195 60 364.5t164.5 288.5t250.5 187t312 68q175 0 315 -77l69 98z" />
    <glyph glyph-name="Ugrave" unicode="&#xd9;" horiz-adv-x="1549" 
d="M987 1895l170 -310h-234l-203 310h267zM761 -36q-252 0 -396.5 129t-146.5 333q0 65 13 127l188 890h260l-185 -880q-14 -61 -12 -114q4 -118 82 -185t221 -67q140 0 237 81t129 227l199 938h261l-211 -994q-49 -231 -214 -358t-425 -127z" />
    <glyph glyph-name="Uacute" unicode="&#xda;" horiz-adv-x="1549" 
d="M915 1585l354 310h282l-386 -310h-250zM761 -36q-252 0 -396.5 129t-146.5 333q0 65 13 127l188 890h260l-185 -880q-14 -61 -12 -114q4 -118 82 -185t221 -67q140 0 237 81t129 227l199 938h261l-211 -994q-49 -231 -214 -358t-425 -127z" />
    <glyph glyph-name="Ucircumflex" unicode="&#xdb;" horiz-adv-x="1549" 
d="M1228 1906l186 -321h-226l-96 189h-18l-176 -189h-250l322 321h258zM761 -36q-252 0 -396.5 129t-146.5 333q0 65 13 127l188 890h260l-185 -880q-14 -61 -12 -114q4 -118 82 -185t221 -67q140 0 237 81t129 227l199 938h261l-211 -994q-49 -231 -214 -358t-425 -127z
" />
    <glyph glyph-name="Udieresis" unicode="&#xdc;" horiz-adv-x="1549" 
d="M848 1577q-61 0 -102 40.5t-41 100.5t41 100.5t102 40.5t102 -40.5t41 -100.5t-41 -100.5t-102 -40.5zM1293 1577q-61 0 -102 40.5t-41 100.5t41 100.5t102 40.5t102 -40.5t41 -100.5t-41 -100.5t-102 -40.5zM761 -36q-252 0 -396.5 129t-146.5 333q0 65 13 127l188 890
h260l-185 -880q-14 -61 -12 -114q4 -118 82 -185t221 -67q140 0 237 81t129 227l199 938h261l-211 -994q-49 -231 -214 -358t-425 -127z" />
    <glyph glyph-name="Yacute" unicode="&#xdd;" horiz-adv-x="1412" 
d="M768 0h-261l121 564l-319 879h268l223 -622h17l476 622h285l-695 -896zM845 1585l354 310h282l-386 -310h-250z" />
    <glyph glyph-name="Thorn" unicode="&#xde;" horiz-adv-x="1345" 
d="M109 0l307 1443h258l-53 -244h293q181 0 297 -107.5t116 -275.5q0 -220 -159 -362.5t-411 -142.5h-324l-67 -311h-257zM575 982l-98 -456h258q154 0 242.5 70.5t88.5 193.5q0 91 -60 141.5t-175 50.5h-256z" />
    <glyph glyph-name="germandbls" unicode="&#xdf;" horiz-adv-x="1381" 
d="M374 0h-249l232 1082q36 167 168 262.5t325 95.5q196 0 323 -99.5t127 -254.5q0 -134 -87.5 -229.5t-224.5 -112.5l-4 -19q139 -21 218 -101t79 -202q0 -195 -141 -317t-364 -122q-138 0 -236 38l44 204q71 -33 173 -33q119 0 198 67.5t79 169.5q0 90 -73 141t-197 51
h-73l45 218h76q100 0 169.5 60t69.5 147q0 82 -58 132.5t-152 50.5q-98 0 -164.5 -60t-89.5 -170z" />
    <glyph glyph-name="agrave" unicode="&#xe0;" horiz-adv-x="1174" 
d="M518 176q103 0 183 59t100 150l23 106l-250 -11q-111 -4 -174 -48t-63 -116q0 -61 50.5 -100.5t130.5 -39.5zM420 -18q-140 0 -234.5 86t-94.5 214q0 165 126.5 261t355.5 104l286 11l15 70q5 25 5 44q0 66 -53.5 104t-146.5 38q-78 0 -132 -29t-77 -83h-241
q35 145 162 229.5t307 84.5q193 0 310.5 -87t117.5 -229q0 -40 -9 -89l-151 -711h-241l29 138h-17q-50 -72 -135 -114t-182 -42zM864 1275h-234l-209 347h268z" />
    <glyph glyph-name="aacute" unicode="&#xe1;" horiz-adv-x="1174" 
d="M518 176q103 0 183 59t100 150l23 106l-250 -11q-111 -4 -174 -48t-63 -116q0 -61 50.5 -100.5t130.5 -39.5zM420 -18q-140 0 -234.5 86t-94.5 214q0 165 126.5 261t355.5 104l286 11l15 70q5 25 5 44q0 66 -53.5 104t-146.5 38q-78 0 -132 -29t-77 -83h-241
q35 145 162 229.5t307 84.5q193 0 310.5 -87t117.5 -229q0 -40 -9 -89l-151 -711h-241l29 138h-17q-50 -72 -135 -114t-182 -42zM645 1275l323 347h280l-357 -347h-246z" />
    <glyph glyph-name="acircumflex" unicode="&#xe2;" horiz-adv-x="1174" 
d="M518 176q103 0 183 59t100 150l23 106l-250 -11q-111 -4 -174 -48t-63 -116q0 -61 50.5 -100.5t130.5 -39.5zM420 -18q-140 0 -234.5 86t-94.5 214q0 165 126.5 261t355.5 104l286 11l15 70q5 25 5 44q0 66 -53.5 104t-146.5 38q-78 0 -132 -29t-77 -83h-241
q35 145 162 229.5t307 84.5q193 0 310.5 -87t117.5 -229q0 -40 -9 -89l-151 -711h-241l29 138h-17q-50 -72 -135 -114t-182 -42zM934 1591l204 -348h-227l-113 215h-18l-204 -215h-252l352 348h258z" />
    <glyph glyph-name="atilde" unicode="&#xe3;" horiz-adv-x="1174" 
d="M518 176q103 0 183 59t100 150l23 106l-250 -11q-111 -4 -174 -48t-63 -116q0 -61 50.5 -100.5t130.5 -39.5zM420 -18q-140 0 -234.5 86t-94.5 214q0 165 126.5 261t355.5 104l286 11l15 70q5 25 5 44q0 66 -53.5 104t-146.5 38q-78 0 -132 -29t-77 -83h-241
q35 145 162 229.5t307 84.5q193 0 310.5 -87t117.5 -229q0 -40 -9 -89l-151 -711h-241l29 138h-17q-50 -72 -135 -114t-182 -42zM941 1235q-47 0 -87.5 17.5t-67 43t-49.5 51t-47.5 43t-48.5 17.5q-81 0 -102 -130h-169q16 134 90 211.5t180 77.5q47 0 86.5 -17.5t66 -43
t49.5 -50.5t47.5 -42.5t48.5 -17.5q82 0 103 129h169q-16 -133 -90 -211t-179 -78z" />
    <glyph glyph-name="adieresis" unicode="&#xe4;" horiz-adv-x="1174" 
d="M518 176q103 0 183 59t100 150l23 106l-250 -11q-111 -4 -174 -48t-63 -116q0 -61 50.5 -100.5t130.5 -39.5zM420 -18q-140 0 -234.5 86t-94.5 214q0 165 126.5 261t355.5 104l286 11l15 70q5 25 5 44q0 66 -53.5 104t-146.5 38q-78 0 -132 -29t-77 -83h-241
q35 145 162 229.5t307 84.5q193 0 310.5 -87t117.5 -229q0 -40 -9 -89l-151 -711h-241l29 138h-17q-50 -72 -135 -114t-182 -42zM550 1242q-61 0 -102 40.5t-41 100.5t41 100.5t102 40.5t102 -40.5t41 -100.5t-41 -100.5t-102 -40.5zM995 1242q-61 0 -102 40.5t-41 100.5
t41 100.5t102 40.5t102 -40.5t41 -100.5t-41 -100.5t-102 -40.5z" />
    <glyph glyph-name="aring" unicode="&#xe5;" horiz-adv-x="1174" 
d="M518 176q103 0 183 59t100 150l23 106l-250 -11q-111 -4 -174 -48t-63 -116q0 -61 50.5 -100.5t130.5 -39.5zM420 -18q-140 0 -234.5 86t-94.5 214q0 165 126.5 261t355.5 104l286 11l15 70q5 25 5 44q0 66 -53.5 104t-146.5 38q-78 0 -132 -29t-77 -83h-241
q35 145 162 229.5t307 84.5q193 0 310.5 -87t117.5 -229q0 -40 -9 -89l-151 -711h-241l29 138h-17q-50 -72 -135 -114t-182 -42zM816 1243q-102 0 -171.5 67.5t-69.5 168.5t69.5 168t171.5 67t171 -67t69 -168t-69 -168.5t-171 -67.5zM815 1368q49 0 80.5 31.5t31.5 78.5
q0 48 -32 79.5t-80 31.5t-79.5 -32t-31.5 -79t31.5 -78.5t79.5 -31.5z" />
    <glyph glyph-name="ae" unicode="&#xe6;" horiz-adv-x="1904" 
d="M1288 -22q-124 0 -233 59.5t-153 155.5h-17q-58 -92 -171 -153.5t-245 -61.5q-165 0 -271 88t-106 219q0 169 125 264t357 103l286 10l15 66q5 24 5 44q0 66 -53.5 104t-146.5 38q-78 0 -132 -29t-77 -83h-241q36 147 161 230.5t304 83.5q117 0 207 -42.5t133 -117.5h18
q68 77 161 118.5t200 41.5q186 0 312 -124t127 -329q0 -77 -16 -173h-772q0 -6 -0.5 -20t-0.5 -20q0 -134 71 -202t175 -68q176 0 236 122h245q-37 -145 -171.5 -234.5t-331.5 -89.5zM1094 658h517q3 9 3 40q0 95 -58.5 157.5t-160.5 62.5q-108 0 -188.5 -70.5
t-112.5 -189.5zM519 171q103 0 183 61t100 153l23 106l-250 -11q-111 -4 -174 -48t-63 -117q0 -62 51 -103t130 -41z" />
    <glyph glyph-name="ccedilla" unicode="&#xe7;" horiz-adv-x="1189" 
d="M1178 732h-240q-5 79 -67 127t-152 48q-142 0 -234.5 -127.5t-92.5 -317.5q0 -131 63.5 -202.5t167.5 -71.5q89 0 152.5 42t90.5 120h242q-28 -154 -152 -256.5t-308 -114.5l-68 -106q166 -24 166 -162q0 -92 -71 -148.5t-186 -56.5q-103 0 -182 36l26 123
q69 -27 144 -27q45 0 70.5 16.5t25.5 45.5q0 65 -122 65h-56l16 107l75 118q-161 34 -253 153t-92 297q0 192 75 346t211 242t309 88q180 0 300.5 -99t138.5 -240q3 -21 3 -45z" />
    <glyph glyph-name="egrave" unicode="&#xe8;" horiz-adv-x="1219" 
d="M851 1275h-234l-209 347h268zM613 -22q-207 0 -338.5 124.5t-131.5 340.5q0 301 162.5 487t421.5 186q192 0 318.5 -123t127.5 -330q0 -77 -16 -173h-773q0 -6 -0.5 -19.5t-0.5 -19.5q0 -133 71 -202t175 -69q177 0 237 122h245q-37 -145 -170.5 -234.5t-327.5 -89.5z
M413 658h517q3 9 3 40q0 95 -58.5 157.5t-160.5 62.5q-108 0 -188.5 -70.5t-112.5 -189.5z" />
    <glyph glyph-name="eacute" unicode="&#xe9;" horiz-adv-x="1219" 
d="M632 1275l323 347h280l-357 -347h-246zM613 -22q-207 0 -338.5 124.5t-131.5 340.5q0 301 162.5 487t421.5 186q192 0 318.5 -123t127.5 -330q0 -77 -16 -173h-773q0 -6 -0.5 -19.5t-0.5 -19.5q0 -133 71 -202t175 -69q177 0 237 122h245q-37 -145 -170.5 -234.5
t-327.5 -89.5zM413 658h517q3 9 3 40q0 95 -58.5 157.5t-160.5 62.5q-108 0 -188.5 -70.5t-112.5 -189.5z" />
    <glyph glyph-name="ecircumflex" unicode="&#xea;" horiz-adv-x="1219" 
d="M943 1591l204 -348h-227l-113 215h-18l-204 -215h-252l352 348h258zM613 -22q-207 0 -338.5 124.5t-131.5 340.5q0 301 162.5 487t421.5 186q192 0 318.5 -123t127.5 -330q0 -77 -16 -173h-773q0 -6 -0.5 -19.5t-0.5 -19.5q0 -133 71 -202t175 -69q177 0 237 122h245
q-37 -145 -170.5 -234.5t-327.5 -89.5zM413 658h517q3 9 3 40q0 95 -58.5 157.5t-160.5 62.5q-108 0 -188.5 -70.5t-112.5 -189.5z" />
    <glyph glyph-name="edieresis" unicode="&#xeb;" horiz-adv-x="1219" 
d="M613 -22q-207 0 -338.5 124.5t-131.5 340.5q0 301 162.5 487t421.5 186q192 0 318.5 -123t127.5 -330q0 -77 -16 -173h-773q0 -6 -0.5 -19.5t-0.5 -19.5q0 -133 71 -202t175 -69q177 0 237 122h245q-37 -145 -170.5 -234.5t-327.5 -89.5zM413 658h517q3 9 3 40
q0 95 -58.5 157.5t-160.5 62.5q-108 0 -188.5 -70.5t-112.5 -189.5zM559 1242q-61 0 -102 40.5t-41 100.5t41 100.5t102 40.5t102 -40.5t41 -100.5t-41 -100.5t-102 -40.5zM1004 1242q-61 0 -102 40.5t-41 100.5t41 100.5t102 40.5t102 -40.5t41 -100.5t-41 -100.5
t-102 -40.5z" />
    <glyph glyph-name="igrave" unicode="&#xec;" horiz-adv-x="569" 
d="M577 1275h-234l-209 347h268zM91 0l232 1094h248l-232 -1094h-248z" />
    <glyph glyph-name="iacute" unicode="&#xed;" horiz-adv-x="569" 
d="M358 1275l323 347h280l-357 -347h-246zM91 0l232 1094h248l-232 -1094h-248z" />
    <glyph glyph-name="icircumflex" unicode="&#xee;" horiz-adv-x="569" 
d="M669 1591l204 -348h-227l-113 215h-18l-204 -215h-252l352 348h258zM91 0l232 1094h248l-232 -1094h-248z" />
    <glyph glyph-name="idieresis" unicode="&#xef;" horiz-adv-x="569" 
d="M91 0l232 1094h248l-232 -1094h-248zM285 1242q-61 0 -102 40.5t-41 100.5t41 100.5t102 40.5t102 -40.5t41 -100.5t-41 -100.5t-102 -40.5zM730 1242q-61 0 -102 40.5t-41 100.5t41 100.5t102 40.5t102 -40.5t41 -100.5t-41 -100.5t-102 -40.5z" />
    <glyph glyph-name="eth" unicode="&#xf0;" horiz-adv-x="1260" 
d="M616 -22q-211 0 -347 128.5t-136 324.5q0 177 68 323t188 229.5t268 83.5q109 0 200.5 -48t126.5 -124l16 -1q-6 161 -105 339l-326 -98l-18 143l261 79q-49 63 -146 155h279q50 -52 76 -89l245 77l20 -143l-186 -57q135 -248 135 -513q0 -169 -41 -312
q-65 -231 -218.5 -364t-359.5 -133zM965 608q0 115 -70.5 186.5t-182.5 71.5q-134 0 -227.5 -121.5t-93.5 -294.5q0 -118 66 -188t177 -70q129 0 230 126.5t101 289.5z" />
    <glyph glyph-name="ntilde" unicode="&#xf1;" horiz-adv-x="1253" 
d="M1017 1235q-47 0 -87.5 17.5t-67 43t-49.5 51t-47.5 43t-48.5 17.5q-81 0 -102 -130h-169q16 134 90 211.5t180 77.5q47 0 86.5 -17.5t66 -43t49.5 -50.5t47.5 -42.5t48.5 -17.5q82 0 103 129h169q-16 -133 -90 -211t-179 -78zM79 0l233 1094h240l-36 -170h17
q123 188 335 188q150 0 240 -92.5t90 -230.5q0 -61 -15 -128l-140 -661h-249l132 619q12 51 12 92q0 85 -51.5 137t-144.5 52q-104 0 -177 -68.5t-97 -178.5l-140 -653h-249z" />
    <glyph glyph-name="ograve" unicode="&#xf2;" horiz-adv-x="1260" 
d="M870 1275h-234l-209 347h268zM402 460q0 -125 63 -199.5t170 -74.5q133 0 227.5 128.5t94.5 307.5q0 134 -60 210t-166 76q-144 0 -236.5 -126.5t-92.5 -321.5zM616 -22q-212 0 -343 129.5t-131 339.5q0 191 77.5 344t215.5 239t311 86q212 0 342 -129t130 -340
q0 -189 -78 -342.5t-215.5 -240t-308.5 -86.5z" />
    <glyph glyph-name="oacute" unicode="&#xf3;" horiz-adv-x="1260" 
d="M651 1275l323 347h280l-357 -347h-246zM402 460q0 -125 63 -199.5t170 -74.5q133 0 227.5 128.5t94.5 307.5q0 134 -60 210t-166 76q-144 0 -236.5 -126.5t-92.5 -321.5zM616 -22q-212 0 -343 129.5t-131 339.5q0 191 77.5 344t215.5 239t311 86q212 0 342 -129t130 -340
q0 -189 -78 -342.5t-215.5 -240t-308.5 -86.5z" />
    <glyph glyph-name="ocircumflex" unicode="&#xf4;" horiz-adv-x="1260" 
d="M962 1591l204 -348h-227l-113 215h-18l-204 -215h-252l352 348h258zM402 460q0 -125 63 -199.5t170 -74.5q133 0 227.5 128.5t94.5 307.5q0 134 -60 210t-166 76q-144 0 -236.5 -126.5t-92.5 -321.5zM616 -22q-212 0 -343 129.5t-131 339.5q0 191 77.5 344t215.5 239
t311 86q212 0 342 -129t130 -340q0 -189 -78 -342.5t-215.5 -240t-308.5 -86.5z" />
    <glyph glyph-name="otilde" unicode="&#xf5;" horiz-adv-x="1260" 
d="M969 1235q-47 0 -87.5 17.5t-67 43t-49.5 51t-47.5 43t-48.5 17.5q-81 0 -102 -130h-169q16 134 90 211.5t180 77.5q47 0 86.5 -17.5t66 -43t49.5 -50.5t47.5 -42.5t48.5 -17.5q82 0 103 129h169q-16 -133 -90 -211t-179 -78zM402 460q0 -125 63 -199.5t170 -74.5
q133 0 227.5 128.5t94.5 307.5q0 134 -60 210t-166 76q-144 0 -236.5 -126.5t-92.5 -321.5zM616 -22q-212 0 -343 129.5t-131 339.5q0 191 77.5 344t215.5 239t311 86q212 0 342 -129t130 -340q0 -189 -78 -342.5t-215.5 -240t-308.5 -86.5z" />
    <glyph glyph-name="odieresis" unicode="&#xf6;" horiz-adv-x="1260" 
d="M578 1242q-61 0 -102 40.5t-41 100.5t41 100.5t102 40.5t102 -40.5t41 -100.5t-41 -100.5t-102 -40.5zM1023 1242q-61 0 -102 40.5t-41 100.5t41 100.5t102 40.5t102 -40.5t41 -100.5t-41 -100.5t-102 -40.5zM402 460q0 -125 63 -199.5t170 -74.5q133 0 227.5 128.5
t94.5 307.5q0 134 -60 210t-166 76q-144 0 -236.5 -126.5t-92.5 -321.5zM616 -22q-212 0 -343 129.5t-131 339.5q0 191 77.5 344t215.5 239t311 86q212 0 342 -129t130 -340q0 -189 -78 -342.5t-215.5 -240t-308.5 -86.5z" />
    <glyph glyph-name="divide" unicode="&#xf7;" horiz-adv-x="1384" 
d="M1255 484h-1058l41 197h1058zM818 813q-67 0 -109 41.5t-42 104.5q0 66 42 109t109 43q66 0 108 -42t42 -104q0 -67 -41.5 -109.5t-108.5 -42.5zM658 55q-67 0 -109 41.5t-42 103.5q0 66 42 109t109 43q66 0 108 -42t42 -103q0 -67 -41.5 -109.5t-108.5 -42.5z" />
    <glyph glyph-name="oslash" unicode="&#xf8;" horiz-adv-x="1267" 
d="M934 766l-449 -526q59 -54 150 -54q133 0 227.5 128.5t94.5 307.5q0 83 -23 144zM422 336l448 524q-56 48 -139 48q-144 0 -236.5 -126.5t-92.5 -321.5q0 -69 20 -124zM1212 1092l-106 -124q112 -126 112 -321q0 -189 -78 -342.5t-215.5 -240t-308.5 -86.5
q-167 0 -286 82l-102 -120l-89 65l110 128q-107 127 -107 314q0 191 77.5 344t215.5 239t311 86q161 0 278 -77l97 114z" />
    <glyph glyph-name="ugrave" unicode="&#xf9;" horiz-adv-x="1252" 
d="M910 1275h-234l-209 347h268zM1267 1094l-232 -1094h-240l35 159h-17q-50 -85 -133.5 -133t-197.5 -48q-149 0 -240 88.5t-91 230.5q0 62 15 140l137 657h250l-131 -617q-11 -59 -11 -99q0 -183 187 -183q108 0 183 69t99 185l138 645h249z" />
    <glyph glyph-name="uacute" unicode="&#xfa;" horiz-adv-x="1252" 
d="M691 1275l323 347h280l-357 -347h-246zM1267 1094l-232 -1094h-240l35 159h-17q-50 -85 -133.5 -133t-197.5 -48q-149 0 -240 88.5t-91 230.5q0 62 15 140l137 657h250l-131 -617q-11 -59 -11 -99q0 -183 187 -183q108 0 183 69t99 185l138 645h249z" />
    <glyph glyph-name="ucircumflex" unicode="&#xfb;" horiz-adv-x="1252" 
d="M1002 1591l204 -348h-227l-113 215h-18l-204 -215h-252l352 348h258zM1267 1094l-232 -1094h-240l35 159h-17q-50 -85 -133.5 -133t-197.5 -48q-149 0 -240 88.5t-91 230.5q0 62 15 140l137 657h250l-131 -617q-11 -59 -11 -99q0 -183 187 -183q108 0 183 69t99 185
l138 645h249z" />
    <glyph glyph-name="udieresis" unicode="&#xfc;" horiz-adv-x="1252" 
d="M1267 1094l-232 -1094h-240l35 159h-17q-50 -85 -133.5 -133t-197.5 -48q-149 0 -240 88.5t-91 230.5q0 62 15 140l137 657h250l-131 -617q-11 -59 -11 -99q0 -183 187 -183q108 0 183 69t99 185l138 645h249zM618 1242q-61 0 -102 40.5t-41 100.5t41 100.5t102 40.5
t102 -40.5t41 -100.5t-41 -100.5t-102 -40.5zM1063 1242q-61 0 -102 40.5t-41 100.5t41 100.5t102 40.5t102 -40.5t41 -100.5t-41 -100.5t-102 -40.5z" />
    <glyph glyph-name="yacute" unicode="&#xfd;" horiz-adv-x="1173" 
d="M141 -399q-25 0 -73 4t-58 6l41 200q37 -8 90 -8q68 0 119 33.5t90 110.5l28 54l-155 1093h251l87 -835h17l430 835h267l-650 -1163q-101 -185 -210 -257.5t-274 -72.5zM659 1275l323 347h280l-357 -347h-246z" />
    <glyph glyph-name="thorn" unicode="&#xfe;" horiz-adv-x="1309" 
d="M670 196q144 0 241 130.5t97 324.5q0 120 -61 186t-165 66q-94 0 -173.5 -60.5t-125.5 -163.5t-46 -225q0 -121 63.5 -189.5t169.5 -68.5zM378 199l-119 -549h-248l395 1857h248l-119 -564h17q123 170 335 170q165 0 271.5 -117t106.5 -304q0 -199 -72.5 -362
t-199.5 -255.5t-281 -92.5q-117 0 -203 60t-114 157h-17z" />
    <glyph glyph-name="ydieresis" unicode="&#xff;" horiz-adv-x="1173" 
d="M141 -399q-25 0 -73 4t-58 6l41 200q37 -8 90 -8q68 0 119 33.5t90 110.5l28 54l-155 1093h251l87 -835h17l430 835h267l-650 -1163q-101 -185 -210 -257.5t-274 -72.5zM586 1242q-61 0 -102 40.5t-41 100.5t41 100.5t102 40.5t102 -40.5t41 -100.5t-41 -100.5
t-102 -40.5zM1031 1242q-61 0 -102 40.5t-41 100.5t41 100.5t102 40.5t102 -40.5t41 -100.5t-41 -100.5t-102 -40.5z" />
    <glyph glyph-name="Amacron" unicode="&#x100;" horiz-adv-x="1457" 
d="M1053 0l-43 369h-535l-203 -369h-270l829 1443h283l201 -1443h-262zM904 1166l-325 -593h415l-72 593h-18zM1371 1628h-720l35 164h719z" />
    <glyph glyph-name="amacron" unicode="&#x101;" horiz-adv-x="1174" 
d="M518 176q103 0 183 59t100 150l23 106l-250 -11q-111 -4 -174 -48t-63 -116q0 -61 50.5 -100.5t130.5 -39.5zM420 -18q-140 0 -234.5 86t-94.5 214q0 165 126.5 261t355.5 104l286 11l15 70q5 25 5 44q0 66 -53.5 104t-146.5 38q-78 0 -132 -29t-77 -83h-241
q35 145 162 229.5t307 84.5q193 0 310.5 -87t117.5 -229q0 -40 -9 -89l-151 -711h-241l29 138h-17q-50 -72 -135 -114t-182 -42zM1112 1305h-712l34 164h713z" />
    <glyph glyph-name="Abreve" unicode="&#x102;" horiz-adv-x="1457" 
d="M1053 0l-43 369h-535l-203 -369h-270l829 1443h283l201 -1443h-262zM904 1166l-325 -593h415l-72 593h-18zM650 1876q0 16 1 24h185v-18q0 -65 53 -107t133 -42q83 0 137.5 43.5t73.5 123.5h186q-23 -147 -131.5 -234.5t-270.5 -87.5q-161 0 -264 84t-103 214z" />
    <glyph glyph-name="abreve" unicode="&#x103;" horiz-adv-x="1174" 
d="M518 176q103 0 183 59t100 150l23 106l-250 -11q-111 -4 -174 -48t-63 -116q0 -61 50.5 -100.5t130.5 -39.5zM420 -18q-140 0 -234.5 86t-94.5 214q0 165 126.5 261t355.5 104l286 11l15 70q5 25 5 44q0 66 -53.5 104t-146.5 38q-78 0 -132 -29t-77 -83h-241
q35 145 162 229.5t307 84.5q193 0 310.5 -87t117.5 -229q0 -40 -9 -89l-151 -711h-241l29 138h-17q-50 -72 -135 -114t-182 -42zM402 1585h186q-2 -16 -2 -30q0 -71 51.5 -114t136.5 -43q94 0 150.5 48t71.5 139h188q-16 -156 -127.5 -249t-290.5 -93q-168 0 -267.5 84
t-99.5 214q0 21 3 44z" />
    <glyph glyph-name="Aogonek" unicode="&#x104;" horiz-adv-x="1457" 
d="M904 1166l-325 -593h415l-72 593h-18zM1051 19l-41 350h-535l-203 -369h-270l829 1443h283l201 -1443l-50 -8q-104 -20 -169 -72t-65 -117q0 -43 35 -68.5t95 -25.5q25 0 43 4l-32 -155q-39 -12 -89 -12q-119 0 -192.5 58t-73.5 149q0 81 62 153.5t172 112.5z" />
    <glyph glyph-name="aogonek" unicode="&#x105;" horiz-adv-x="1174" 
d="M518 176q103 0 183 59t100 150l23 106l-250 -11q-111 -4 -174 -48t-63 -116q0 -61 50.5 -100.5t130.5 -39.5zM725 -1l29 139h-17q-50 -72 -135 -114t-182 -42q-140 0 -234.5 86t-94.5 214q0 165 126.5 261t355.5 104l286 11l15 70q5 25 5 44q0 66 -53.5 104t-146.5 38
q-78 0 -132 -29t-77 -83h-241q35 145 162 229.5t307 84.5q193 0 310.5 -87t117.5 -229q0 -40 -9 -89l-153 -718l-11 -1q-101 -24 -168 -74.5t-67 -114.5q0 -43 35 -68.5t95 -25.5q25 0 43 4l-32 -155q-45 -12 -89 -12q-118 0 -192 57.5t-74 149.5q0 81 59.5 144.5
t161.5 101.5z" />
    <glyph glyph-name="Cacute" unicode="&#x106;" horiz-adv-x="1509" 
d="M864 1587l354 310h282l-386 -310h-250zM1282 954q1 2 1 9q-8 129 -98.5 207t-232.5 78q-139 0 -253.5 -87t-180.5 -239.5t-66 -338.5q0 -179 92.5 -283.5t250.5 -104.5q132 0 234 65.5t139 172.5h259q-50 -215 -226.5 -342t-428.5 -127q-265 0 -424.5 163.5t-159.5 435.5
q0 262 100.5 471.5t279 327t401.5 117.5q243 0 406 -142t163 -354q0 -9 -2 -29h-254z" />
    <glyph glyph-name="cacute" unicode="&#x107;" horiz-adv-x="1192" 
d="M1178 732h-240q-5 79 -67 127t-152 48q-142 0 -234.5 -127.5t-92.5 -317.5q0 -131 63.5 -202.5t167.5 -71.5q89 0 152.5 42t90.5 120h242q-30 -163 -166.5 -267.5t-335.5 -104.5q-211 0 -338 126t-127 336q0 192 75 346t211 242t309 88q180 0 300.5 -99t138.5 -240
q3 -21 3 -45zM665 1275l323 347h280l-357 -347h-246z" />
    <glyph glyph-name="Ccircumflex" unicode="&#x108;" horiz-adv-x="1509" 
d="M1282 954q1 2 1 9q-8 129 -98.5 207t-232.5 78q-139 0 -253.5 -87t-180.5 -239.5t-66 -338.5q0 -179 92.5 -283.5t250.5 -104.5q132 0 234 65.5t139 172.5h259q-50 -215 -226.5 -342t-428.5 -127q-265 0 -424.5 163.5t-159.5 435.5q0 262 100.5 471.5t279 327
t401.5 117.5q243 0 406 -142t163 -354q0 -9 -2 -29h-254zM1177 1908l186 -321h-226l-96 189h-18l-176 -189h-250l322 321h258z" />
    <glyph glyph-name="ccircumflex" unicode="&#x109;" horiz-adv-x="1192" 
d="M976 1591l204 -348h-227l-113 215h-18l-204 -215h-252l352 348h258zM1178 732h-240q-5 79 -67 127t-152 48q-142 0 -234.5 -127.5t-92.5 -317.5q0 -131 63.5 -202.5t167.5 -71.5q89 0 152.5 42t90.5 120h242q-30 -163 -166.5 -267.5t-335.5 -104.5q-211 0 -338 126
t-127 336q0 192 75 346t211 242t309 88q180 0 300.5 -99t138.5 -240q3 -21 3 -45z" />
    <glyph glyph-name="Cdotaccent" unicode="&#x10a;" horiz-adv-x="1509" 
d="M1022 1580q-63 0 -104 41.5t-41 102.5q0 62 41 103.5t104 41.5q61 0 102 -41.5t41 -103.5q0 -61 -41 -102.5t-102 -41.5zM1282 954q1 2 1 9q-8 129 -98.5 207t-232.5 78q-139 0 -253.5 -87t-180.5 -239.5t-66 -338.5q0 -179 92.5 -283.5t250.5 -104.5q132 0 234 65.5
t139 172.5h259q-50 -215 -226.5 -342t-428.5 -127q-265 0 -424.5 163.5t-159.5 435.5q0 262 100.5 471.5t279 327t401.5 117.5q243 0 406 -142t163 -354q0 -9 -2 -29h-254z" />
    <glyph glyph-name="cdotaccent" unicode="&#x10b;" horiz-adv-x="1192" 
d="M1178 732h-240q-5 79 -67 127t-152 48q-142 0 -234.5 -127.5t-92.5 -317.5q0 -131 63.5 -202.5t167.5 -71.5q89 0 152.5 42t90.5 120h242q-30 -163 -166.5 -267.5t-335.5 -104.5q-211 0 -338 126t-127 336q0 192 75 346t211 242t309 88q180 0 300.5 -99t138.5 -240
q3 -21 3 -45zM825 1279q-62 0 -105.5 43.5t-43.5 107.5q0 63 43.5 106.5t105.5 43.5t105.5 -43.5t43.5 -106.5q0 -64 -43.5 -107.5t-105.5 -43.5z" />
    <glyph glyph-name="Ccaron" unicode="&#x10c;" horiz-adv-x="1509" 
d="M1282 954q1 2 1 9q-8 129 -98.5 207t-232.5 78q-139 0 -253.5 -87t-180.5 -239.5t-66 -338.5q0 -179 92.5 -283.5t250.5 -104.5q132 0 234 65.5t139 172.5h259q-50 -215 -226.5 -342t-428.5 -127q-265 0 -424.5 163.5t-159.5 435.5q0 262 100.5 471.5t279 327
t401.5 117.5q243 0 406 -142t163 -354q0 -9 -2 -29h-254zM873 1587l-186 321h226l97 -189h17l176 189h250l-321 -321h-259z" />
    <glyph glyph-name="ccaron" unicode="&#x10d;" horiz-adv-x="1192" 
d="M928 1243h-258l-204 348h226l113 -215h17l205 215h253zM1178 732h-240q-5 79 -67 127t-152 48q-142 0 -234.5 -127.5t-92.5 -317.5q0 -131 63.5 -202.5t167.5 -71.5q89 0 152.5 42t90.5 120h242q-30 -163 -166.5 -267.5t-335.5 -104.5q-211 0 -338 126t-127 336
q0 192 75 346t211 242t309 88q180 0 300.5 -99t138.5 -240q3 -21 3 -45z" />
    <glyph glyph-name="Dcaron" unicode="&#x10e;" horiz-adv-x="1517" 
d="M730 1585l-186 321h226l97 -189h17l176 189h250l-321 -321h-259zM415 1443h472q285 0 445 -160t160 -443q0 -239 -97 -431t-269 -300.5t-385 -108.5h-632zM631 1222l-215 -1000h310q218 0 359 166t141 427q0 190 -102.5 298.5t-284.5 108.5h-208z" />
    <glyph glyph-name="dcaron" unicode="&#x10f;" horiz-adv-x="1485" 
d="M1537 1517h222l-156 -498h-172zM523 -18q-167 0 -276 118t-109 315q0 198 74 358t201.5 249.5t281.5 89.5q118 0 203.5 -58.5t113.5 -151.5h18l130 615h250l-322 -1517h-241l32 151h-17q-59 -79 -146.5 -124t-192.5 -45zM626 191q144 0 243.5 131.5t99.5 318.5
q0 120 -63.5 189t-169.5 69q-144 0 -242.5 -126t-98.5 -317q0 -120 64.5 -192.5t166.5 -72.5z" />
    <glyph glyph-name="Dcroat" unicode="&#x110;" horiz-adv-x="1517" 
d="M416 222h310q218 0 359 166t141 427q0 190 -102.5 298.5t-284.5 108.5h-208l-83 -384h207l-43 -204h-207zM415 1443h472q285 0 445 -160t160 -443q0 -239 -97 -431t-269 -300.5t-385 -108.5h-632l134 634h-163l43 204h164z" />
    <glyph glyph-name="dcroat" unicode="&#x111;" horiz-adv-x="1317" 
d="M626 191q144 0 243.5 131.5t99.5 318.5q0 120 -63.5 189t-169.5 69q-144 0 -242.5 -126t-98.5 -317q0 -120 64.5 -192.5t166.5 -72.5zM1541 1412l-30 -142h-153l-270 -1270h-241l32 151h-17q-59 -79 -146.5 -124t-192.5 -45q-167 0 -276 118t-109 315q0 198 74 358
t201.5 249.5t281.5 89.5q118 0 203.5 -58.5t113.5 -151.5h18l78 368h-221l30 142h221l22 105h250l-22 -105h153z" />
    <glyph glyph-name="Emacron" unicode="&#x112;" horiz-adv-x="1254" 
d="M1089 223l-46 -223h-935l307 1443h935l-47 -223h-674l-83 -383h637l-44 -210h-637l-88 -404h675zM1281 1628h-720l35 164h719z" />
    <glyph glyph-name="emacron" unicode="&#x113;" horiz-adv-x="1219" 
d="M613 -22q-207 0 -338.5 124.5t-131.5 340.5q0 301 162.5 487t421.5 186q192 0 318.5 -123t127.5 -330q0 -77 -16 -173h-773q0 -6 -0.5 -19.5t-0.5 -19.5q0 -133 71 -202t175 -69q177 0 237 122h245q-37 -145 -170.5 -234.5t-327.5 -89.5zM413 658h517q3 9 3 40
q0 95 -58.5 157.5t-160.5 62.5q-108 0 -188.5 -70.5t-112.5 -189.5zM1121 1305h-712l34 164h713z" />
    <glyph glyph-name="Ebreve" unicode="&#x114;" horiz-adv-x="1254" 
d="M1089 223l-46 -223h-935l307 1443h935l-47 -223h-674l-83 -383h637l-44 -210h-637l-88 -404h675zM560 1876q0 16 1 24h185v-18q0 -65 53 -107t133 -42q83 0 137.5 43.5t73.5 123.5h186q-23 -147 -131.5 -234.5t-270.5 -87.5q-161 0 -264 84t-103 214z" />
    <glyph glyph-name="ebreve" unicode="&#x115;" horiz-adv-x="1219" 
d="M613 -22q-207 0 -338.5 124.5t-131.5 340.5q0 301 162.5 487t421.5 186q192 0 318.5 -123t127.5 -330q0 -77 -16 -173h-773q0 -6 -0.5 -19.5t-0.5 -19.5q0 -133 71 -202t175 -69q177 0 237 122h245q-37 -145 -170.5 -234.5t-327.5 -89.5zM413 658h517q3 9 3 40
q0 95 -58.5 157.5t-160.5 62.5q-108 0 -188.5 -70.5t-112.5 -189.5zM411 1585h186q-2 -16 -2 -30q0 -71 51.5 -114t136.5 -43q93 0 150 48t72 139h188q-16 -156 -127.5 -249t-290.5 -93q-168 0 -267.5 84t-99.5 214q0 21 3 44z" />
    <glyph glyph-name="Edotaccent" unicode="&#x116;" horiz-adv-x="1254" 
d="M943 1578q-63 0 -104 41.5t-41 102.5q0 62 41 103.5t104 41.5q61 0 102 -41.5t41 -103.5q0 -61 -41 -102.5t-102 -41.5zM1089 223l-46 -223h-935l307 1443h935l-47 -223h-674l-83 -383h637l-44 -210h-637l-88 -404h675z" />
    <glyph glyph-name="edotaccent" unicode="&#x117;" horiz-adv-x="1219" 
d="M792 1279q-62 0 -105.5 43.5t-43.5 107.5q0 63 43.5 106.5t105.5 43.5t105.5 -43.5t43.5 -106.5q0 -64 -43.5 -107.5t-105.5 -43.5zM613 -22q-207 0 -338.5 124.5t-131.5 340.5q0 301 162.5 487t421.5 186q192 0 318.5 -123t127.5 -330q0 -77 -16 -173h-773
q0 -6 -0.5 -19.5t-0.5 -19.5q0 -133 71 -202t175 -69q177 0 237 122h245q-37 -145 -170.5 -234.5t-327.5 -89.5zM413 658h517q3 9 3 40q0 95 -58.5 157.5t-160.5 62.5q-108 0 -188.5 -70.5t-112.5 -189.5z" />
    <glyph glyph-name="Eogonek" unicode="&#x118;" horiz-adv-x="1254" 
d="M730 -17l3 17h-625l307 1443h935l-47 -223h-674l-83 -383h637l-44 -210h-637l-88 -404h675l-46 -222l-45 -9q-104 -20 -168.5 -72t-64.5 -117q0 -43 34.5 -68.5t94.5 -25.5q26 0 44 4l-33 -155q-39 -12 -88 -12q-119 0 -193 58t-74 149q0 73 49 134.5t131 95.5z" />
    <glyph glyph-name="eogonek" unicode="&#x119;" horiz-adv-x="1223" 
d="M754 -454q-118 0 -192.5 58t-74.5 149q0 62 45 121.5t113 87.5l4 20q-22 -4 -36 -4q-213 0 -341.5 127t-128.5 338q0 197 73.5 350.5t206.5 238t304 84.5q197 0 321 -126t125 -327q0 -79 -16 -173h-773q0 -10 -0.5 -23t-0.5 -16q0 -124 67 -197.5t179 -73.5
q176 0 237 122h245q-38 -152 -197 -251q-212 -134 -212 -248q0 -43 35 -68.5t94 -25.5q26 0 44 4l-33 -155q-43 -12 -88 -12zM413 658h517q3 9 3 40q0 99 -60.5 159.5t-158.5 60.5q-107 0 -187.5 -69.5t-113.5 -190.5z" />
    <glyph glyph-name="Ecaron" unicode="&#x11a;" horiz-adv-x="1254" 
d="M794 1585l-186 321h226l97 -189h17l176 189h250l-321 -321h-259zM1089 223l-46 -223h-935l307 1443h935l-47 -223h-674l-83 -383h637l-44 -210h-637l-88 -404h675z" />
    <glyph glyph-name="ecaron" unicode="&#x11b;" horiz-adv-x="1219" 
d="M895 1243h-258l-204 348h226l113 -215h17l205 215h253zM613 -22q-207 0 -338.5 124.5t-131.5 340.5q0 301 162.5 487t421.5 186q192 0 318.5 -123t127.5 -330q0 -77 -16 -173h-773q0 -6 -0.5 -19.5t-0.5 -19.5q0 -133 71 -202t175 -69q177 0 237 122h245
q-37 -145 -170.5 -234.5t-327.5 -89.5zM413 658h517q3 9 3 40q0 95 -58.5 157.5t-160.5 62.5q-108 0 -188.5 -70.5t-112.5 -189.5z" />
    <glyph glyph-name="Gcircumflex" unicode="&#x11c;" horiz-adv-x="1553" 
d="M1174 1907l186 -321h-226l-96 189h-18l-176 -189h-250l322 321h258zM1518 751l-38 -188q-60 -292 -238 -445.5t-457 -153.5q-269 0 -432.5 166t-163.5 440q0 196 58.5 365t161 288.5t247 187.5t312.5 68q235 0 397.5 -132t172.5 -330v-35h-254q-8 119 -99.5 192
t-233.5 73q-140 0 -253.5 -85t-178.5 -236t-65 -336q0 -183 96 -288.5t262 -105.5q152 0 262.5 87t139.5 231l7 36h-341l43 201h595z" />
    <glyph glyph-name="gcircumflex" unicode="&#x11d;" horiz-adv-x="1298" 
d="M968 1591l204 -348h-227l-113 215h-18l-204 -215h-252l352 348h258zM520 -416q-207 0 -339.5 93.5t-135.5 231.5h251q8 -60 72 -98t169 -38q122 0 193.5 54.5t94.5 152.5l45 197h-17q-112 -157 -326 -157q-166 0 -275.5 117t-109.5 304q0 190 71.5 344t196 240.5
t275.5 86.5q114 0 205.5 -59t122.5 -154h17l42 195h241l-245 -1141q-37 -173 -181 -271t-367 -98zM627 212q142 0 238.5 122t96.5 307q0 118 -64.5 188t-172.5 70q-142 0 -234.5 -118t-92.5 -306q0 -122 61.5 -192.5t167.5 -70.5z" />
    <glyph glyph-name="Gbreve" unicode="&#x11e;" horiz-adv-x="1553" 
d="M1518 751l-38 -188q-60 -292 -238 -445.5t-457 -153.5q-269 0 -432.5 166t-163.5 440q0 196 58.5 365t161 288.5t247 187.5t312.5 68q235 0 397.5 -132t172.5 -330v-35h-254q-8 119 -99.5 192t-233.5 73q-140 0 -253.5 -85t-178.5 -236t-65 -336q0 -183 96 -288.5
t262 -105.5q152 0 262.5 87t139.5 231l7 36h-341l43 201h595zM636 1877q0 16 1 24h185v-18q0 -65 53 -107t133 -42q83 0 137.5 43.5t73.5 123.5h186q-23 -147 -131.5 -234.5t-270.5 -87.5q-161 0 -264 84t-103 214z" />
    <glyph glyph-name="gbreve" unicode="&#x11f;" horiz-adv-x="1298" 
d="M436 1585h186q-2 -16 -2 -30q0 -71 51.5 -114t136.5 -43q94 0 150.5 48t71.5 139h188q-16 -156 -127.5 -249t-290.5 -93q-168 0 -267.5 84t-99.5 214q0 21 3 44zM520 -416q-207 0 -339.5 93.5t-135.5 231.5h251q8 -60 72 -98t169 -38q122 0 193.5 54.5t94.5 152.5l45 197
h-17q-112 -157 -326 -157q-166 0 -275.5 117t-109.5 304q0 190 71.5 344t196 240.5t275.5 86.5q114 0 205.5 -59t122.5 -154h17l42 195h241l-245 -1141q-37 -173 -181 -271t-367 -98zM627 212q142 0 238.5 122t96.5 307q0 118 -64.5 188t-172.5 70q-142 0 -234.5 -118
t-92.5 -306q0 -122 61.5 -192.5t167.5 -70.5z" />
    <glyph glyph-name="Gdotaccent" unicode="&#x120;" horiz-adv-x="1553" 
d="M1019 1579q-63 0 -104 41.5t-41 102.5q0 62 41 103.5t104 41.5q61 0 102 -41.5t41 -103.5q0 -61 -41 -102.5t-102 -41.5zM1518 751l-38 -188q-60 -292 -238 -445.5t-457 -153.5q-269 0 -432.5 166t-163.5 440q0 196 58.5 365t161 288.5t247 187.5t312.5 68
q235 0 397.5 -132t172.5 -330v-35h-254q-8 119 -99.5 192t-233.5 73q-140 0 -253.5 -85t-178.5 -236t-65 -336q0 -183 96 -288.5t262 -105.5q152 0 262.5 87t139.5 231l7 36h-341l43 201h595z" />
    <glyph glyph-name="gdotaccent" unicode="&#x121;" horiz-adv-x="1298" 
d="M817 1279q-62 0 -105.5 43.5t-43.5 107.5q0 63 43.5 106.5t105.5 43.5t105.5 -43.5t43.5 -106.5q0 -64 -43.5 -107.5t-105.5 -43.5zM520 -416q-207 0 -339.5 93.5t-135.5 231.5h251q8 -60 72 -98t169 -38q122 0 193.5 54.5t94.5 152.5l45 197h-17q-112 -157 -326 -157
q-166 0 -275.5 117t-109.5 304q0 190 71.5 344t196 240.5t275.5 86.5q114 0 205.5 -59t122.5 -154h17l42 195h241l-245 -1141q-37 -173 -181 -271t-367 -98zM627 212q142 0 238.5 122t96.5 307q0 118 -64.5 188t-172.5 70q-142 0 -234.5 -118t-92.5 -306q0 -122 61.5 -192.5
t167.5 -70.5z" />
    <glyph glyph-name="Gcommaaccent" unicode="&#x122;" horiz-adv-x="1553" 
d="M708 -512h-225l176 364h252zM1518 751l-38 -188q-60 -292 -238 -445.5t-457 -153.5q-269 0 -432.5 166t-163.5 440q0 196 58.5 365t161 288.5t247 187.5t312.5 68q235 0 397.5 -132t172.5 -330v-35h-254q-8 119 -99.5 192t-233.5 73q-140 0 -253.5 -85t-178.5 -236
t-65 -336q0 -183 96 -288.5t262 -105.5q152 0 262.5 87t139.5 231l7 36h-341l43 201h595z" />
    <glyph glyph-name="gcommaaccent" unicode="&#x123;" horiz-adv-x="1299" 
d="M1092 1654h225l-176 -364h-252zM520 -416q-207 0 -339.5 93.5t-135.5 231.5h251q8 -60 72 -98t169 -38q122 0 193.5 54.5t94.5 152.5l45 197h-17q-112 -157 -326 -157q-166 0 -275.5 117t-109.5 304q0 190 71.5 344t196 240.5t275.5 86.5q114 0 205.5 -59t122.5 -154h17
l42 195h241l-245 -1141q-37 -173 -181 -271t-367 -98zM627 212q142 0 238.5 122t96.5 307q0 118 -64.5 188t-172.5 70q-142 0 -234.5 -118t-92.5 -306q0 -122 61.5 -192.5t167.5 -70.5z" />
    <glyph glyph-name="Hcircumflex" unicode="&#x124;" horiz-adv-x="1575" 
d="M1328 0h-262l134 623h-699l-134 -623h-259l307 1443h260l-128 -597h699l128 597h261zM1241 1906l186 -321h-226l-96 189h-18l-176 -189h-250l322 321h258z" />
    <glyph glyph-name="hcircumflex" unicode="&#x125;" horiz-adv-x="1270" 
d="M88 0l322 1512h249l-125 -582h17q121 184 329 184q154 0 244.5 -91.5t90.5 -227.5q0 -60 -15 -129l-140 -666h-249l132 625q12 55 12 91q0 86 -53 137t-147 51q-107 0 -180.5 -68t-97.5 -178l-140 -658h-249zM749 1975l186 -321h-226l-96 189h-18l-176 -189h-250l322 321
h258z" />
    <glyph glyph-name="Hbar" unicode="&#x126;" horiz-adv-x="1574" 
d="M1247 846l46 216h-699l-46 -216h699zM1722 1246l-38 -184h-129l-226 -1062h-262l134 623h-699l-134 -623h-259l226 1062h-131l38 184h132l42 197h260l-42 -197h699l42 197h261l-42 -197h128z" />
    <glyph glyph-name="hbar" unicode="&#x127;" horiz-adv-x="1270" 
d="M534 930h17q121 184 329 184q154 0 244.5 -91.5t90.5 -227.5q0 -60 -15 -129l-140 -666h-249l132 625q12 55 12 91q0 86 -53 137t-147 51q-107 0 -180.5 -68t-97.5 -178l-140 -658h-249l270 1270h-148l31 146h149l20 96h249l-21 -96h226l-30 -146h-227z" />
    <glyph glyph-name="Itilde" unicode="&#x128;" horiz-adv-x="616" 
d="M368 0h-260l307 1443h260zM763 1577q-56 0 -104.5 23.5t-77 52t-61.5 52t-61 23.5q-84 0 -104 -109h-166q18 124 91 196t174 72q45 0 85 -15.5t68 -37.5t52.5 -44.5t49.5 -38t49 -15.5q84 0 104 109h166q-18 -125 -91 -196.5t-174 -71.5z" />
    <glyph glyph-name="itilde" unicode="&#x129;" horiz-adv-x="569" 
d="M91 0l232 1094h248l-232 -1094h-248zM676 1235q-47 0 -87.5 17.5t-67 43t-49.5 51t-47.5 43t-48.5 17.5q-81 0 -102 -130h-169q16 134 90 211.5t180 77.5q47 0 86.5 -17.5t66 -43t49.5 -50.5t47.5 -42.5t48.5 -17.5q82 0 103 129h169q-16 -133 -90 -211t-179 -78z" />
    <glyph glyph-name="Imacron" unicode="&#x12a;" horiz-adv-x="616" 
d="M368 0h-260l307 1443h260zM945 1628h-720l35 164h719z" />
    <glyph glyph-name="imacron" unicode="&#x12b;" horiz-adv-x="569" 
d="M91 0l232 1094h248l-232 -1094h-248zM847 1305h-712l34 164h713z" />
    <glyph glyph-name="Ibreve" unicode="&#x12c;" horiz-adv-x="616" 
d="M368 0h-260l307 1443h260zM224 1876q0 16 1 24h185v-18q0 -65 53 -107t133 -42q83 0 137.5 43.5t73.5 123.5h186q-23 -147 -131.5 -234.5t-270.5 -87.5q-161 0 -264 84t-103 214z" />
    <glyph glyph-name="ibreve" unicode="&#x12d;" horiz-adv-x="569" 
d="M91 0l232 1094h248l-232 -1094h-248zM137 1585h186q-2 -16 -2 -30q0 -71 51.5 -114t136.5 -43q93 0 150 48t72 139h188q-16 -156 -127.5 -249t-290.5 -93q-168 0 -267.5 84t-99.5 214q0 21 3 44z" />
    <glyph glyph-name="Iogonek" unicode="&#x12e;" horiz-adv-x="616" 
d="M276 -442q-38 -12 -87 -12q-122 0 -195.5 57.5t-73.5 144.5q0 75 50 141t136 100l309 1454h260l-308 -1449l-18 -2q-97 -20 -155 -71.5t-58 -117.5q0 -43 34.5 -68.5t94.5 -25.5q20 0 44 4z" />
    <glyph glyph-name="iogonek" unicode="&#x12f;" horiz-adv-x="569" 
d="M515 1272q-66 0 -109.5 38t-43.5 96q0 61 43.5 100.5t109.5 39.5q67 0 110 -38t43 -96q0 -61 -43.5 -100.5t-109.5 -39.5zM164 -454q-119 0 -194 56.5t-75 145.5q0 75 51.5 143.5t143.5 103.5l233 1099h248l-234 -1101l-13 -1q-98 -18 -155.5 -70.5t-57.5 -118.5
q0 -43 34.5 -68.5t94.5 -25.5q21 0 43 4l-32 -155q-41 -12 -87 -12z" />
    <glyph glyph-name="Idotaccent" unicode="&#x130;" horiz-adv-x="616" 
d="M368 0h-260l307 1443h260zM606 1578q-63 0 -104 41.5t-41 102.5q0 62 41 103.5t104 41.5q61 0 102 -41.5t41 -103.5q0 -61 -41 -102.5t-102 -41.5z" />
    <glyph glyph-name="dotlessi" unicode="&#x131;" horiz-adv-x="569" 
d="M91 0l232 1094h248l-232 -1094h-248z" />
    <glyph glyph-name="u0132" unicode="&#x132;" horiz-adv-x="1797" 
d="M368 0h-260l307 1443h260zM704 386h252v-6q2 -83 54 -131.5t141 -48.5q183 0 232 231l216 1012h257l-224 -1056q-43 -205 -170 -314t-327 -109q-197 0 -318.5 113t-113.5 289q0 13 1 20z" />
    <glyph glyph-name="u0133" unicode="&#x133;" horiz-adv-x="1138" 
d="M91 0l232 1094h248l-232 -1094h-248zM515 1272q-67 0 -110 38t-43 96q0 59 43 99.5t110 40.5q68 0 110.5 -38t42.5 -96q0 -59 -43 -99.5t-110 -40.5zM1141 1094l-247 -1159q-64 -309 -382 -309q-65 0 -119 10l44 199q27 -5 61 -5q67 0 103 30.5t52 103.5l240 1130h248z
M1084 1272q-68 0 -110.5 38t-42.5 96q0 59 43 99.5t110 40.5t110 -38t43 -96q0 -59 -43 -99.5t-110 -40.5z" />
    <glyph glyph-name="Jcircumflex" unicode="&#x134;" horiz-adv-x="1182" 
d="M90 386h252v-6q2 -83 54 -131.5t141 -48.5q183 0 232 231l216 1012h257l-224 -1056q-43 -205 -170 -314t-327 -109q-197 0 -318.5 113t-113.5 289q0 13 1 20zM1329 1906l186 -321h-226l-96 189h-18l-176 -189h-250l322 321h258z" />
    <glyph glyph-name="jcircumflex" unicode="&#x135;" horiz-adv-x="569" 
d="M572 1094l-247 -1159q-64 -309 -382 -309q-65 0 -119 10l44 199q27 -5 61 -5q67 0 103 30.5t52 103.5l240 1130h248zM670 1591l204 -348h-227l-113 215h-18l-204 -215h-252l352 348h258z" />
    <glyph glyph-name="Kcommaaccent" unicode="&#x136;" horiz-adv-x="1416" 
d="M366 0h-258l307 1443h257l-141 -659h17l701 659h313l-682 -647l407 -796h-293l-325 639l-206 -190zM574 -512h-225l176 364h252z" />
    <glyph glyph-name="kcommaaccent" unicode="&#x137;" horiz-adv-x="1165" 
d="M496 671l484 423h298l-542 -476l341 -618h-277l-264 479l-117 -94l-82 -385h-249l322 1517h249l-180 -846h17zM473 -512h-225l176 364h252z" />
    <glyph glyph-name="Lacute" unicode="&#x139;" horiz-adv-x="1199" 
d="M448 1585l354 310h282l-386 -310h-250zM1075 226l-47 -226h-920l307 1443h260l-260 -1217h660z" />
    <glyph glyph-name="lacute" unicode="&#x13a;" horiz-adv-x="566" 
d="M439 1659l354 310h282l-386 -310h-250zM88 0l322 1517h250l-322 -1517h-250z" />
    <glyph glyph-name="Lcommaaccent" unicode="&#x13b;" horiz-adv-x="1199" 
d="M477 -512h-225l176 364h252zM1075 226l-47 -226h-920l307 1443h260l-260 -1217h660z" />
    <glyph glyph-name="lcommaaccent" unicode="&#x13c;" horiz-adv-x="566" 
d="M122 -512h-225l176 364h252zM88 0l322 1517h250l-322 -1517h-250z" />
    <glyph glyph-name="Lcaron" unicode="&#x13d;" horiz-adv-x="1199" 
d="M891 1443h218l-156 -498h-168zM1075 226l-47 -226h-920l307 1443h260l-260 -1217h660z" />
    <glyph glyph-name="lcaron" unicode="&#x13e;" horiz-adv-x="741" 
d="M789 1517h221l-156 -498h-171zM88 0l322 1517h250l-322 -1517h-250z" />
    <glyph glyph-name="Lslash" unicode="&#x141;" horiz-adv-x="1210" 
d="M427 226h660l-47 -226h-920l146 686l-181 -81l38 182l182 81l122 575h260l-95 -446l273 122l-38 -183l-274 -122z" />
    <glyph glyph-name="lslash" unicode="&#x142;" horiz-adv-x="565" 
d="M684 1055l-38 -183l-136 -63l-172 -809h-250l144 680l-132 -62l38 183l133 62l139 654h250l-111 -525z" />
    <glyph glyph-name="Nacute" unicode="&#x143;" horiz-adv-x="1553" 
d="M909 1585l354 310h282l-386 -310h-250zM361 0h-253l307 1443h212l498 -1011h18l217 1011h253l-307 -1443h-211l-501 1005h-17z" />
    <glyph glyph-name="nacute" unicode="&#x144;" horiz-adv-x="1253" 
d="M699 1275l323 347h280l-357 -347h-246zM79 0l233 1094h240l-36 -170h17q123 188 335 188q150 0 240 -92.5t90 -230.5q0 -61 -15 -128l-140 -661h-249l132 619q12 51 12 92q0 85 -51.5 137t-144.5 52q-104 0 -177 -68.5t-97 -178.5l-140 -653h-249z" />
    <glyph glyph-name="Ncommaaccent" unicode="&#x145;" horiz-adv-x="1553" 
d="M631 -512h-225l176 364h252zM361 0h-253l307 1443h212l498 -1011h18l217 1011h253l-307 -1443h-211l-501 1005h-17z" />
    <glyph glyph-name="ncommaaccent" unicode="&#x146;" horiz-adv-x="1253" 
d="M470 -512h-225l176 364h252zM79 0l233 1094h240l-36 -170h17q123 188 335 188q150 0 240 -92.5t90 -230.5q0 -61 -15 -128l-140 -661h-249l132 619q12 51 12 92q0 85 -51.5 137t-144.5 52q-104 0 -177 -68.5t-97 -178.5l-140 -653h-249z" />
    <glyph glyph-name="Ncaron" unicode="&#x147;" horiz-adv-x="1553" 
d="M918 1585l-186 321h226l97 -189h17l176 189h250l-321 -321h-259zM361 0h-253l307 1443h212l498 -1011h18l217 1011h253l-307 -1443h-211l-501 1005h-17z" />
    <glyph glyph-name="ncaron" unicode="&#x148;" horiz-adv-x="1253" 
d="M962 1243h-258l-204 348h226l113 -215h17l205 215h253zM79 0l233 1094h240l-36 -170h17q123 188 335 188q150 0 240 -92.5t90 -230.5q0 -61 -15 -128l-140 -661h-249l132 619q12 51 12 92q0 85 -51.5 137t-144.5 52q-104 0 -177 -68.5t-97 -178.5l-140 -653h-249z" />
    <glyph glyph-name="Omacron" unicode="&#x14c;" horiz-adv-x="1603" 
d="M798 -36q-178 0 -318 79t-216 217t-76 311q0 195 60 364.5t164.5 288.5t250.5 187t312 68q271 0 439 -171.5t168 -435.5q0 -196 -59.5 -365.5t-163.5 -288.5t-249.5 -186.5t-311.5 -67.5zM1316 851q0 178 -97.5 286.5t-256.5 108.5q-141 0 -257.5 -86t-183 -236.5
t-66.5 -332.5q0 -178 98 -286.5t258 -108.5q142 0 257.5 85t181.5 235t66 335zM1373 1627h-720l35 164h719z" />
    <glyph glyph-name="omacron" unicode="&#x14d;" horiz-adv-x="1260" 
d="M1140 1305h-712l34 164h713zM402 460q0 -125 63 -199.5t170 -74.5q133 0 227.5 128.5t94.5 307.5q0 134 -60 210t-166 76q-144 0 -236.5 -126.5t-92.5 -321.5zM616 -22q-212 0 -343 129.5t-131 339.5q0 191 77.5 344t215.5 239t311 86q212 0 342 -129t130 -340
q0 -189 -78 -342.5t-215.5 -240t-308.5 -86.5z" />
    <glyph glyph-name="Obreve" unicode="&#x14e;" horiz-adv-x="1603" 
d="M798 -36q-178 0 -318 79t-216 217t-76 311q0 195 60 364.5t164.5 288.5t250.5 187t312 68q271 0 439 -171.5t168 -435.5q0 -196 -59.5 -365.5t-163.5 -288.5t-249.5 -186.5t-311.5 -67.5zM1316 851q0 178 -97.5 286.5t-256.5 108.5q-141 0 -257.5 -86t-183 -236.5
t-66.5 -332.5q0 -178 98 -286.5t258 -108.5q142 0 257.5 85t181.5 235t66 335zM652 1875q0 16 1 24h185v-18q0 -65 53 -107t133 -42q83 0 137.5 43.5t73.5 123.5h186q-23 -147 -131.5 -234.5t-270.5 -87.5q-161 0 -264 84t-103 214z" />
    <glyph glyph-name="obreve" unicode="&#x14f;" horiz-adv-x="1260" 
d="M430 1585h186q-2 -16 -2 -30q0 -71 51.5 -114t136.5 -43q94 0 150.5 48t71.5 139h188q-16 -156 -127.5 -249t-290.5 -93q-168 0 -267.5 84t-99.5 214q0 21 3 44zM402 460q0 -125 63 -199.5t170 -74.5q133 0 227.5 128.5t94.5 307.5q0 134 -60 210t-166 76
q-144 0 -236.5 -126.5t-92.5 -321.5zM616 -22q-212 0 -343 129.5t-131 339.5q0 191 77.5 344t215.5 239t311 86q212 0 342 -129t130 -340q0 -189 -78 -342.5t-215.5 -240t-308.5 -86.5z" />
    <glyph glyph-name="Ohungarumlaut" unicode="&#x150;" horiz-adv-x="1603" 
d="M1064 1584l338 310h254l-363 -310h-229zM635 1584l339 310h254l-363 -310h-230zM798 -36q-178 0 -318 79t-216 217t-76 311q0 195 60 364.5t164.5 288.5t250.5 187t312 68q271 0 439 -171.5t168 -435.5q0 -196 -59.5 -365.5t-163.5 -288.5t-249.5 -186.5t-311.5 -67.5z
M1316 851q0 178 -97.5 286.5t-256.5 108.5q-141 0 -257.5 -86t-183 -236.5t-66.5 -332.5q0 -178 98 -286.5t258 -108.5q142 0 257.5 85t181.5 235t66 335z" />
    <glyph glyph-name="ohungarumlaut" unicode="&#x151;" horiz-adv-x="1260" 
d="M880 1275l301 347h242l-329 -347h-214zM457 1275l301 347h242l-329 -347h-214zM402 460q0 -125 63 -199.5t170 -74.5q133 0 227.5 128.5t94.5 307.5q0 134 -60 210t-166 76q-144 0 -236.5 -126.5t-92.5 -321.5zM616 -22q-212 0 -343 129.5t-131 339.5q0 191 77.5 344
t215.5 239t311 86q212 0 342 -129t130 -340q0 -189 -78 -342.5t-215.5 -240t-308.5 -86.5z" />
    <glyph glyph-name="OE" unicode="&#x152;" horiz-adv-x="2317" 
d="M1321 853q0 178 -98 287t-258 109q-141 0 -258 -86.5t-184 -237.5t-67 -334q0 -179 98 -288t259 -109q143 0 259.5 86t182.5 237t66 336zM1201 0l26 116l-16 -1q-69 -68 -177 -109.5t-233 -41.5q-267 0 -438.5 170.5t-171.5 436.5q0 194 59.5 362.5t163.5 288.5
t250.5 188.5t313.5 68.5q157 0 279.5 -68.5t186.5 -183.5l18 1l46 215h899l-46 -223h-674l-84 -383h638l-44 -210h-637l-88 -404h675l-46 -223h-900z" />
    <glyph glyph-name="oe" unicode="&#x153;" horiz-adv-x="2027" 
d="M1417 -22q-123 0 -220.5 52t-154.5 148h-18q-150 -200 -410 -200q-212 0 -342 129t-130 339q0 143 45.5 268t124.5 213t191 138.5t241 50.5q124 0 219.5 -53t147.5 -152h18q146 205 402 205q197 0 321 -126t124 -327q0 -85 -15 -173h-773q0 -9 -0.5 -22.5t-0.5 -17.5
q0 -123 67 -196.5t179 -73.5q176 0 237 122h245q-37 -148 -172.5 -236t-325.5 -88zM1217 658h517q3 9 3 40q0 99 -60.5 159.5t-158.5 60.5q-107 0 -188 -70t-113 -190zM402 459q0 -125 63.5 -199t169.5 -74q133 0 227.5 128.5t94.5 307.5q0 134 -60 210t-166 76
q-144 0 -236.5 -126.5t-92.5 -322.5z" />
    <glyph glyph-name="Racute" unicode="&#x154;" horiz-adv-x="1389" 
d="M735 1585l354 310h282l-386 -310h-250zM108 0l307 1443h545q199 0 321.5 -110.5t122.5 -288.5q0 -164 -100 -293t-268 -178l202 -573h-278l-178 541h-298l-116 -541h-260zM631 1229l-105 -483h294q142 0 230.5 77t88.5 198q0 97 -60 152.5t-165 55.5h-283z" />
    <glyph glyph-name="racute" unicode="&#x155;" horiz-adv-x="865" 
d="M502 1275l323 347h280l-357 -347h-246zM73 0l233 1094h241l-30 -146h16q97 164 280 164q88 0 136 -20l-50 -231q-69 24 -156 24q-117 0 -188 -65.5t-100 -200.5l-132 -619h-250z" />
    <glyph glyph-name="Rcommaaccent" unicode="&#x156;" horiz-adv-x="1389" 
d="M108 0l307 1443h545q199 0 321.5 -110.5t122.5 -288.5q0 -164 -100 -293t-268 -178l202 -573h-278l-178 541h-298l-116 -541h-260zM631 1229l-105 -483h294q142 0 230.5 77t88.5 198q0 97 -60 152.5t-165 55.5h-283zM566 -512h-225l176 364h252z" />
    <glyph glyph-name="rcommaaccent" unicode="&#x157;" horiz-adv-x="865" 
d="M73 0l233 1094h241l-30 -146h16q97 164 280 164q88 0 136 -20l-50 -231q-69 24 -156 24q-117 0 -188 -65.5t-100 -200.5l-132 -619h-250zM113 -512h-225l176 364h252z" />
    <glyph glyph-name="Rcaron" unicode="&#x158;" horiz-adv-x="1389" 
d="M108 0l307 1443h545q199 0 321.5 -110.5t122.5 -288.5q0 -164 -100 -293t-268 -178l202 -573h-278l-178 541h-298l-116 -541h-260zM631 1229l-105 -483h294q142 0 230.5 77t88.5 198q0 97 -60 152.5t-165 55.5h-283zM744 1585l-186 321h226l97 -189h17l176 189h250
l-321 -321h-259z" />
    <glyph glyph-name="rcaron" unicode="&#x159;" horiz-adv-x="865" 
d="M765 1243h-258l-204 348h226l113 -215h17l205 215h253zM73 0l233 1094h241l-30 -146h16q97 164 280 164q88 0 136 -20l-50 -231q-69 24 -156 24q-117 0 -188 -65.5t-100 -200.5l-132 -619h-250z" />
    <glyph glyph-name="Sacute" unicode="&#x15a;" horiz-adv-x="1331" 
d="M760 1585l354 310h282l-386 -310h-250zM111 407h252q19 -103 109 -165.5t218 -62.5q131 0 213 59t82 154q0 74 -53.5 123t-179.5 90l-145 47q-156 51 -241 151.5t-85 234.5q0 190 155.5 315.5t391.5 125.5q225 0 373.5 -122t159.5 -315h-247q-19 102 -99.5 162t-198.5 60
q-117 0 -193.5 -56t-76.5 -142q0 -67 50 -115.5t157 -84.5l142 -47q182 -60 268 -155t86 -236q0 -208 -160.5 -336t-418.5 -128q-238 0 -389 119t-170 324z" />
    <glyph glyph-name="sacute" unicode="&#x15b;" horiz-adv-x="1114" 
d="M88 307h243q15 -63 74.5 -102t147.5 -39q94 0 152.5 37.5t58.5 97.5q0 41 -28 70.5t-93 50.5l-170 57q-130 45 -193 115.5t-63 177.5q0 154 122 249t316 95q188 0 305 -86t132 -230h-232q-13 59 -68.5 93t-138.5 34q-85 0 -140 -36.5t-55 -93.5q0 -41 32.5 -70.5
t100.5 -52.5l167 -57q134 -45 195 -114t61 -176q0 -155 -129.5 -252t-334.5 -97q-199 0 -326.5 91t-135.5 238zM572 1275l323 347h280l-357 -347h-246z" />
    <glyph glyph-name="Scircumflex" unicode="&#x15c;" horiz-adv-x="1331" 
d="M111 407h252q19 -103 109 -165.5t218 -62.5q131 0 213 59t82 154q0 74 -53.5 123t-179.5 90l-145 47q-156 51 -241 151.5t-85 234.5q0 190 155.5 315.5t391.5 125.5q225 0 373.5 -122t159.5 -315h-247q-19 102 -99.5 162t-198.5 60q-117 0 -193.5 -56t-76.5 -142
q0 -67 50 -115.5t157 -84.5l142 -47q182 -60 268 -155t86 -236q0 -208 -160.5 -336t-418.5 -128q-238 0 -389 119t-170 324zM1073 1906l186 -321h-226l-96 189h-18l-176 -189h-250l322 321h258z" />
    <glyph glyph-name="scircumflex" unicode="&#x15d;" horiz-adv-x="1114" 
d="M883 1591l204 -348h-227l-113 215h-18l-204 -215h-252l352 348h258zM88 307h243q15 -63 74.5 -102t147.5 -39q94 0 152.5 37.5t58.5 97.5q0 41 -28 70.5t-93 50.5l-170 57q-130 45 -193 115.5t-63 177.5q0 154 122 249t316 95q188 0 305 -86t132 -230h-232
q-13 59 -68.5 93t-138.5 34q-85 0 -140 -36.5t-55 -93.5q0 -41 32.5 -70.5t100.5 -52.5l167 -57q134 -45 195 -114t61 -176q0 -155 -129.5 -252t-334.5 -97q-199 0 -326.5 91t-135.5 238z" />
    <glyph glyph-name="Scedilla" unicode="&#x15e;" horiz-adv-x="1331" 
d="M753 866l142 -47q182 -60 268 -155t86 -236q0 -190 -137 -315.5t-363 -145.5l-60 -94q166 -24 166 -162q0 -92 -71 -148.5t-186 -56.5q-103 0 -182 36l26 123q69 -27 144 -27q45 0 70.5 16.5t25.5 45.5q0 65 -122 65h-56l16 107l62 97q-202 21 -328 137t-143 301h252
q19 -103 109 -165.5t218 -62.5q131 0 213 59t82 154q0 74 -53.5 123t-179.5 90l-145 47q-156 51 -241 151.5t-85 234.5q0 190 155.5 315.5t391.5 125.5q225 0 373.5 -122t159.5 -315h-247q-19 102 -99.5 162t-198.5 60q-117 0 -193.5 -56t-76.5 -142q0 -67 50 -115.5
t157 -84.5z" />
    <glyph glyph-name="scedilla" unicode="&#x15f;" horiz-adv-x="1114" 
d="M591 674l167 -57q134 -45 195 -114t61 -176q0 -142 -111.5 -237t-291.5 -110l-68 -107q166 -24 166 -162q0 -92 -71 -148.5t-186 -56.5q-103 0 -182 36l26 123q69 -27 144 -27q45 0 70.5 16.5t25.5 45.5q0 65 -122 65h-56l16 107l72 113q-157 23 -254 109.5t-104 212.5
h243q15 -63 74.5 -102t147.5 -39q94 0 152.5 37.5t58.5 97.5q0 41 -28 70.5t-93 50.5l-170 57q-130 45 -193 115.5t-63 177.5q0 154 122 249t316 95q188 0 305 -86t132 -230h-232q-13 59 -68.5 93t-138.5 34q-85 0 -140 -36.5t-55 -93.5q0 -41 32.5 -70.5t100.5 -52.5z" />
    <glyph glyph-name="Scaron" unicode="&#x160;" horiz-adv-x="1331" 
d="M111 407h252q19 -103 109 -165.5t218 -62.5q131 0 213 59t82 154q0 74 -53.5 123t-179.5 90l-145 47q-156 51 -241 151.5t-85 234.5q0 190 155.5 315.5t391.5 125.5q225 0 373.5 -122t159.5 -315h-247q-19 102 -99.5 162t-198.5 60q-117 0 -193.5 -56t-76.5 -142
q0 -67 50 -115.5t157 -84.5l142 -47q182 -60 268 -155t86 -236q0 -208 -160.5 -336t-418.5 -128q-238 0 -389 119t-170 324zM769 1585l-186 321h226l97 -189h17l176 189h250l-321 -321h-259z" />
    <glyph glyph-name="scaron" unicode="&#x161;" horiz-adv-x="1114" 
d="M835 1243h-258l-204 348h226l113 -215h17l205 215h253zM88 307h243q15 -63 74.5 -102t147.5 -39q94 0 152.5 37.5t58.5 97.5q0 41 -28 70.5t-93 50.5l-170 57q-130 45 -193 115.5t-63 177.5q0 154 122 249t316 95q188 0 305 -86t132 -230h-232q-13 59 -68.5 93t-138.5 34
q-85 0 -140 -36.5t-55 -93.5q0 -41 32.5 -70.5t100.5 -52.5l167 -57q134 -45 195 -114t61 -176q0 -155 -129.5 -252t-334.5 -97q-199 0 -326.5 91t-135.5 238z" />
    <glyph glyph-name="Tcedilla" unicode="&#x162;" horiz-adv-x="1333" 
d="M328 1443h1147l-46 -223h-444l-260 -1220h-45l-81 -127q166 -24 166 -162q0 -92 -71 -148.5t-186 -56.5q-103 0 -182 36l26 123q69 -27 144 -27q45 0 70.5 16.5t25.5 45.5q0 65 -122 65h-56l16 107l82 128h-47l260 1220h-443z" />
    <glyph glyph-name="tcedilla" unicode="&#x163;" horiz-adv-x="809" 
d="M599 889l-110 -515q-10 -43 -10 -76q0 -105 127 -105q44 0 82 5l-39 -192q-44 -11 -140 -11q-21 0 -31 1l-78 -123q166 -24 166 -162q0 -92 -71 -148.5t-186 -56.5q-103 0 -182 36l26 123q69 -27 144 -27q45 0 70.5 16.5t25.5 45.5q0 65 -122 65h-56l16 107l102 160
q-117 59 -117 191q0 42 11 95l123 571h-178l41 198h179l57 275h250l-59 -275h239l-43 -198h-237z" />
    <glyph glyph-name="Tcaron" unicode="&#x164;" horiz-adv-x="1333" 
d="M818 1585l-186 321h226l97 -189h17l176 189h250l-321 -321h-259zM725 0h-260l260 1220h-443l46 223h1147l-46 -223h-444z" />
    <glyph glyph-name="tcaron" unicode="&#x165;" horiz-adv-x="809" 
d="M983 1231h-171l106 499h221zM509 -5q-133 0 -213 59.5t-80 168.5q0 42 11 95l123 571h-178l41 198h179l57 275h250l-59 -275h239l-43 -198h-237l-110 -515q-10 -43 -10 -76q0 -105 127 -105q44 0 82 5l-39 -192q-44 -11 -140 -11z" />
    <glyph glyph-name="Tbar" unicode="&#x166;" horiz-adv-x="1332" 
d="M1429 1220h-444l-90 -422h292l-39 -191h-294l-129 -607h-260l129 607h-286l39 191h288l90 422h-443l46 223h1147z" />
    <glyph glyph-name="tbar" unicode="&#x167;" horiz-adv-x="805" 
d="M836 889h-237l-51 -241h233l-33 -155h-234l-25 -119q-10 -43 -10 -76q0 -105 127 -105q44 0 82 5l-39 -192q-44 -11 -140 -11q-133 0 -213 59.5t-80 168.5q0 42 11 95l38 175h-176l33 155h176l52 241h-178l41 198h179l57 275h250l-59 -275h239z" />
    <glyph glyph-name="Utilde" unicode="&#x168;" horiz-adv-x="1549" 
d="M761 -36q-252 0 -396.5 129t-146.5 333q0 65 13 127l188 890h260l-185 -880q-14 -61 -12 -114q4 -118 82 -185t221 -67q140 0 237 81t129 227l199 938h261l-211 -994q-49 -231 -214 -358t-425 -127zM1229 1577q-56 0 -104.5 23.5t-77 52t-61.5 52t-61 23.5
q-84 0 -104 -109h-166q18 124 91 196t174 72q45 0 85 -15.5t68 -37.5t52.5 -44.5t49.5 -38t49 -15.5q84 0 104 109h166q-18 -125 -91 -196.5t-174 -71.5z" />
    <glyph glyph-name="utilde" unicode="&#x169;" horiz-adv-x="1252" 
d="M1267 1094l-232 -1094h-240l35 159h-17q-50 -85 -133.5 -133t-197.5 -48q-149 0 -240 88.5t-91 230.5q0 62 15 140l137 657h250l-131 -617q-11 -59 -11 -99q0 -183 187 -183q108 0 183 69t99 185l138 645h249zM1009 1235q-47 0 -87.5 17.5t-67 43t-49.5 51t-47.5 43
t-48.5 17.5q-81 0 -102 -130h-169q16 134 90 211.5t180 77.5q47 0 86.5 -17.5t66 -43t49.5 -50.5t47.5 -42.5t48.5 -17.5q82 0 103 129h169q-16 -133 -90 -211t-179 -78z" />
    <glyph glyph-name="Umacron" unicode="&#x16a;" horiz-adv-x="1549" 
d="M761 -36q-252 0 -396.5 129t-146.5 333q0 65 13 127l188 890h260l-185 -880q-14 -61 -12 -114q4 -118 82 -185t221 -67q140 0 237 81t129 227l199 938h261l-211 -994q-49 -231 -214 -358t-425 -127zM1411 1628h-720l35 164h719z" />
    <glyph glyph-name="umacron" unicode="&#x16b;" horiz-adv-x="1252" 
d="M1267 1094l-232 -1094h-240l35 159h-17q-50 -85 -133.5 -133t-197.5 -48q-149 0 -240 88.5t-91 230.5q0 62 15 140l137 657h250l-131 -617q-11 -59 -11 -99q0 -183 187 -183q108 0 183 69t99 185l138 645h249zM1180 1305h-712l34 164h713z" />
    <glyph glyph-name="Ubreve" unicode="&#x16c;" horiz-adv-x="1549" 
d="M761 -36q-252 0 -396.5 129t-146.5 333q0 65 13 127l188 890h260l-185 -880q-14 -61 -12 -114q4 -118 82 -185t221 -67q140 0 237 81t129 227l199 938h261l-211 -994q-49 -231 -214 -358t-425 -127zM690 1876q0 16 1 24h185v-18q0 -65 53 -107t133 -42q83 0 137.5 43.5
t73.5 123.5h186q-23 -147 -131.5 -234.5t-270.5 -87.5q-161 0 -264 84t-103 214z" />
    <glyph glyph-name="ubreve" unicode="&#x16d;" horiz-adv-x="1252" 
d="M1267 1094l-232 -1094h-240l35 159h-17q-50 -85 -133.5 -133t-197.5 -48q-149 0 -240 88.5t-91 230.5q0 62 15 140l137 657h250l-131 -617q-11 -59 -11 -99q0 -183 187 -183q108 0 183 69t99 185l138 645h249zM470 1585h186q-2 -16 -2 -30q0 -71 51.5 -114t136.5 -43
q93 0 150 48t72 139h188q-16 -156 -127.5 -249t-290.5 -93q-168 0 -267.5 84t-99.5 214q0 21 3 44z" />
    <glyph glyph-name="Uring" unicode="&#x16e;" horiz-adv-x="1549" 
d="M1079 1553q-83 0 -139.5 55.5t-56.5 137.5t56.5 137.5t139.5 55.5t139.5 -55.5t56.5 -137.5t-56.5 -137.5t-139.5 -55.5zM1079 1653q40 0 67 26t27 67t-27 67t-67 26q-41 0 -67.5 -26t-26.5 -67t27 -67t67 -26zM761 -36q-252 0 -396.5 129t-146.5 333q0 65 13 127
l188 890h260l-185 -880q-14 -61 -12 -114q4 -118 82 -185t221 -67q140 0 237 81t129 227l199 938h261l-211 -994q-49 -231 -214 -358t-425 -127z" />
    <glyph glyph-name="uring" unicode="&#x16f;" horiz-adv-x="1252" 
d="M1267 1094l-232 -1094h-240l35 159h-17q-50 -85 -133.5 -133t-197.5 -48q-149 0 -240 88.5t-91 230.5q0 62 15 140l137 657h250l-131 -617q-11 -59 -11 -99q0 -183 187 -183q108 0 183 69t99 185l138 645h249zM862 1243q-102 0 -171.5 67.5t-69.5 168.5t69.5 168
t171.5 67t171 -67t69 -168t-69 -168.5t-171 -67.5zM861 1368q49 0 80.5 31.5t31.5 78.5q0 48 -32 79.5t-80 31.5t-79.5 -32t-31.5 -79t31.5 -78.5t79.5 -31.5z" />
    <glyph glyph-name="Uhungarumlaut" unicode="&#x170;" horiz-adv-x="1549" 
d="M761 -36q-252 0 -396.5 129t-146.5 333q0 65 13 127l188 890h260l-185 -880q-14 -61 -12 -114q4 -118 82 -185t221 -67q140 0 237 81t129 227l199 938h261l-211 -994q-49 -231 -214 -358t-425 -127zM1101 1585l338 310h254l-363 -310h-229zM672 1585l339 310h254
l-363 -310h-230z" />
    <glyph glyph-name="uhungarumlaut" unicode="&#x171;" horiz-adv-x="1252" 
d="M920 1275l301 347h242l-329 -347h-214zM497 1275l301 347h242l-329 -347h-214zM1267 1094l-232 -1094h-240l35 159h-17q-50 -85 -133.5 -133t-197.5 -48q-149 0 -240 88.5t-91 230.5q0 62 15 140l137 657h250l-131 -617q-11 -59 -11 -99q0 -183 187 -183q108 0 183 69
t99 185l138 645h249z" />
    <glyph glyph-name="Uogonek" unicode="&#x172;" horiz-adv-x="1549" 
d="M933 -454q-118 0 -192.5 57.5t-74.5 149.5q0 62 43.5 116.5t112.5 82.5l5 22q-26 -10 -66 -10q-252 0 -397.5 130t-145.5 333q0 64 13 126l188 890h260l-185 -880q-12 -55 -12 -106q0 -123 78.5 -191.5t224.5 -68.5q140 0 237 81t129 227l199 938h261l-211 -994
q-31 -144 -112 -251t-200 -167q-95 -49 -151 -109.5t-56 -118.5q0 -43 35 -68.5t94 -25.5q26 0 44 4l-33 -155q-41 -12 -88 -12z" />
    <glyph glyph-name="uogonek" unicode="&#x173;" horiz-adv-x="1252" 
d="M796 1l34 158h-17q-50 -85 -133.5 -133t-197.5 -48q-149 0 -240 88.5t-91 230.5q0 62 15 140l137 657h250l-131 -617q-11 -59 -11 -99q0 -183 187 -183q108 0 183 69t99 185l138 645h249l-233 -1101l-11 -1q-102 -24 -168.5 -74.5t-66.5 -114.5q0 -43 35 -68.5t94 -25.5
q26 0 44 4l-33 -155q-43 -12 -88 -12q-119 0 -193 57.5t-74 149.5q0 81 60.5 145.5t162.5 102.5z" />
    <glyph glyph-name="Wcircumflex" unicode="&#x174;" horiz-adv-x="2036" 
d="M1471 1906l186 -321h-226l-96 189h-18l-176 -189h-250l322 321h258zM1154 1022l-502 -1022h-246l-80 1443h252l32 -1074h14l515 1074h215l71 -1074h15l480 1074h265l-687 -1443h-250l-79 1022h-15z" />
    <glyph glyph-name="wcircumflex" unicode="&#x175;" horiz-adv-x="1681" 
d="M1221 1591l204 -348h-227l-113 215h-18l-204 -215h-252l352 348h258zM1780 1094l-529 -1094h-262l-48 783h-17l-376 -783h-257l-65 1094h238l21 -811h17l376 811h243l37 -817h17l356 817h249z" />
    <glyph glyph-name="Ycircumflex" unicode="&#x176;" horiz-adv-x="1412" 
d="M768 0h-261l121 564l-319 879h268l223 -622h17l476 622h285l-695 -896zM1158 1906l186 -321h-226l-96 189h-18l-176 -189h-250l322 321h258z" />
    <glyph glyph-name="ycircumflex" unicode="&#x177;" horiz-adv-x="1173" 
d="M141 -399q-25 0 -73 4t-58 6l41 200q37 -8 90 -8q68 0 119 33.5t90 110.5l28 54l-155 1093h251l87 -835h17l430 835h267l-650 -1163q-101 -185 -210 -257.5t-274 -72.5zM970 1591l204 -348h-227l-113 215h-18l-204 -215h-252l352 348h258z" />
    <glyph glyph-name="Ydieresis" unicode="&#x178;" horiz-adv-x="1412" 
d="M768 0h-261l121 564l-319 879h268l223 -622h17l476 622h285l-695 -896zM778 1577q-61 0 -102 40.5t-41 100.5t41 100.5t102 40.5t102 -40.5t41 -100.5t-41 -100.5t-102 -40.5zM1223 1577q-61 0 -102 40.5t-41 100.5t41 100.5t102 40.5t102 -40.5t41 -100.5t-41 -100.5
t-102 -40.5z" />
    <glyph glyph-name="Zacute" unicode="&#x179;" horiz-adv-x="1373" 
d="M820 1585l354 310h282l-386 -310h-250zM69 0l37 176l963 1027l3 17h-722l46 223h1057l-37 -176l-961 -1027l-2 -17h758l-45 -223h-1097z" />
    <glyph glyph-name="zacute" unicode="&#x17a;" horiz-adv-x="1140" 
d="M643 1275l323 347h280l-357 -347h-246zM57 0l32 155l717 722l2 17h-555l43 200h872l-37 -169l-690 -708l-2 -17h546l-42 -200h-886z" />
    <glyph glyph-name="Zdotaccent" unicode="&#x17b;" horiz-adv-x="1373" 
d="M978 1578q-63 0 -104 41.5t-41 102.5q0 62 41 103.5t104 41.5q61 0 102 -41.5t41 -103.5q0 -61 -41 -102.5t-102 -41.5zM69 0l37 176l963 1027l3 17h-722l46 223h1057l-37 -176l-961 -1027l-2 -17h758l-45 -223h-1097z" />
    <glyph glyph-name="zdotaccent" unicode="&#x17c;" horiz-adv-x="1140" 
d="M803 1279q-62 0 -105.5 43.5t-43.5 107.5q0 63 43.5 106.5t105.5 43.5t105.5 -43.5t43.5 -106.5q0 -64 -43.5 -107.5t-105.5 -43.5zM57 0l32 155l717 722l2 17h-555l43 200h872l-37 -169l-690 -708l-2 -17h546l-42 -200h-886z" />
    <glyph glyph-name="Zcaron" unicode="&#x17d;" horiz-adv-x="1373" 
d="M69 0l37 176l963 1027l3 17h-722l46 223h1057l-37 -176l-961 -1027l-2 -17h758l-45 -223h-1097zM829 1585l-186 321h226l97 -189h17l176 189h250l-321 -321h-259z" />
    <glyph glyph-name="zcaron" unicode="&#x17e;" horiz-adv-x="1140" 
d="M906 1243h-258l-204 348h226l113 -215h17l205 215h253zM57 0l32 155l717 722l2 17h-555l43 200h872l-37 -169l-690 -708l-2 -17h546l-42 -200h-886z" />
    <glyph glyph-name="florin" unicode="&#x192;" horiz-adv-x="1384" 
d="M256 -21q-97 0 -219 40l46 210q91 -37 187 -37q95 0 154 44.5t95 142.5l114 307h-330l40 190h358l74 202q140 387 531 387q114 0 208 -33l-46 -205q-71 27 -177 27q-105 0 -168 -49t-101 -152l-65 -177h350l-40 -190h-379l-117 -321q-74 -201 -197.5 -293.5t-317.5 -92.5
z" />
    <glyph glyph-name="Ohorn" unicode="&#x1a0;" horiz-adv-x="1623" 
d="M1582 872q0 -196 -59.5 -365.5t-163.5 -288.5t-249.5 -186.5t-311.5 -67.5q-178 0 -318 79t-216 217t-76 311q0 195 60 364.5t164.5 288.5t250.5 187t312 68q77 0 202.5 -21t221.5 -21q73 0 109.5 25t47.5 75l32 145h205l-41 -196q-22 -103 -91.5 -158t-170.5 -55
q-29 0 -67 8l-8 -12q80 -63 123.5 -168t43.5 -229zM1316 851q0 178 -97.5 286.5t-256.5 108.5q-141 0 -257.5 -86t-183 -236.5t-66.5 -332.5q0 -178 98 -286.5t258 -108.5q142 0 257.5 85t181.5 235t66 335z" />
    <glyph glyph-name="ohorn" unicode="&#x1a1;" horiz-adv-x="1340" 
d="M1218 647q0 -189 -78 -342.5t-215.5 -240t-308.5 -86.5q-212 0 -343 129.5t-131 339.5q0 191 77.5 344t215.5 239t311 86q52 0 154.5 -14.5t153.5 -14.5q73 0 104 21.5t45 78.5l34 156h206l-46 -219q-42 -194 -229 -194q-24 0 -44 10l-7 -11q47 -48 74 -124t27 -158z
M402 460q0 -125 63 -199.5t170 -74.5q133 0 227.5 128.5t94.5 307.5q0 134 -60 210t-166 76q-144 0 -236.5 -126.5t-92.5 -321.5z" />
    <glyph glyph-name="Uhorn" unicode="&#x1af;" horiz-adv-x="1724" 
d="M761 -36q-252 0 -397.5 129.5t-145.5 332.5q0 65 13 127l188 890h260l-185 -880q-12 -55 -12 -114q0 -117 79.5 -184.5t223.5 -67.5q140 0 237 81t129 227l199 938h252q55 0 82.5 21t36.5 63l34 155h205l-43 -204q-21 -99 -87.5 -152t-165.5 -53h-89l-175 -824
q-49 -230 -213.5 -357.5t-425.5 -127.5z" />
    <glyph glyph-name="uhorn" unicode="&#x1b0;" horiz-adv-x="1456" 
d="M813 159q-50 -85 -133.5 -133t-197.5 -48q-149 0 -240 88.5t-91 230.5q0 62 15 140l137 657h250l-131 -617q-11 -59 -11 -99q0 -183 187 -183q108 0 183 69t99 185l138 645h228q56 0 83.5 19.5t36.5 60.5l37 169h205l-47 -218q-21 -99 -87.5 -152t-165.5 -53h-77
l-196 -920h-240l35 159h-17z" />
    <glyph glyph-name="u01C4" unicode="&#x1c4;" horiz-adv-x="2898" 
d="M415 1443h472q285 0 445 -160t160 -443q0 -239 -97 -431t-269 -300.5t-385 -108.5h-632zM631 1222l-215 -1000h310q218 0 359 166t141 427q0 190 -102.5 298.5t-284.5 108.5h-208zM1593 0l37 176l963 1027l3 17h-722l46 223h1057l-37 -176l-961 -1027l-2 -17h758
l-45 -223h-1097zM2353 1585l-186 321h226l97 -189h17l176 189h250l-321 -321h-259z" />
    <glyph glyph-name="u01C5" unicode="&#x1c5;" horiz-adv-x="2664" 
d="M415 1443h472q285 0 445 -160t160 -443q0 -239 -97 -431t-269 -300.5t-385 -108.5h-632zM631 1222l-215 -1000h310q218 0 359 166t141 427q0 190 -102.5 298.5t-284.5 108.5h-208zM2430 1243h-258l-204 348h226l113 -215h17l205 215h253zM1581 0l32 155l717 722l2 17
h-555l43 200h872l-37 -169l-690 -708l-2 -17h546l-42 -200h-886z" />
    <glyph glyph-name="u01C6" unicode="&#x1c6;" horiz-adv-x="2448" 
d="M523 -18q-167 0 -276 118t-109 315q0 198 74 358t201.5 249.5t281.5 89.5q118 0 203.5 -58.5t113.5 -151.5h18l130 615h250l-322 -1517h-241l32 151h-17q-59 -79 -146.5 -124t-192.5 -45zM626 191q144 0 243.5 131.5t99.5 318.5q0 120 -63.5 189t-169.5 69
q-144 0 -242.5 -126t-98.5 -317q0 -120 64.5 -192.5t166.5 -72.5zM2214 1243h-258l-204 348h226l113 -215h17l205 215h253zM1365 0l32 155l717 722l2 17h-555l43 200h872l-37 -169l-690 -708l-2 -17h546l-42 -200h-886z" />
    <glyph glyph-name="u01C7" unicode="&#x1c7;" horiz-adv-x="2381" 
d="M1288 386h252v-6q2 -83 54 -131.5t141 -48.5q183 0 232 231l216 1012h257l-224 -1056q-43 -205 -170 -314t-327 -109q-197 0 -318.5 113t-113.5 289q0 13 1 20zM1075 226l-47 -226h-920l307 1443h260l-260 -1217h660z" />
    <glyph glyph-name="u01C8" unicode="&#x1c8;" horiz-adv-x="1767" 
d="M1770 1094l-247 -1159q-64 -309 -382 -309q-65 0 -119 10l44 199q27 -5 61 -5q67 0 103 30.5t52 103.5l240 1130h248zM1713 1272q-68 0 -110.5 38t-42.5 96q0 59 43 99.5t110 40.5t110 -38t43 -96q0 -59 -43 -99.5t-110 -40.5zM1075 226l-47 -226h-920l307 1443h260
l-260 -1217h660z" />
    <glyph glyph-name="u01C9" unicode="&#x1c9;" horiz-adv-x="1134" 
d="M1137 1094l-247 -1159q-64 -309 -382 -309q-65 0 -119 10l44 199q27 -5 61 -5q67 0 103 30.5t52 103.5l240 1130h248zM1080 1272q-68 0 -110.5 38t-42.5 96q0 59 43 99.5t110 40.5t110 -38t43 -96q0 -59 -43 -99.5t-110 -40.5zM88 0l322 1517h250l-322 -1517h-250z" />
    <glyph glyph-name="u01CA" unicode="&#x1ca;" horiz-adv-x="2736" 
d="M1644 386h252v-6q2 -83 54 -131.5t141 -48.5q183 0 232 231l216 1012h257l-224 -1056q-43 -205 -170 -314t-327 -109q-197 0 -318.5 113t-113.5 289q0 13 1 20zM361 0h-253l307 1443h212l498 -1011h18l217 1011h253l-307 -1443h-211l-501 1005h-17z" />
    <glyph glyph-name="u01CB" unicode="&#x1cb;" horiz-adv-x="2123" 
d="M2126 1094l-247 -1159q-64 -309 -382 -309q-65 0 -119 10l44 199q27 -5 61 -5q67 0 103 30.5t52 103.5l240 1130h248zM2069 1272q-68 0 -110.5 38t-42.5 96q0 59 43 99.5t110 40.5t110 -38t43 -96q0 -59 -43 -99.5t-110 -40.5zM361 0h-253l307 1443h212l498 -1011h18
l217 1011h253l-307 -1443h-211l-501 1005h-17z" />
    <glyph glyph-name="u01CC" unicode="&#x1cc;" horiz-adv-x="1829" 
d="M1832 1094l-247 -1159q-64 -309 -382 -309q-65 0 -119 10l44 199q27 -5 61 -5q67 0 103 30.5t52 103.5l240 1130h248zM1775 1272q-68 0 -110.5 38t-42.5 96q0 59 43 99.5t110 40.5t110 -38t43 -96q0 -59 -43 -99.5t-110 -40.5zM79 0l233 1094h240l-36 -170h17
q123 188 335 188q150 0 240 -92.5t90 -230.5q0 -61 -15 -128l-140 -661h-249l132 619q12 51 12 92q0 85 -51.5 137t-144.5 52q-104 0 -177 -68.5t-97 -178.5l-140 -653h-249z" />
    <glyph glyph-name="Acaron" unicode="&#x1cd;" horiz-adv-x="1457" 
d="M1053 0l-43 369h-535l-203 -369h-270l829 1443h283l201 -1443h-262zM904 1166l-325 -593h415l-72 593h-18zM884 1585l-186 321h226l97 -189h17l176 189h250l-321 -321h-259z" />
    <glyph glyph-name="acaron" unicode="&#x1ce;" horiz-adv-x="1174" 
d="M518 176q103 0 183 59t100 150l23 106l-250 -11q-111 -4 -174 -48t-63 -116q0 -61 50.5 -100.5t130.5 -39.5zM420 -18q-140 0 -234.5 86t-94.5 214q0 165 126.5 261t355.5 104l286 11l15 70q5 25 5 44q0 66 -53.5 104t-146.5 38q-78 0 -132 -29t-77 -83h-241
q35 145 162 229.5t307 84.5q193 0 310.5 -87t117.5 -229q0 -40 -9 -89l-151 -711h-241l29 138h-17q-50 -72 -135 -114t-182 -42zM886 1243h-258l-204 348h226l113 -215h17l205 215h253z" />
    <glyph glyph-name="Icaron" unicode="&#x1cf;" horiz-adv-x="616" 
d="M368 0h-260l307 1443h260zM458 1585l-186 321h226l97 -189h17l176 189h250l-321 -321h-259z" />
    <glyph glyph-name="icaron" unicode="&#x1d0;" horiz-adv-x="569" 
d="M621 1243h-258l-204 348h226l113 -215h17l205 215h253zM91 0l232 1094h248l-232 -1094h-248z" />
    <glyph glyph-name="Ocaron" unicode="&#x1d1;" horiz-adv-x="1603" 
d="M886 1584l-186 321h226l97 -189h17l176 189h250l-321 -321h-259zM798 -36q-178 0 -318 79t-216 217t-76 311q0 195 60 364.5t164.5 288.5t250.5 187t312 68q271 0 439 -171.5t168 -435.5q0 -196 -59.5 -365.5t-163.5 -288.5t-249.5 -186.5t-311.5 -67.5zM1316 851
q0 178 -97.5 286.5t-256.5 108.5q-141 0 -257.5 -86t-183 -236.5t-66.5 -332.5q0 -178 98 -286.5t258 -108.5q142 0 257.5 85t181.5 235t66 335z" />
    <glyph glyph-name="ocaron" unicode="&#x1d2;" horiz-adv-x="1260" 
d="M914 1243h-258l-204 348h226l113 -215h17l205 215h253zM402 460q0 -125 63 -199.5t170 -74.5q133 0 227.5 128.5t94.5 307.5q0 134 -60 210t-166 76q-144 0 -236.5 -126.5t-92.5 -321.5zM616 -22q-212 0 -343 129.5t-131 339.5q0 191 77.5 344t215.5 239t311 86
q212 0 342 -129t130 -340q0 -189 -78 -342.5t-215.5 -240t-308.5 -86.5z" />
    <glyph glyph-name="Ucaron" unicode="&#x1d3;" horiz-adv-x="1549" 
d="M924 1585l-186 321h226l97 -189h17l176 189h250l-321 -321h-259zM761 -36q-252 0 -396.5 129t-146.5 333q0 65 13 127l188 890h260l-185 -880q-14 -61 -12 -114q4 -118 82 -185t221 -67q140 0 237 81t129 227l199 938h261l-211 -994q-49 -231 -214 -358t-425 -127z" />
    <glyph glyph-name="ucaron" unicode="&#x1d4;" horiz-adv-x="1252" 
d="M954 1243h-258l-204 348h226l113 -215h17l205 215h253zM1267 1094l-232 -1094h-240l35 159h-17q-50 -85 -133.5 -133t-197.5 -48q-149 0 -240 88.5t-91 230.5q0 62 15 140l137 657h250l-131 -617q-11 -59 -11 -99q0 -183 187 -183q108 0 183 69t99 185l138 645h249z" />
    <glyph glyph-name="Udieresismacron" unicode="&#x1d5;" horiz-adv-x="1549" 
d="M761 -36q-252 0 -396.5 129t-146.5 333q0 65 13 127l188 890h260l-185 -880q-14 -61 -12 -114q4 -118 82 -185t221 -67q140 0 237 81t129 227l199 938h261l-211 -994q-49 -231 -214 -358t-425 -127zM764 1973l33 154h719l-33 -154h-719zM849 1578q-60 0 -100 39.5
t-40 98.5t40 98.5t100 39.5t100 -39.5t40 -98.5t-40 -98.5t-100 -39.5zM1294 1578q-60 0 -100 39.5t-40 98.5t40 98.5t100 39.5t100 -39.5t40 -98.5t-40 -98.5t-100 -39.5z" />
    <glyph glyph-name="udieresismacron" unicode="&#x1d6;" horiz-adv-x="1252" 
d="M1267 1094l-232 -1094h-240l35 159h-17q-50 -85 -133.5 -133t-197.5 -48q-149 0 -240 88.5t-91 230.5q0 62 15 140l137 657h250l-131 -617q-11 -59 -11 -99q0 -183 187 -183q108 0 183 69t99 185l138 645h249zM624 1243q-58 0 -96.5 38.5t-38.5 95.5t38.5 96t96.5 39
t97 -39t39 -96t-39 -95.5t-97 -38.5zM1053 1243q-58 0 -97 38.5t-39 95.5t39 96t97 39t96.5 -39t38.5 -96t-38.5 -95.5t-96.5 -38.5zM1254 1657h-712l34 164h713z" />
    <glyph glyph-name="Udieresisacute" unicode="&#x1d7;" horiz-adv-x="1549" 
d="M964 1914l264 235h273l-314 -235h-223zM848 1577q-61 0 -102 40.5t-41 100.5t41 100.5t102 40.5t102 -40.5t41 -100.5t-41 -100.5t-102 -40.5zM1293 1577q-61 0 -102 40.5t-41 100.5t41 100.5t102 40.5t102 -40.5t41 -100.5t-41 -100.5t-102 -40.5zM761 -36
q-252 0 -396.5 129t-146.5 333q0 65 13 127l188 890h260l-185 -880q-14 -61 -12 -114q4 -118 82 -185t221 -67q140 0 237 81t129 227l199 938h261l-211 -994q-49 -231 -214 -358t-425 -127z" />
    <glyph glyph-name="udieresisacute" unicode="&#x1d8;" horiz-adv-x="1252" 
d="M740 1627l259 301h251l-292 -301h-218zM618 1246q-61 0 -102 40.5t-41 100.5t41 100.5t102 40.5t102 -40.5t41 -100.5t-41 -100.5t-102 -40.5zM1063 1246q-61 0 -102 40.5t-41 100.5t41 100.5t102 40.5t102 -40.5t41 -100.5t-41 -100.5t-102 -40.5zM1267 1094l-232 -1094
h-240l35 159h-17q-50 -85 -133.5 -133t-197.5 -48q-149 0 -240 88.5t-91 230.5q0 62 15 140l137 657h250l-131 -617q-11 -59 -11 -99q0 -183 187 -183q108 0 183 69t99 185l138 645h249z" />
    <glyph glyph-name="Udieresiscaron" unicode="&#x1d9;" horiz-adv-x="1549" 
d="M845 1568q-60 0 -99.5 38.5t-39.5 96.5q0 57 39.5 95.5t99.5 38.5t99.5 -38.5t39.5 -95.5q0 -58 -39.5 -96.5t-99.5 -38.5zM1289 1568q-60 0 -99.5 38.5t-39.5 96.5q0 57 39.5 95.5t99.5 38.5t99.5 -38.5t39.5 -95.5q0 -58 -39.5 -96.5t-99.5 -38.5zM988 1893l-227 275
h244l118 -156h17l182 156h268l-343 -275h-259zM761 -36q-252 0 -396.5 129t-146.5 333q0 65 13 127l188 890h260l-185 -880q-14 -61 -12 -114q4 -118 82 -185t221 -67q140 0 237 81t129 227l199 938h261l-211 -994q-49 -231 -214 -358t-425 -127z" />
    <glyph glyph-name="udieresiscaron" unicode="&#x1da;" horiz-adv-x="1252" 
d="M625 1243q-58 0 -97 38.5t-39 95.5t39 96t97 39t96.5 -39t38.5 -96t-38.5 -95.5t-96.5 -38.5zM1053 1243q-58 0 -96.5 38.5t-38.5 95.5t38.5 96t96.5 39t97 -39t39 -96t-39 -95.5t-97 -38.5zM734 1605l-195 336h225l106 -203h17l191 203h253l-338 -336h-259zM1267 1094
l-232 -1094h-240l35 159h-17q-50 -85 -133.5 -133t-197.5 -48q-149 0 -240 88.5t-91 230.5q0 62 15 140l137 657h250l-131 -617q-11 -59 -11 -99q0 -183 187 -183q108 0 183 69t99 185l138 645h249z" />
    <glyph glyph-name="Udieresisgrave" unicode="&#x1db;" horiz-adv-x="1549" 
d="M1195 1914h-221l-199 235h267zM848 1577q-61 0 -102 40.5t-41 100.5t41 100.5t102 40.5t102 -40.5t41 -100.5t-41 -100.5t-102 -40.5zM1293 1577q-61 0 -102 40.5t-41 100.5t41 100.5t102 40.5t102 -40.5t41 -100.5t-41 -100.5t-102 -40.5zM761 -36q-252 0 -396.5 129
t-146.5 333q0 65 13 127l188 890h260l-185 -880q-14 -61 -12 -114q4 -118 82 -185t221 -67q140 0 237 81t129 227l199 938h261l-211 -994q-49 -231 -214 -358t-425 -127z" />
    <glyph glyph-name="udieresisgrave" unicode="&#x1dc;" horiz-adv-x="1252" 
d="M967 1627h-214l-168 301h250zM618 1246q-61 0 -102 40.5t-41 100.5t41 100.5t102 40.5t102 -40.5t41 -100.5t-41 -100.5t-102 -40.5zM1063 1246q-61 0 -102 40.5t-41 100.5t41 100.5t102 40.5t102 -40.5t41 -100.5t-41 -100.5t-102 -40.5zM1267 1094l-232 -1094h-240
l35 159h-17q-50 -85 -133.5 -133t-197.5 -48q-149 0 -240 88.5t-91 230.5q0 62 15 140l137 657h250l-131 -617q-11 -59 -11 -99q0 -183 187 -183q108 0 183 69t99 185l138 645h249z" />
    <glyph glyph-name="Adieresismacron" unicode="&#x1de;" horiz-adv-x="1457" 
d="M1053 0l-43 369h-535l-203 -369h-270l829 1443h283l201 -1443h-262zM904 1166l-325 -593h415l-72 593h-18zM724 1973l33 154h719l-33 -154h-719zM809 1578q-60 0 -100 39.5t-40 98.5t40 98.5t100 39.5t100 -39.5t40 -98.5t-40 -98.5t-100 -39.5zM1254 1578
q-60 0 -100 39.5t-40 98.5t40 98.5t100 39.5t100 -39.5t40 -98.5t-40 -98.5t-100 -39.5z" />
    <glyph glyph-name="adieresismacron" unicode="&#x1df;" horiz-adv-x="1174" 
d="M518 176q103 0 183 59t100 150l23 106l-250 -11q-111 -4 -174 -48t-63 -116q0 -61 50.5 -100.5t130.5 -39.5zM420 -18q-140 0 -234.5 86t-94.5 214q0 165 126.5 261t355.5 104l286 11l15 70q5 25 5 44q0 66 -53.5 104t-146.5 38q-78 0 -132 -29t-77 -83h-241
q35 145 162 229.5t307 84.5q193 0 310.5 -87t117.5 -229q0 -40 -9 -89l-151 -711h-241l29 138h-17q-50 -72 -135 -114t-182 -42zM556 1243q-58 0 -96.5 38.5t-38.5 95.5t38.5 96t96.5 39t97 -39t39 -96t-39 -95.5t-97 -38.5zM985 1243q-58 0 -97 38.5t-39 95.5t39 96t97 39
t96.5 -39t38.5 -96t-38.5 -95.5t-96.5 -38.5zM1186 1657h-712l34 164h713z" />
    <glyph glyph-name="Adotmacron" unicode="&#x1e0;" horiz-adv-x="1457" 
d="M1053 0l-43 369h-535l-203 -369h-270l829 1443h283l201 -1443h-262zM904 1166l-325 -593h415l-72 593h-18zM1443 1973h-719l33 154h719zM1030 1576q-61 0 -102 39.5t-41 98.5t41 98.5t102 39.5t101.5 -39.5t40.5 -98.5t-40.5 -98.5t-101.5 -39.5z" />
    <glyph glyph-name="adotmacron" unicode="&#x1e1;" horiz-adv-x="1174" 
d="M518 176q103 0 183 59t100 150l23 106l-250 -11q-111 -4 -174 -48t-63 -116q0 -61 50.5 -100.5t130.5 -39.5zM420 -18q-140 0 -234.5 86t-94.5 214q0 165 126.5 261t355.5 104l286 11l15 70q5 25 5 44q0 66 -53.5 104t-146.5 38q-78 0 -132 -29t-77 -83h-241
q35 145 162 229.5t307 84.5q193 0 310.5 -87t117.5 -229q0 -40 -9 -89l-151 -711h-241l29 138h-17q-50 -72 -135 -114t-182 -42zM770 1243q-60 0 -99.5 39.5t-39.5 98.5q0 60 39.5 99.5t99.5 39.5t99.5 -39.5t39.5 -99.5q0 -59 -39.5 -98.5t-99.5 -39.5zM1186 1657h-712
l34 164h713z" />
    <glyph glyph-name="AEmacron" unicode="&#x1e2;" horiz-adv-x="2025" 
d="M1190 1235h-136l-407 -632h407zM926 0l86 398h-488l-260 -398h-263l923 1443h1204l-47 -223h-653l-84 -389h617l-44 -211h-616l-87 -397h653l-46 -223h-895zM1919 1628h-720l35 164h719z" />
    <glyph glyph-name="aemacron" unicode="&#x1e3;" horiz-adv-x="1908" 
d="M1288 -22q-124 0 -233 59.5t-153 155.5h-17q-58 -92 -171 -153.5t-245 -61.5q-165 0 -271 88t-106 219q0 169 125 264t357 103l286 10l15 66q5 24 5 44q0 66 -53.5 104t-146.5 38q-78 0 -132 -29t-77 -83h-241q36 147 161 230.5t304 83.5q117 0 207 -42.5t133 -117.5h18
q68 77 161 118.5t200 41.5q186 0 312 -124t127 -329q0 -77 -16 -173h-772q0 -6 -0.5 -20t-0.5 -20q0 -134 71 -202t175 -68q176 0 236 122h245q-37 -145 -171.5 -234.5t-331.5 -89.5zM1094 658h517q3 9 3 40q0 95 -58.5 157.5t-160.5 62.5q-108 0 -188.5 -70.5
t-112.5 -189.5zM519 171q103 0 183 61t100 153l23 106l-250 -11q-111 -4 -174 -48t-63 -117q0 -62 51 -103t130 -41zM1426 1305h-712l34 164h713z" />
    <glyph glyph-name="Gcaron" unicode="&#x1e6;" horiz-adv-x="1553" 
d="M870 1586l-186 321h226l97 -189h17l176 189h250l-321 -321h-259zM1518 751l-38 -188q-60 -292 -238 -445.5t-457 -153.5q-269 0 -432.5 166t-163.5 440q0 196 58.5 365t161 288.5t247 187.5t312.5 68q235 0 397.5 -132t172.5 -330v-35h-254q-8 119 -99.5 192t-233.5 73
q-140 0 -253.5 -85t-178.5 -236t-65 -336q0 -183 96 -288.5t262 -105.5q152 0 262.5 87t139.5 231l7 36h-341l43 201h595z" />
    <glyph glyph-name="gcaron" unicode="&#x1e7;" horiz-adv-x="1298" 
d="M920 1243h-258l-204 348h226l113 -215h17l205 215h253zM520 -416q-207 0 -339.5 93.5t-135.5 231.5h251q8 -60 72 -98t169 -38q122 0 193.5 54.5t94.5 152.5l45 197h-17q-112 -157 -326 -157q-166 0 -275.5 117t-109.5 304q0 190 71.5 344t196 240.5t275.5 86.5
q114 0 205.5 -59t122.5 -154h17l42 195h241l-245 -1141q-37 -173 -181 -271t-367 -98zM627 212q142 0 238.5 122t96.5 307q0 118 -64.5 188t-172.5 70q-142 0 -234.5 -118t-92.5 -306q0 -122 61.5 -192.5t167.5 -70.5z" />
    <glyph glyph-name="Kcaron" unicode="&#x1e8;" horiz-adv-x="1416" 
d="M366 0h-258l307 1443h257l-141 -659h17l701 659h313l-682 -647l407 -796h-293l-325 639l-206 -190zM839 1585l-186 321h226l97 -189h17l176 189h250l-321 -321h-259z" />
    <glyph glyph-name="kcaron" unicode="&#x1e9;" horiz-adv-x="1165" 
d="M496 671l484 423h298l-542 -476l341 -618h-277l-264 479l-117 -94l-82 -385h-249l322 1517h249l-180 -846h17zM409 1659l-186 321h226l97 -189h17l176 189h250l-321 -321h-259z" />
    <glyph glyph-name="Oogonek" unicode="&#x1ea;" horiz-adv-x="1603" 
d="M965 -454q-118 0 -192 57.5t-74 149.5q0 61 43 115.5t112 83.5l4 20q-26 -8 -60 -8q-178 0 -318 79t-216 217t-76 311q0 195 60 364.5t164.5 288.5t250.5 187t312 68q271 0 439 -171.5t168 -435.5q0 -272 -122.5 -496t-333.5 -345q-110 -63 -161.5 -116.5t-51.5 -111.5
q0 -43 35 -68.5t95 -25.5q25 0 43 4l-33 -155q-41 -12 -88 -12zM1316 851q0 178 -97.5 286.5t-256.5 108.5q-141 0 -257.5 -86t-183 -236.5t-66.5 -332.5q0 -178 98 -286.5t258 -108.5q142 0 257.5 85t181.5 235t66 335z" />
    <glyph glyph-name="oogonek" unicode="&#x1eb;" horiz-adv-x="1267" 
d="M761 -454q-118 0 -192.5 57.5t-74.5 149.5q0 62 45 121.5t114 87.5l4 20q-30 -4 -41 -4q-212 0 -343 129.5t-131 339.5q0 191 77.5 344t215.5 239t311 86q212 0 342 -129t130 -340q0 -186 -76 -336t-210 -241q-223 -151 -223 -267q0 -43 35 -68.5t94 -25.5q26 0 44 4
l-33 -155q-41 -12 -88 -12zM402 460q0 -125 63 -199.5t170 -74.5q133 0 227.5 128.5t94.5 307.5q0 134 -60 210t-166 76q-144 0 -236.5 -126.5t-92.5 -321.5z" />
    <glyph glyph-name="Oogonekmacron" unicode="&#x1ec;" horiz-adv-x="1610" 
d="M965 -454q-118 0 -192 57.5t-74 149.5q0 61 43 115.5t112 83.5l4 20q-26 -8 -60 -8q-178 0 -318 79t-216 217t-76 311q0 195 60 364.5t164.5 288.5t250.5 187t312 68q271 0 439 -171.5t168 -435.5q0 -272 -122.5 -496t-333.5 -345q-110 -63 -161.5 -116.5t-51.5 -111.5
q0 -43 35 -68.5t95 -25.5q25 0 43 4l-33 -155q-41 -12 -88 -12zM1316 851q0 178 -97.5 286.5t-256.5 108.5q-141 0 -257.5 -86t-183 -236.5t-66.5 -332.5q0 -178 98 -286.5t258 -108.5q142 0 257.5 85t181.5 235t66 335zM1373 1627h-720l35 164h719z" />
    <glyph glyph-name="oogonekmacron" unicode="&#x1ed;" horiz-adv-x="1260" 
d="M1140 1305h-712l34 164h713zM761 -454q-118 0 -192.5 57.5t-74.5 149.5q0 62 45 121.5t114 87.5l4 20q-30 -4 -41 -4q-212 0 -343 129.5t-131 339.5q0 191 77.5 344t215.5 239t311 86q212 0 342 -129t130 -340q0 -186 -76 -336t-210 -241q-223 -151 -223 -267
q0 -43 35 -68.5t94 -25.5q26 0 44 4l-33 -155q-41 -12 -88 -12zM402 460q0 -125 63 -199.5t170 -74.5q133 0 227.5 128.5t94.5 307.5q0 134 -60 210t-166 76q-144 0 -236.5 -126.5t-92.5 -321.5z" />
    <glyph glyph-name="u01F1" unicode="&#x1f1;" horiz-adv-x="2898" 
d="M1593 0l37 176l963 1027l3 17h-722l46 223h1057l-37 -176l-961 -1027l-2 -17h758l-45 -223h-1097zM415 1443h472q285 0 445 -160t160 -443q0 -239 -97 -431t-269 -300.5t-385 -108.5h-632zM631 1222l-215 -1000h310q218 0 359 166t141 427q0 190 -102.5 298.5
t-284.5 108.5h-208z" />
    <glyph glyph-name="u01F2" unicode="&#x1f2;" horiz-adv-x="2664" 
d="M1581 0l32 155l717 722l2 17h-555l43 200h872l-37 -169l-690 -708l-2 -17h546l-42 -200h-886zM415 1443h472q285 0 445 -160t160 -443q0 -239 -97 -431t-269 -300.5t-385 -108.5h-632zM631 1222l-215 -1000h310q218 0 359 166t141 427q0 190 -102.5 298.5t-284.5 108.5
h-208z" />
    <glyph glyph-name="u01F3" unicode="&#x1f3;" horiz-adv-x="2448" 
d="M1365 0l32 155l717 722l2 17h-555l43 200h872l-37 -169l-690 -708l-2 -17h546l-42 -200h-886zM523 -18q-167 0 -276 118t-109 315q0 198 74 358t201.5 249.5t281.5 89.5q118 0 203.5 -58.5t113.5 -151.5h18l130 615h250l-322 -1517h-241l32 151h-17q-59 -79 -146.5 -124
t-192.5 -45zM626 191q144 0 243.5 131.5t99.5 318.5q0 120 -63.5 189t-169.5 69q-144 0 -242.5 -126t-98.5 -317q0 -120 64.5 -192.5t166.5 -72.5z" />
    <glyph glyph-name="Gacute" unicode="&#x1f4;" horiz-adv-x="1553" 
d="M861 1586l354 310h282l-386 -310h-250zM1518 751l-38 -188q-60 -292 -238 -445.5t-457 -153.5q-269 0 -432.5 166t-163.5 440q0 196 58.5 365t161 288.5t247 187.5t312.5 68q235 0 397.5 -132t172.5 -330v-35h-254q-8 119 -99.5 192t-233.5 73q-140 0 -253.5 -85
t-178.5 -236t-65 -336q0 -183 96 -288.5t262 -105.5q152 0 262.5 87t139.5 231l7 36h-341l43 201h595z" />
    <glyph glyph-name="gacute" unicode="&#x1f5;" horiz-adv-x="1298" 
d="M657 1275l323 347h280l-357 -347h-246zM520 -416q-207 0 -339.5 93.5t-135.5 231.5h251q8 -60 72 -98t169 -38q122 0 193.5 54.5t94.5 152.5l45 197h-17q-112 -157 -326 -157q-166 0 -275.5 117t-109.5 304q0 190 71.5 344t196 240.5t275.5 86.5q114 0 205.5 -59
t122.5 -154h17l42 195h241l-245 -1141q-37 -173 -181 -271t-367 -98zM627 212q142 0 238.5 122t96.5 307q0 118 -64.5 188t-172.5 70q-142 0 -234.5 -118t-92.5 -306q0 -122 61.5 -192.5t167.5 -70.5z" />
    <glyph glyph-name="Ngrave" unicode="&#x1f8;" horiz-adv-x="1553" 
d="M981 1895l170 -310h-234l-203 310h267zM361 0h-253l307 1443h212l498 -1011h18l217 1011h253l-307 -1443h-211l-501 1005h-17z" />
    <glyph glyph-name="ngrave" unicode="&#x1f9;" horiz-adv-x="1253" 
d="M918 1275h-234l-209 347h268zM79 0l233 1094h240l-36 -170h17q123 188 335 188q150 0 240 -92.5t90 -230.5q0 -61 -15 -128l-140 -661h-249l132 619q12 51 12 92q0 85 -51.5 137t-144.5 52q-104 0 -177 -68.5t-97 -178.5l-140 -653h-249z" />
    <glyph glyph-name="Aringacute" unicode="&#x1fa;" horiz-adv-x="1457" 
d="M1053 0l-43 369h-535l-203 -369h-270l829 1443h283l201 -1443h-262zM904 1166l-325 -593h415l-72 593h-18zM966 1762q-10 -28 3.5 -54t42.5 -37q28 -11 54 1t37 40q10 28 -3.5 54.5t-42.5 36.5q-29 11 -55 -1t-36 -40zM1035 1532q-89 0 -150 59t-61 147t61 146.5
t150 58.5t149.5 -59t60.5 -146q0 -88 -60.5 -147t-149.5 -59zM1107 2200h236l-185 -188h-209z" />
    <glyph glyph-name="aringacute" unicode="&#x1fb;" horiz-adv-x="1174" 
d="M518 176q103 0 183 59t100 150l23 106l-250 -11q-111 -4 -174 -48t-63 -116q0 -61 50.5 -100.5t130.5 -39.5zM420 -18q-140 0 -234.5 86t-94.5 214q0 165 126.5 261t355.5 104l286 11l15 70q5 25 5 44q0 66 -53.5 104t-146.5 38q-78 0 -132 -29t-77 -83h-241
q35 145 162 229.5t307 84.5q193 0 310.5 -87t117.5 -229q0 -40 -9 -89l-151 -711h-241l29 138h-17q-50 -72 -135 -114t-182 -42zM803 1210q-93 0 -155.5 61t-62.5 152t62.5 152.5t155.5 61.5q92 0 155 -61.5t63 -152.5t-63 -152t-155 -61zM708 1423q0 -41 27 -68t68 -27
q40 0 67.5 27t27.5 68q0 40 -27.5 67.5t-67.5 27.5q-41 0 -68 -27t-27 -68zM720 1718l216 233h232l-250 -233h-198z" />
    <glyph glyph-name="AEacute" unicode="&#x1fc;" horiz-adv-x="2025" 
d="M1423 1585l354 310h282l-386 -310h-250zM1190 1235h-136l-407 -632h407zM926 0l86 398h-488l-260 -398h-263l923 1443h1204l-47 -223h-653l-84 -389h617l-44 -211h-616l-87 -397h653l-46 -223h-895z" />
    <glyph glyph-name="aeacute" unicode="&#x1fd;" horiz-adv-x="1908" 
d="M937 1275l323 347h280l-357 -347h-246zM1288 -22q-124 0 -233 59.5t-153 155.5h-17q-58 -92 -171 -153.5t-245 -61.5q-165 0 -271 88t-106 219q0 169 125 264t357 103l286 10l15 66q5 24 5 44q0 66 -53.5 104t-146.5 38q-78 0 -132 -29t-77 -83h-241q36 147 161 230.5
t304 83.5q117 0 207 -42.5t133 -117.5h18q68 77 161 118.5t200 41.5q186 0 312 -124t127 -329q0 -77 -16 -173h-772q0 -6 -0.5 -20t-0.5 -20q0 -134 71 -202t175 -68q176 0 236 122h245q-37 -145 -171.5 -234.5t-331.5 -89.5zM1094 658h517q3 9 3 40q0 95 -58.5 157.5
t-160.5 62.5q-108 0 -188.5 -70.5t-112.5 -189.5zM519 171q103 0 183 61t100 153l23 106l-250 -11q-111 -4 -174 -48t-63 -117q0 -62 51 -103t130 -41z" />
    <glyph glyph-name="Oslashacute" unicode="&#x1fe;" horiz-adv-x="1577" 
d="M1451 1894l-386 -310h-250l354 310h282zM1237 1115l-610 -871q81 -48 184 -48q142 0 257.5 85t181.5 235t66 335q0 158 -79 264zM536 325l611 872q-80 49 -185 49q-141 0 -257.5 -86t-183 -236.5t-66.5 -332.5q0 -160 81 -266zM1463 1438l-74 -106q92 -82 142.5 -201
t50.5 -259q0 -196 -59.5 -365.5t-163.5 -288.5t-249.5 -186.5t-311.5 -67.5q-175 0 -313 76l-71 -101l-100 70l71 101q-94 84 -145.5 202.5t-51.5 258.5q0 195 60 364.5t164.5 288.5t250.5 187t312 68q175 0 315 -77l69 98z" />
    <glyph glyph-name="oslashacute" unicode="&#x1ff;" horiz-adv-x="1267" 
d="M1258 1622l-357 -347h-246l323 347h280zM934 766l-449 -526q59 -54 150 -54q133 0 227.5 128.5t94.5 307.5q0 83 -23 144zM422 336l448 524q-56 48 -139 48q-144 0 -236.5 -126.5t-92.5 -321.5q0 -69 20 -124zM1212 1092l-106 -124q112 -126 112 -321q0 -189 -78 -342.5
t-215.5 -240t-308.5 -86.5q-167 0 -286 82l-102 -120l-89 65l110 128q-107 127 -107 314q0 191 77.5 344t215.5 239t311 86q161 0 278 -77l97 114z" />
    <glyph glyph-name="Adblgrave" unicode="&#x200;" horiz-adv-x="1457" 
d="M1053 0l-43 369h-535l-203 -369h-270l829 1443h283l201 -1443h-262zM904 1166l-325 -593h415l-72 593h-18zM914 1585h-229l-192 310h254zM1343 1585h-230l-191 310h254z" />
    <glyph glyph-name="adblgrave" unicode="&#x201;" horiz-adv-x="1174" 
d="M518 176q103 0 183 59t100 150l23 106l-250 -11q-111 -4 -174 -48t-63 -116q0 -61 50.5 -100.5t130.5 -39.5zM420 -18q-140 0 -234.5 86t-94.5 214q0 165 126.5 261t355.5 104l286 11l15 70q5 25 5 44q0 66 -53.5 104t-146.5 38q-78 0 -132 -29t-77 -83h-241
q35 145 162 229.5t307 84.5q193 0 310.5 -87t117.5 -229q0 -40 -9 -89l-151 -711h-241l29 138h-17q-50 -72 -135 -114t-182 -42zM621 1275h-206l-185 347h236zM1044 1275h-207l-184 347h236z" />
    <glyph glyph-name="Ainvertedbreve" unicode="&#x202;" horiz-adv-x="1457" 
d="M1053 0l-43 369h-535l-203 -369h-270l829 1443h283l201 -1443h-262zM904 1166l-325 -593h415l-72 593h-18zM1412 1601q0 -15 -1 -23h-184v18q0 65 -53.5 107t-133.5 42q-81 0 -136.5 -44.5t-73.5 -122.5h-187q24 145 133 233.5t270 88.5t263.5 -84t102.5 -215z" />
    <glyph glyph-name="ainvertedbreve" unicode="&#x203;" horiz-adv-x="1174" 
d="M518 176q103 0 183 59t100 150l23 106l-250 -11q-111 -4 -174 -48t-63 -116q0 -61 50.5 -100.5t130.5 -39.5zM420 -18q-140 0 -234.5 86t-94.5 214q0 165 126.5 261t355.5 104l286 11l15 70q5 25 5 44q0 66 -53.5 104t-146.5 38q-78 0 -132 -29t-77 -83h-241
q35 145 162 229.5t307 84.5q193 0 310.5 -87t117.5 -229q0 -40 -9 -89l-151 -711h-241l29 138h-17q-50 -72 -135 -114t-182 -42zM1168 1243h-185q2 14 2 30q0 71 -51.5 114t-136.5 43q-94 0 -151 -48t-71 -139h-188q15 156 127 249t290 93q163 0 265.5 -84.5t102.5 -213.5
q0 -24 -4 -44z" />
    <glyph glyph-name="Edblgrave" unicode="&#x204;" horiz-adv-x="1254" 
d="M824 1585h-229l-192 310h254zM1253 1585h-230l-191 310h254zM1089 223l-46 -223h-935l307 1443h935l-47 -223h-674l-83 -383h637l-44 -210h-637l-88 -404h675z" />
    <glyph glyph-name="edblgrave" unicode="&#x205;" horiz-adv-x="1219" 
d="M613 -22q-207 0 -338.5 124.5t-131.5 340.5q0 301 162.5 487t421.5 186q192 0 318.5 -123t127.5 -330q0 -77 -16 -173h-773q0 -6 -0.5 -19.5t-0.5 -19.5q0 -133 71 -202t175 -69q177 0 237 122h245q-37 -145 -170.5 -234.5t-327.5 -89.5zM413 658h517q3 9 3 40
q0 95 -58.5 157.5t-160.5 62.5q-108 0 -188.5 -70.5t-112.5 -189.5zM630 1275h-206l-185 347h236zM1053 1275h-207l-184 347h236z" />
    <glyph glyph-name="Einvertedbreve" unicode="&#x206;" horiz-adv-x="1254" 
d="M1089 223l-46 -223h-935l307 1443h935l-47 -223h-674l-83 -383h637l-44 -210h-637l-88 -404h675zM1322 1601q0 -15 -1 -23h-184v18q0 65 -53.5 107t-133.5 42q-81 0 -136.5 -44.5t-73.5 -122.5h-187q24 145 133 233.5t270 88.5t263.5 -84t102.5 -215z" />
    <glyph glyph-name="einvertedbreve" unicode="&#x207;" horiz-adv-x="1219" 
d="M613 -22q-207 0 -338.5 124.5t-131.5 340.5q0 301 162.5 487t421.5 186q192 0 318.5 -123t127.5 -330q0 -77 -16 -173h-773q0 -6 -0.5 -19.5t-0.5 -19.5q0 -133 71 -202t175 -69q177 0 237 122h245q-37 -145 -170.5 -234.5t-327.5 -89.5zM413 658h517q3 9 3 40
q0 95 -58.5 157.5t-160.5 62.5q-108 0 -188.5 -70.5t-112.5 -189.5zM1177 1243h-185q2 14 2 30q0 71 -51.5 114t-136.5 43q-94 0 -151 -48t-71 -139h-188q15 156 127 249t290 93q163 0 265.5 -84.5t102.5 -213.5q0 -24 -4 -44z" />
    <glyph glyph-name="Idblgrave" unicode="&#x208;" horiz-adv-x="616" 
d="M368 0h-260l307 1443h260zM488 1585h-229l-192 310h254zM917 1585h-230l-191 310h254z" />
    <glyph glyph-name="idblgrave" unicode="&#x209;" horiz-adv-x="569" 
d="M91 0l232 1094h248l-232 -1094h-248zM356 1275h-206l-185 347h236zM779 1275h-207l-184 347h236z" />
    <glyph glyph-name="Iinvertedbreve" unicode="&#x20a;" horiz-adv-x="616" 
d="M368 0h-260l307 1443h260zM986 1601q0 -15 -1 -23h-184v18q0 65 -53.5 107t-133.5 42q-81 0 -136.5 -44.5t-73.5 -122.5h-187q24 145 133 233.5t270 88.5t263.5 -84t102.5 -215z" />
    <glyph glyph-name="iinvertedbreve" unicode="&#x20b;" horiz-adv-x="569" 
d="M91 0l232 1094h248l-232 -1094h-248zM903 1243h-185q2 14 2 30q0 71 -51.5 114t-136.5 43q-94 0 -151 -48t-71 -139h-188q15 156 127 249t290 93q163 0 265.5 -84.5t102.5 -213.5q0 -24 -4 -44z" />
    <glyph glyph-name="Odblgrave" unicode="&#x20c;" horiz-adv-x="1603" 
d="M916 1584h-229l-192 310h254zM1345 1584h-230l-191 310h254zM798 -36q-178 0 -318 79t-216 217t-76 311q0 195 60 364.5t164.5 288.5t250.5 187t312 68q271 0 439 -171.5t168 -435.5q0 -196 -59.5 -365.5t-163.5 -288.5t-249.5 -186.5t-311.5 -67.5zM1316 851
q0 178 -97.5 286.5t-256.5 108.5q-141 0 -257.5 -86t-183 -236.5t-66.5 -332.5q0 -178 98 -286.5t258 -108.5q142 0 257.5 85t181.5 235t66 335z" />
    <glyph glyph-name="odblgrave" unicode="&#x20d;" horiz-adv-x="1260" 
d="M402 460q0 -125 63 -199.5t170 -74.5q133 0 227.5 128.5t94.5 307.5q0 134 -60 210t-166 76q-144 0 -236.5 -126.5t-92.5 -321.5zM616 -22q-212 0 -343 129.5t-131 339.5q0 191 77.5 344t215.5 239t311 86q212 0 342 -129t130 -340q0 -189 -78 -342.5t-215.5 -240
t-308.5 -86.5zM649 1275h-206l-185 347h236zM1072 1275h-207l-184 347h236z" />
    <glyph glyph-name="Oinvertedbreve" unicode="&#x20e;" horiz-adv-x="1603" 
d="M1414 1600q0 -15 -1 -23h-184v18q0 65 -53.5 107t-133.5 42q-81 0 -136.5 -44.5t-73.5 -122.5h-187q24 145 133 233.5t270 88.5t263.5 -84t102.5 -215zM798 -36q-178 0 -318 79t-216 217t-76 311q0 195 60 364.5t164.5 288.5t250.5 187t312 68q271 0 439 -171.5
t168 -435.5q0 -196 -59.5 -365.5t-163.5 -288.5t-249.5 -186.5t-311.5 -67.5zM1316 851q0 178 -97.5 286.5t-256.5 108.5q-141 0 -257.5 -86t-183 -236.5t-66.5 -332.5q0 -178 98 -286.5t258 -108.5q142 0 257.5 85t181.5 235t66 335z" />
    <glyph glyph-name="oinvertedbreve" unicode="&#x20f;" horiz-adv-x="1260" 
d="M402 460q0 -125 63 -199.5t170 -74.5q133 0 227.5 128.5t94.5 307.5q0 134 -60 210t-166 76q-144 0 -236.5 -126.5t-92.5 -321.5zM616 -22q-212 0 -343 129.5t-131 339.5q0 191 77.5 344t215.5 239t311 86q212 0 342 -129t130 -340q0 -189 -78 -342.5t-215.5 -240
t-308.5 -86.5zM1196 1243h-185q2 14 2 30q0 71 -51.5 114t-136.5 43q-94 0 -151 -48t-71 -139h-188q15 156 127 249t290 93q163 0 265.5 -84.5t102.5 -213.5q0 -24 -4 -44z" />
    <glyph glyph-name="Rdblgrave" unicode="&#x210;" horiz-adv-x="1389" 
d="M774 1585h-229l-192 310h254zM1203 1585h-230l-191 310h254zM108 0l307 1443h545q199 0 321.5 -110.5t122.5 -288.5q0 -164 -100 -293t-268 -178l202 -573h-278l-178 541h-298l-116 -541h-260zM631 1229l-105 -483h294q142 0 230.5 77t88.5 198q0 97 -60 152.5t-165 55.5
h-283z" />
    <glyph glyph-name="rdblgrave" unicode="&#x211;" horiz-adv-x="865" 
d="M73 0l233 1094h241l-30 -146h16q97 164 280 164q88 0 136 -20l-50 -231q-69 24 -156 24q-117 0 -188 -65.5t-100 -200.5l-132 -619h-250zM500 1275h-206l-185 347h236zM923 1275h-207l-184 347h236z" />
    <glyph glyph-name="Rinvertedbreve" unicode="&#x212;" horiz-adv-x="1389" 
d="M108 0l307 1443h545q199 0 321.5 -110.5t122.5 -288.5q0 -164 -100 -293t-268 -178l202 -573h-278l-178 541h-298l-116 -541h-260zM631 1229l-105 -483h294q142 0 230.5 77t88.5 198q0 97 -60 152.5t-165 55.5h-283zM1272 1601q0 -15 -1 -23h-184v18q0 65 -53.5 107
t-133.5 42q-81 0 -136.5 -44.5t-73.5 -122.5h-187q24 145 133 233.5t270 88.5t263.5 -84t102.5 -215z" />
    <glyph glyph-name="rinvertedbreve" unicode="&#x213;" horiz-adv-x="865" 
d="M73 0l233 1094h241l-30 -146h16q97 164 280 164q88 0 136 -20l-50 -231q-69 24 -156 24q-117 0 -188 -65.5t-100 -200.5l-132 -619h-250zM1047 1243h-185q2 14 2 30q0 71 -51.5 114t-136.5 43q-94 0 -151 -48t-71 -139h-188q15 156 127 249t290 93q163 0 265.5 -84.5
t102.5 -213.5q0 -24 -4 -44z" />
    <glyph glyph-name="Udblgrave" unicode="&#x214;" horiz-adv-x="1549" 
d="M954 1585h-229l-192 310h254zM1383 1585h-230l-191 310h254zM761 -36q-252 0 -396.5 129t-146.5 333q0 65 13 127l188 890h260l-185 -880q-14 -61 -12 -114q4 -118 82 -185t221 -67q140 0 237 81t129 227l199 938h261l-211 -994q-49 -231 -214 -358t-425 -127z" />
    <glyph glyph-name="udblgrave" unicode="&#x215;" horiz-adv-x="1252" 
d="M1267 1094l-232 -1094h-240l35 159h-17q-50 -85 -133.5 -133t-197.5 -48q-149 0 -240 88.5t-91 230.5q0 62 15 140l137 657h250l-131 -617q-11 -59 -11 -99q0 -183 187 -183q108 0 183 69t99 185l138 645h249zM689 1275h-206l-185 347h236zM1112 1275h-207l-184 347h236z
" />
    <glyph glyph-name="Uinvertedbreve" unicode="&#x216;" horiz-adv-x="1549" 
d="M761 -36q-252 0 -396.5 129t-146.5 333q0 65 13 127l188 890h260l-185 -880q-14 -61 -12 -114q4 -118 82 -185t221 -67q140 0 237 81t129 227l199 938h261l-211 -994q-49 -231 -214 -358t-425 -127zM1452 1601q0 -15 -1 -23h-184v18q0 65 -53.5 107t-133.5 42
q-81 0 -136.5 -44.5t-73.5 -122.5h-187q24 145 133 233.5t270 88.5t263.5 -84t102.5 -215z" />
    <glyph glyph-name="uinvertedbreve" unicode="&#x217;" horiz-adv-x="1252" 
d="M1267 1094l-232 -1094h-240l35 159h-17q-50 -85 -133.5 -133t-197.5 -48q-149 0 -240 88.5t-91 230.5q0 62 15 140l137 657h250l-131 -617q-11 -59 -11 -99q0 -183 187 -183q108 0 183 69t99 185l138 645h249zM1236 1243h-185q2 14 2 30q0 71 -51.5 114t-136.5 43
q-94 0 -151 -48t-71 -139h-188q15 156 127 249t290 93q163 0 265.5 -84.5t102.5 -213.5q0 -24 -4 -44z" />
    <glyph glyph-name="Scommaaccent" unicode="&#x218;" horiz-adv-x="1331" 
d="M111 407h252q19 -103 109 -165.5t218 -62.5q131 0 213 59t82 154q0 74 -53.5 123t-179.5 90l-145 47q-156 51 -241 151.5t-85 234.5q0 190 155.5 315.5t391.5 125.5q225 0 373.5 -122t159.5 -315h-247q-19 102 -99.5 162t-198.5 60q-117 0 -193.5 -56t-76.5 -142
q0 -67 50 -115.5t157 -84.5l142 -47q182 -60 268 -155t86 -236q0 -208 -160.5 -336t-418.5 -128q-238 0 -389 119t-170 324zM589 -512h-225l176 364h252z" />
    <glyph glyph-name="scommaaccent" unicode="&#x219;" horiz-adv-x="1114" 
d="M88 307h243q15 -63 74.5 -102t147.5 -39q94 0 152.5 37.5t58.5 97.5q0 41 -28 70.5t-93 50.5l-170 57q-130 45 -193 115.5t-63 177.5q0 154 122 249t316 95q188 0 305 -86t132 -230h-232q-13 59 -68.5 93t-138.5 34q-85 0 -140 -36.5t-55 -93.5q0 -41 32.5 -70.5
t100.5 -52.5l167 -57q134 -45 195 -114t61 -176q0 -155 -129.5 -252t-334.5 -97q-199 0 -326.5 91t-135.5 238zM443 -512h-225l176 364h252z" />
    <glyph glyph-name="Tcommaaccent" unicode="&#x21a;" horiz-adv-x="1333" 
d="M505 -512h-225l176 364h252zM725 0h-260l260 1220h-443l46 223h1147l-46 -223h-444z" />
    <glyph glyph-name="tcommaaccent" unicode="&#x21b;" horiz-adv-x="809" 
d="M300 -512h-225l176 364h252zM509 -5q-133 0 -213 59.5t-80 168.5q0 42 11 95l123 571h-178l41 198h179l57 275h250l-59 -275h239l-43 -198h-237l-110 -515q-10 -43 -10 -76q0 -105 127 -105q44 0 82 5l-39 -192q-44 -11 -140 -11z" />
    <glyph glyph-name="Hcaron" unicode="&#x21e;" horiz-adv-x="1575" 
d="M1328 0h-262l134 623h-699l-134 -623h-259l307 1443h260l-128 -597h699l128 597h261zM937 1585l-186 321h226l97 -189h17l176 189h250l-321 -321h-259z" />
    <glyph glyph-name="hcaron" unicode="&#x21f;" horiz-adv-x="1270" 
d="M88 0l322 1512h249l-125 -582h17q121 184 329 184q154 0 244.5 -91.5t90.5 -227.5q0 -60 -15 -129l-140 -666h-249l132 625q12 55 12 91q0 86 -53 137t-147 51q-107 0 -180.5 -68t-97.5 -178l-140 -658h-249zM445 1654l-186 321h226l97 -189h17l176 189h250l-321 -321
h-259z" />
    <glyph glyph-name="Adotaccent" unicode="&#x226;" horiz-adv-x="1457" 
d="M1053 0l-43 369h-535l-203 -369h-270l829 1443h283l201 -1443h-262zM904 1166l-325 -593h415l-72 593h-18zM1033 1578q-63 0 -104 41.5t-41 102.5q0 62 41 103.5t104 41.5q61 0 102 -41.5t41 -103.5q0 -61 -41 -102.5t-102 -41.5z" />
    <glyph glyph-name="adotaccent" unicode="&#x227;" horiz-adv-x="1174" 
d="M518 176q103 0 183 59t100 150l23 106l-250 -11q-111 -4 -174 -48t-63 -116q0 -61 50.5 -100.5t130.5 -39.5zM420 -18q-140 0 -234.5 86t-94.5 214q0 165 126.5 261t355.5 104l286 11l15 70q5 25 5 44q0 66 -53.5 104t-146.5 38q-78 0 -132 -29t-77 -83h-241
q35 145 162 229.5t307 84.5q193 0 310.5 -87t117.5 -229q0 -40 -9 -89l-151 -711h-241l29 138h-17q-50 -72 -135 -114t-182 -42zM783 1279q-62 0 -105.5 43.5t-43.5 107.5q0 63 43.5 106.5t105.5 43.5t105.5 -43.5t43.5 -106.5q0 -64 -43.5 -107.5t-105.5 -43.5z" />
    <glyph glyph-name="Ecedilla" unicode="&#x228;" horiz-adv-x="1253" 
d="M1303 1220h-674l-83 -383h637l-44 -210h-637l-88 -404h675l-46 -223h-372l-81 -127q166 -24 166 -162q0 -92 -71 -148.5t-186 -56.5q-103 0 -182 36l26 123q69 -27 144 -27q45 0 70.5 16.5t25.5 45.5q0 65 -122 65h-56l16 107l82 128h-395l307 1443h935z" />
    <glyph glyph-name="ecedilla" unicode="&#x229;" horiz-adv-x="1219" 
d="M413 658h517q3 9 3 40q0 95 -58.5 157.5t-160.5 62.5q-108 0 -188.5 -70.5t-112.5 -189.5zM1157 490h-773q0 -6 -0.5 -19.5t-0.5 -19.5q0 -133 71 -202t175 -69q177 0 237 122h245q-33 -130 -144.5 -216.5t-277.5 -103.5l-69 -109q166 -24 166 -162q0 -92 -71 -148.5
t-186 -56.5q-103 0 -182 36l26 123q69 -27 144 -27q45 0 70.5 16.5t25.5 45.5q0 65 -122 65h-56l16 107l72 113q-172 26 -276 146.5t-104 311.5q0 301 162.5 487t421.5 186q192 0 318.5 -123t127.5 -330q0 -77 -16 -173z" />
    <glyph glyph-name="Odieresismacron" unicode="&#x22a;" horiz-adv-x="1603" 
d="M798 -36q-178 0 -318 79t-216 217t-76 311q0 195 60 364.5t164.5 288.5t250.5 187t312 68q271 0 439 -171.5t168 -435.5q0 -196 -59.5 -365.5t-163.5 -288.5t-249.5 -186.5t-311.5 -67.5zM1316 851q0 178 -97.5 286.5t-256.5 108.5q-141 0 -257.5 -86t-183 -236.5
t-66.5 -332.5q0 -178 98 -286.5t258 -108.5q142 0 257.5 85t181.5 235t66 335zM726 1972l33 154h719l-33 -154h-719zM811 1577q-60 0 -100 39.5t-40 98.5t40 98.5t100 39.5t100 -39.5t40 -98.5t-40 -98.5t-100 -39.5zM1256 1577q-60 0 -100 39.5t-40 98.5t40 98.5t100 39.5
t100 -39.5t40 -98.5t-40 -98.5t-100 -39.5z" />
    <glyph glyph-name="odieresismacron" unicode="&#x22b;" horiz-adv-x="1260" 
d="M584 1243q-58 0 -96.5 38.5t-38.5 95.5t38.5 96t96.5 39t97 -39t39 -96t-39 -95.5t-97 -38.5zM1013 1243q-58 0 -97 38.5t-39 95.5t39 96t97 39t96.5 -39t38.5 -96t-38.5 -95.5t-96.5 -38.5zM1214 1657h-712l34 164h713zM402 460q0 -125 63 -199.5t170 -74.5
q133 0 227.5 128.5t94.5 307.5q0 134 -60 210t-166 76q-144 0 -236.5 -126.5t-92.5 -321.5zM616 -22q-212 0 -343 129.5t-131 339.5q0 191 77.5 344t215.5 239t311 86q212 0 342 -129t130 -340q0 -189 -78 -342.5t-215.5 -240t-308.5 -86.5z" />
    <glyph glyph-name="Otildemacron" unicode="&#x22c;" horiz-adv-x="1603" 
d="M1444 1966h-719l33 160h719zM1173 1575q-39 0 -74 13t-60 31.5t-47.5 37t-45.5 31.5t-45 13q-81 0 -104 -96h-166q17 119 91 187t171 68q48 0 90.5 -19.5t68.5 -43t57 -43t57 -19.5q80 0 103 96h167q-18 -120 -92 -188t-171 -68zM798 -36q-178 0 -318 79t-216 217
t-76 311q0 195 60 364.5t164.5 288.5t250.5 187t312 68q271 0 439 -171.5t168 -435.5q0 -196 -59.5 -365.5t-163.5 -288.5t-249.5 -186.5t-311.5 -67.5zM1316 851q0 178 -97.5 286.5t-256.5 108.5q-141 0 -257.5 -86t-183 -236.5t-66.5 -332.5q0 -178 98 -286.5t258 -108.5
q142 0 257.5 85t181.5 235t66 335z" />
    <glyph glyph-name="otildemacron" unicode="&#x22d;" horiz-adv-x="1260" 
d="M967 1235q-47 0 -87.5 17.5t-67 43t-49.5 51t-47.5 43t-48.5 17.5q-81 0 -102 -130h-169q16 134 90 211.5t180 77.5q47 0 86.5 -17.5t66 -43t49.5 -50.5t47.5 -42.5t48.5 -17.5q82 0 103 129h169q-16 -133 -90 -211t-179 -78zM1206 1660h-712l34 164h713zM402 460
q0 -125 63 -199.5t170 -74.5q133 0 227.5 128.5t94.5 307.5q0 134 -60 210t-166 76q-144 0 -236.5 -126.5t-92.5 -321.5zM616 -22q-212 0 -343 129.5t-131 339.5q0 191 77.5 344t215.5 239t311 86q212 0 342 -129t130 -340q0 -189 -78 -342.5t-215.5 -240t-308.5 -86.5z" />
    <glyph glyph-name="Odotaccent" unicode="&#x22e;" horiz-adv-x="1603" 
d="M1035 1577q-63 0 -104 41.5t-41 102.5q0 62 41 103.5t104 41.5q61 0 102 -41.5t41 -103.5q0 -61 -41 -102.5t-102 -41.5zM798 -36q-178 0 -318 79t-216 217t-76 311q0 195 60 364.5t164.5 288.5t250.5 187t312 68q271 0 439 -171.5t168 -435.5q0 -196 -59.5 -365.5
t-163.5 -288.5t-249.5 -186.5t-311.5 -67.5zM1316 851q0 178 -97.5 286.5t-256.5 108.5q-141 0 -257.5 -86t-183 -236.5t-66.5 -332.5q0 -178 98 -286.5t258 -108.5q142 0 257.5 85t181.5 235t66 335z" />
    <glyph glyph-name="odotaccent" unicode="&#x22f;" horiz-adv-x="1260" 
d="M811 1279q-62 0 -105.5 43.5t-43.5 107.5q0 63 43.5 106.5t105.5 43.5t105.5 -43.5t43.5 -106.5q0 -64 -43.5 -107.5t-105.5 -43.5zM402 460q0 -125 63 -199.5t170 -74.5q133 0 227.5 128.5t94.5 307.5q0 134 -60 210t-166 76q-144 0 -236.5 -126.5t-92.5 -321.5z
M616 -22q-212 0 -343 129.5t-131 339.5q0 191 77.5 344t215.5 239t311 86q212 0 342 -129t130 -340q0 -189 -78 -342.5t-215.5 -240t-308.5 -86.5z" />
    <glyph glyph-name="Odotaccentmacron" unicode="&#x230;" horiz-adv-x="1603" 
d="M1445 1972h-719l33 154h719zM1032 1575q-61 0 -102 39.5t-41 98.5t41 98.5t102 39.5t101.5 -39.5t40.5 -98.5t-40.5 -98.5t-101.5 -39.5zM798 -36q-178 0 -318 79t-216 217t-76 311q0 195 60 364.5t164.5 288.5t250.5 187t312 68q271 0 439 -171.5t168 -435.5
q0 -196 -59.5 -365.5t-163.5 -288.5t-249.5 -186.5t-311.5 -67.5zM1316 851q0 178 -97.5 286.5t-256.5 108.5q-141 0 -257.5 -86t-183 -236.5t-66.5 -332.5q0 -178 98 -286.5t258 -108.5q142 0 257.5 85t181.5 235t66 335z" />
    <glyph glyph-name="odotaccentmacron" unicode="&#x231;" horiz-adv-x="1260" 
d="M402 460q0 -125 63 -199.5t170 -74.5q133 0 227.5 128.5t94.5 307.5q0 134 -60 210t-166 76q-144 0 -236.5 -126.5t-92.5 -321.5zM616 -22q-212 0 -343 129.5t-131 339.5q0 191 77.5 344t215.5 239t311 86q212 0 342 -129t130 -340q0 -189 -78 -342.5t-215.5 -240
t-308.5 -86.5zM798 1243q-60 0 -99.5 39.5t-39.5 98.5q0 60 39.5 99.5t99.5 39.5t99.5 -39.5t39.5 -99.5q0 -59 -39.5 -98.5t-99.5 -39.5zM1214 1657h-712l34 164h713z" />
    <glyph glyph-name="Ymacron" unicode="&#x232;" horiz-adv-x="1412" 
d="M768 0h-261l121 564l-319 879h268l223 -622h17l476 622h285l-695 -896zM1341 1628h-720l35 164h719z" />
    <glyph glyph-name="ymacron" unicode="&#x233;" horiz-adv-x="1173" 
d="M141 -399q-25 0 -73 4t-58 6l41 200q37 -8 90 -8q68 0 119 33.5t90 110.5l28 54l-155 1093h251l87 -835h17l430 835h267l-650 -1163q-101 -185 -210 -257.5t-274 -72.5zM1148 1305h-712l34 164h713z" />
    <glyph glyph-name="dotlessj" unicode="&#x237;" horiz-adv-x="569" 
d="M572 1094l-247 -1159q-64 -309 -382 -309q-65 0 -119 10l44 199q27 -5 61 -5q67 0 103 30.5t52 103.5l240 1130h248z" />
    <glyph glyph-name="quoteright" unicode="&#x2bc;" horiz-adv-x="634" 
d="M468 857h-217l242 586h241z" />
    <glyph glyph-name="quoteright" unicode="&#x2019;" horiz-adv-x="634" 
d="M468 857h-217l242 586h241z" />
    <glyph glyph-name="circumflex" unicode="&#x2c6;" horiz-adv-x="1079" 
d="M937 1591l204 -348h-227l-113 215h-18l-204 -215h-252l352 348h258z" />
    <glyph glyph-name="caron" unicode="&#x2c7;" horiz-adv-x="1079" 
d="M863 1243h-258l-204 348h226l113 -215h17l205 215h253z" />
    <glyph glyph-name="breve" unicode="&#x2d8;" horiz-adv-x="1080" 
d="M427 1585h186q-2 -16 -2 -30q0 -71 51.5 -114t136.5 -43q93 0 150 48t72 139h188q-16 -156 -127.5 -249t-290.5 -93q-168 0 -267.5 84t-99.5 214q0 21 3 44z" />
    <glyph glyph-name="dotaccent" unicode="&#x2d9;" horiz-adv-x="1079" 
d="M774 1279q-62 0 -105.5 43.5t-43.5 107.5q0 63 43.5 106.5t105.5 43.5t105.5 -43.5t43.5 -106.5q0 -64 -43.5 -107.5t-105.5 -43.5z" />
    <glyph glyph-name="ring" unicode="&#x2da;" horiz-adv-x="1080" 
d="M785 1243q-102 0 -171.5 67.5t-69.5 168.5t69.5 168t171.5 67t171 -67t69 -168t-69 -168.5t-171 -67.5zM784 1368q49 0 80.5 31.5t31.5 78.5q0 48 -32 79.5t-80 31.5t-79.5 -32t-31.5 -79t31.5 -78.5t79.5 -31.5z" />
    <glyph glyph-name="ogonek" unicode="&#x2db;" horiz-adv-x="1079" 
d="M606 -288l-31 -148q-31 -11 -93 -11q-114 0 -180 54t-66 146q0 87 66.5 174t176.5 136l149 -23q-89 -50 -141 -114t-52 -122q0 -47 33.5 -71t93.5 -24q30 0 44 3z" />
    <glyph glyph-name="tilde" unicode="&#x2dc;" horiz-adv-x="1080" 
d="M935 1256q-47 0 -87.5 17.5t-67 43t-49.5 51t-47.5 43t-48.5 17.5q-81 0 -102 -130h-169q16 134 90 211.5t180 77.5q47 0 86.5 -17.5t66 -42.5t49.5 -50.5t47.5 -43t48.5 -17.5q82 0 103 129h169q-16 -133 -90 -211t-179 -78z" />
    <glyph glyph-name="hungarumlaut" unicode="&#x2dd;" horiz-adv-x="1079" 
d="M717 1275l301 347h242l-329 -347h-214zM294 1275l301 347h242l-329 -347h-214z" />
    <glyph glyph-name="gravecmb" unicode="&#x300;" 
d="M293 1275h-234l-209 347h268z" />
    <glyph glyph-name="acutecmb" unicode="&#x301;" 
d="M74 1275l323 347h280l-357 -347h-246z" />
    <glyph glyph-name="circumflexcmb" unicode="&#x302;" 
d="M385 1591l204 -348h-227l-113 215h-18l-204 -215h-252l352 348h258z" />
    <glyph glyph-name="tildecmb" unicode="&#x303;" 
d="M392 1235q-47 0 -87.5 17.5t-67 43t-49.5 51t-47.5 43t-48.5 17.5q-81 0 -102 -130h-169q16 134 90 211.5t180 77.5q47 0 86.5 -17.5t66 -43t49.5 -50.5t47.5 -42.5t48.5 -17.5q82 0 103 129h169q-16 -133 -90 -211t-179 -78z" />
    <glyph glyph-name="macroncmb" unicode="&#x304;" 
d="M563 1305h-712l34 164h713z" />
    <glyph glyph-name="brevecmb" unicode="&#x306;" 
d="M-147 1585h186q-2 -16 -2 -30q0 -71 51.5 -114t136.5 -43q93 0 150 48t72 139h188q-16 -156 -127.5 -249t-290.5 -93q-168 0 -267.5 84t-99.5 214q0 21 3 44z" />
    <glyph glyph-name="dotaccentcmb" unicode="&#x307;" 
d="M234 1279q-62 0 -105.5 43.5t-43.5 107.5q0 63 43.5 106.5t105.5 43.5t105.5 -43.5t43.5 -106.5q0 -64 -43.5 -107.5t-105.5 -43.5z" />
    <glyph glyph-name="dieresiscmb" unicode="&#x308;" 
d="M1 1242q-61 0 -102 40.5t-41 100.5t41 100.5t102 40.5t102 -40.5t41 -100.5t-41 -100.5t-102 -40.5zM446 1242q-61 0 -102 40.5t-41 100.5t41 100.5t102 40.5t102 -40.5t41 -100.5t-41 -100.5t-102 -40.5z" />
    <glyph glyph-name="hookabovecmb" unicode="&#x309;" 
d="M101 1496l29 135q52 16 110 16q104 0 168.5 -48.5t64.5 -132.5q0 -88 -66.5 -160.5t-173.5 -102.5l-63 120q62 15 96 46.5t34 71.5q0 68 -101 68q-56 0 -98 -13z" />
    <glyph glyph-name="ringcmb" unicode="&#x30a;" 
d="M245 1243q-102 0 -171.5 67.5t-69.5 168.5t69.5 168t171.5 67t171 -67t69 -168t-69 -168.5t-171 -67.5zM244 1368q49 0 80.5 31.5t31.5 78.5q0 48 -32 79.5t-80 31.5t-79.5 -32t-31.5 -79t31.5 -78.5t79.5 -31.5z" />
    <glyph glyph-name="hungarumlautcmb" unicode="&#x30b;" 
d="M303 1275l301 347h242l-329 -347h-214zM-120 1275l301 347h242l-329 -347h-214z" />
    <glyph glyph-name="caroncmb" unicode="&#x30c;" 
d="M337 1243h-258l-204 348h226l113 -215h17l205 215h253z" />
    <glyph glyph-name="dblgravecmb" unicode="&#x30f;" 
d="M72 1275h-206l-185 347h236zM495 1275h-207l-184 347h236z" />
    <glyph glyph-name="invertedbrevecmb" unicode="&#x311;" 
d="M619 1243h-185q2 14 2 30q0 71 -51.5 114t-136.5 43q-94 0 -151 -48t-71 -139h-188q15 156 127 249t290 93q163 0 265.5 -84.5t102.5 -213.5q0 -24 -4 -44z" />
    <glyph glyph-name="horncmb" unicode="&#x31b;" 
d="M-42 1023l37 163q25 0 37 1q40 4 61 25.5t29 63.5l28 147h204l-36 -188q-20 -110 -90 -167.5t-171 -57.5q-71 0 -99 13z" />
    <glyph glyph-name="dotbelowcmb" unicode="&#x323;" 
d="M-130 -413q-63 0 -103 38t-40 95t40 95t103 38t103.5 -38t40.5 -95t-40.5 -95t-103.5 -38z" />
    <glyph glyph-name="dieresisbelowcmb" unicode="&#x324;" 
d="M-355 -432q-63 0 -103.5 38t-40.5 95t40.5 94.5t103.5 37.5t103 -37.5t40 -94.5t-40 -95t-103 -38zM89 -432q-63 0 -103.5 38t-40.5 95t40.5 94.5t103.5 37.5t103 -37.5t40 -94.5t-40 -95t-103 -38z" />
    <glyph glyph-name="ringbelowcmb" unicode="&#x325;" 
d="M-140 -571q-102 0 -171.5 67.5t-69.5 168.5t69.5 168t171.5 67t171 -67t69 -168t-69 -168.5t-171 -67.5zM-141 -446q49 0 80.5 31.5t31.5 78.5q0 48 -32 79.5t-80 31.5t-79.5 -32t-31.5 -79t31.5 -78.5t79.5 -31.5z" />
    <glyph glyph-name="commabelowcmb" unicode="&#x326;" 
d="M-161 -512h-225l176 364h252z" />
    <glyph glyph-name="cedillacmb" unicode="&#x327;" 
d="M-246 -235l16 107l104 163h168l-103 -162q166 -24 166 -162q0 -92 -71 -148.5t-186 -56.5q-103 0 -182 36l26 123q69 -27 144 -27q45 0 70.5 16.5t25.5 45.5q0 65 -122 65h-56z" />
    <glyph glyph-name="ogonekcmb" unicode="&#x328;" 
d="M15 -290l-31 -148q-31 -11 -93 -11q-114 0 -180 54t-66 146q0 87 66.5 174t176.5 136l149 -23q-89 -50 -141 -114t-52 -122q0 -47 33.5 -71t93.5 -24q30 0 44 3z" />
    <glyph glyph-name="circumflexbelowcmb" unicode="&#x32d;" 
d="M26 -148l213 -284h-242l-114 164h-17l-189 -164h-252l341 284h260z" />
    <glyph glyph-name="brevebelowcmb" unicode="&#x32e;" 
d="M70 -120h187q-24 -143 -133 -227.5t-268 -84.5q-161 0 -264 84t-103 214v14h187q4 -71 54.5 -114t130.5 -43t135 41.5t74 115.5z" />
    <glyph glyph-name="tildebelowcmb" unicode="&#x330;" 
d="M27 -431q-45 0 -84.5 15t-66.5 37t-51.5 44t-50 37t-51.5 15q-84 0 -104 -110h-166q19 129 91 198t174 69q45 0 84 -15t66.5 -37t51.5 -44t50 -37t52 -15q86 0 104 113h166q-19 -131 -91 -200.5t-174 -69.5z" />
    <glyph glyph-name="macronbelowcmb" unicode="&#x331;" 
d="M210 -382h-720l35 164h719z" />
    <glyph glyph-name="greekquestionmark" unicode="&#x37e;" horiz-adv-x="674" 
d="M185 -381h-203l215 612h257zM437 729q-69 0 -114.5 45t-45.5 109q0 68 45 114.5t115 46.5t115 -45t45 -109q0 -68 -45 -114.5t-115 -46.5z" />
    <glyph glyph-name="tonosgreek" unicode="&#x384;" horiz-adv-x="938" 
d="M707 1265h-215l163 364h265z" />
    <glyph glyph-name="dieresistonosgreek" unicode="&#x385;" horiz-adv-x="1414" 
d="M976 1265h-194l101 364h246zM574 1265q-55 0 -90.5 35t-35.5 88q0 62 41.5 103.5t107.5 41.5q55 0 90 -34.5t35 -87.5q0 -61 -41.5 -103.5t-106.5 -42.5zM1264 1265q-55 0 -90 35t-35 88q0 62 41.5 103.5t106.5 41.5q55 0 90.5 -34.5t35.5 -87.5q0 -61 -42 -103.5
t-107 -42.5z" />
    <glyph glyph-name="Alphatonosgreek" unicode="&#x386;" horiz-adv-x="1511" 
d="M1108 0l-43 369h-535l-203 -369h-270l829 1443h283l201 -1443h-262zM959 1166l-325 -593h415l-72 593h-18zM448 1079h-215l163 364h265z" />
    <glyph glyph-name="anoteleia" unicode="&#x387;" horiz-adv-x="689" 
d="M473 763q-75 0 -121.5 46t-46.5 116q0 74 46 121.5t122 47.5q75 0 121 -46.5t46 -115.5q0 -74 -45.5 -121.5t-121.5 -47.5z" />
    <glyph glyph-name="Epsilontonosgreek" unicode="&#x388;" horiz-adv-x="1688" 
d="M466 1079h-215l163 364h265zM1523 223l-46 -223h-935l307 1443h935l-47 -223h-674l-83 -383h637l-44 -210h-637l-88 -404h675z" />
    <glyph glyph-name="Etatonosgreek" unicode="&#x389;" horiz-adv-x="2008" 
d="M466 1079h-215l163 364h265zM1762 0h-262l134 623h-699l-134 -623h-259l307 1443h260l-128 -597h699l128 597h261z" />
    <glyph glyph-name="Iotatonosgreek" unicode="&#x38a;" horiz-adv-x="1049" 
d="M802 0h-260l307 1443h260zM466 1079h-215l163 364h265z" />
    <glyph glyph-name="Omicrontonosgreek" unicode="&#x38c;" horiz-adv-x="1933" 
d="M1128 -36q-178 0 -318 79t-216 217t-76 311q0 195 60 364.5t164.5 288.5t250.5 187t312 68q271 0 439 -171.5t168 -435.5q0 -196 -59.5 -365.5t-163.5 -288.5t-249.5 -186.5t-311.5 -67.5zM1646 851q0 178 -97.5 286.5t-256.5 108.5q-141 0 -257.5 -86t-183 -236.5
t-66.5 -332.5q0 -178 98 -286.5t258 -108.5q142 0 257.5 85t181.5 235t66 335zM466 1079h-215l163 364h265z" />
    <glyph glyph-name="Upsilontonosgreek" unicode="&#x38e;" horiz-adv-x="1842" 
d="M459 1079h-215l163 364h265zM1198 0h-261l121 564l-319 879h268l223 -622h17l476 622h285l-695 -896z" />
    <glyph glyph-name="Omegatonosgreek" unicode="&#x38f;" horiz-adv-x="1990" 
d="M1243 0l57 273q187 98 285 254t98 356q0 169 -98.5 267.5t-271.5 98.5q-222 0 -357.5 -153.5t-135.5 -404.5q0 -135 60.5 -242.5t176.5 -175.5l-57 -273h-558l45 216h296l4 19q-108 74 -166.5 194.5t-58.5 270.5q0 229 98.5 406.5t276 275t405.5 97.5q278 0 442.5 -155.5
t164.5 -413.5q0 -208 -105.5 -392.5t-285.5 -282.5l-4 -19h302l-45 -216h-568zM466 1079h-215l163 364h265z" />
    <glyph glyph-name="iotadieresistonosgreek" unicode="&#x390;" horiz-adv-x="652" 
d="M546 1094l-154 -722q-10 -40 -10 -73q0 -103 126 -103q56 0 85 4l-41 -196q-42 -9 -139 -9q-143 0 -218.5 58.5t-75.5 169.5q0 45 11 94l167 777h249zM548 1265h-194l101 364h246zM146 1265q-55 0 -90.5 35t-35.5 88q0 62 41.5 103.5t107.5 41.5q55 0 90 -34.5t35 -87.5
q0 -61 -41.5 -103.5t-106.5 -42.5zM836 1265q-55 0 -90 35t-35 88q0 62 41.5 103.5t106.5 41.5q55 0 90.5 -34.5t35.5 -87.5q0 -61 -42 -103.5t-107 -42.5z" />
    <glyph glyph-name="Alphagreek" unicode="&#x391;" horiz-adv-x="1457" 
d="M1053 0l-43 369h-535l-203 -369h-270l829 1443h283l201 -1443h-262zM904 1166l-325 -593h415l-72 593h-18z" />
    <glyph glyph-name="Betagreek" unicode="&#x392;" horiz-adv-x="1393" 
d="M762 0h-654l307 1443h557q185 0 298 -86t113 -228q0 -140 -89.5 -242.5t-231.5 -125.5l-3 -18q118 -21 186.5 -97.5t68.5 -188.5q0 -200 -155.5 -328.5t-396.5 -128.5zM633 1242l-86 -402h260q139 0 226.5 65t87.5 168q0 169 -242 169h-246zM411 208h316q140 0 231.5 72
t91.5 181q0 95 -65.5 144t-191.5 49h-286z" />
    <glyph glyph-name="Gammagreek" unicode="&#x393;" horiz-adv-x="1191" 
d="M368 0h-260l307 1443h901l-47 -223h-640z" />
    <glyph glyph-name="Deltagreek" unicode="&#x394;" horiz-adv-x="1432" 
d="M1267 0h-1242l33 158l760 1285h283l200 -1286zM897 1178l-535 -938l-4 -17h678l3 15l-131 940h-11z" />
    <glyph glyph-name="Deltagreek" unicode="&#x2206;" horiz-adv-x="1432" 
d="M1267 0h-1242l33 158l760 1285h283l200 -1286zM897 1178l-535 -938l-4 -17h678l3 15l-131 940h-11z" />
    <glyph glyph-name="Epsilongreek" unicode="&#x395;" horiz-adv-x="1254" 
d="M1089 223l-46 -223h-935l307 1443h935l-47 -223h-674l-83 -383h637l-44 -210h-637l-88 -404h675z" />
    <glyph glyph-name="Zetagreek" unicode="&#x396;" horiz-adv-x="1373" 
d="M69 0l37 176l963 1027l3 17h-722l46 223h1057l-37 -176l-961 -1027l-2 -17h758l-45 -223h-1097z" />
    <glyph glyph-name="Etagreek" unicode="&#x397;" horiz-adv-x="1575" 
d="M1328 0h-262l134 623h-699l-134 -623h-259l307 1443h260l-128 -597h699l128 597h261z" />
    <glyph glyph-name="Thetagreek" unicode="&#x398;" horiz-adv-x="1642" 
d="M1154 608h-546l46 219h545zM791 -36q-284 0 -443 160.5t-159 446.5q0 200 60 369t167.5 287.5t260.5 185t334 66.5q292 0 451 -160t159 -453q0 -197 -61 -365t-169.5 -286t-263.5 -184.5t-336 -66.5zM1358 846q0 198 -95 302.5t-278 104.5q-232 0 -383 -187.5
t-151 -474.5q0 -192 96.5 -296.5t274.5 -104.5q152 0 275 85t192 235t69 336z" />
    <glyph glyph-name="Iotagreek" unicode="&#x399;" horiz-adv-x="616" 
d="M368 0h-260l307 1443h260z" />
    <glyph glyph-name="Kappagreek" unicode="&#x39a;" horiz-adv-x="1416" 
d="M366 0h-258l307 1443h257l-141 -659h17l701 659h313l-682 -647l407 -796h-293l-325 639l-206 -190z" />
    <glyph glyph-name="Lambdagreek" unicode="&#x39b;" horiz-adv-x="1436" 
d="M894 1166l-606 -1166h-276l808 1443h283l182 -1443h-269l-105 1166h-17z" />
    <glyph glyph-name="Mugreek" unicode="&#x39c;" horiz-adv-x="1847" 
d="M350 0h-242l307 1443h294l207 -1051h17l659 1051h315l-307 -1443h-242l217 1015h-14l-604 -959h-184l-191 959h-15z" />
    <glyph glyph-name="Nugreek" unicode="&#x39d;" horiz-adv-x="1553" 
d="M361 0h-253l307 1443h212l498 -1011h18l217 1011h253l-307 -1443h-211l-501 1005h-17z" />
    <glyph glyph-name="Xigreek" unicode="&#x39e;" horiz-adv-x="1362" 
d="M380 1443h1077l-47 -230h-1078zM1196 622h-903l46 217h903zM121 230h1077l-47 -230h-1077z" />
    <glyph glyph-name="Omicrongreek" unicode="&#x39f;" horiz-adv-x="1603" 
d="M798 -36q-178 0 -318 79t-216 217t-76 311q0 195 60 364.5t164.5 288.5t250.5 187t312 68q271 0 439 -171.5t168 -435.5q0 -196 -59.5 -365.5t-163.5 -288.5t-249.5 -186.5t-311.5 -67.5zM1316 851q0 178 -97.5 286.5t-256.5 108.5q-141 0 -257.5 -86t-183 -236.5
t-66.5 -332.5q0 -178 98 -286.5t258 -108.5q142 0 257.5 85t181.5 235t66 335z" />
    <glyph glyph-name="Pigreek" unicode="&#x3a0;" horiz-adv-x="1555" 
d="M1308 0h-262l262 1220h-679l-262 -1220h-259l307 1443h1200z" />
    <glyph glyph-name="Rhogreek" unicode="&#x3a1;" horiz-adv-x="1343" 
d="M415 1443h520q200 0 325.5 -112.5t125.5 -298.5q0 -170 -78.5 -298t-215 -194.5t-312.5 -66.5h-310l-101 -473h-260zM631 1227l-117 -540h260q158 0 253.5 86.5t95.5 235.5q0 105 -68 161.5t-189 56.5h-235z" />
    <glyph glyph-name="Sigmagreek" unicode="&#x3a3;" horiz-adv-x="1364" 
d="M445 234l-2 -11h759l-46 -223h-1087l35 167l502 573l-243 517l38 186h1042l-46 -223h-718l-2 -11l204 -446l-10 -43z" />
    <glyph glyph-name="Taugreek" unicode="&#x3a4;" horiz-adv-x="1332" 
d="M725 0h-260l260 1220h-443l46 223h1147l-46 -223h-444z" />
    <glyph glyph-name="Upsilongreek" unicode="&#x3a5;" horiz-adv-x="1412" 
d="M768 0h-261l121 564l-319 879h268l223 -622h17l476 622h285l-695 -896z" />
    <glyph glyph-name="Phigreek" unicode="&#x3a6;" horiz-adv-x="1808" 
d="M693 -91l31 147q-260 29 -402 177.5t-142 382.5q0 157 58.5 294t164.5 237t260.5 160.5t339.5 67.5l32 149h246l-33 -152q259 -29 402 -177t143 -386q0 -157 -59 -293t-165 -236t-260.5 -160t-338.5 -67l-32 -144h-245zM769 272l189 887q-235 -11 -378 -155t-143 -376
q0 -156 86.5 -248t245.5 -108zM1014 269q238 12 380 156t142 376q0 155 -87 247.5t-245 107.5z" />
    <glyph glyph-name="Chigreek" unicode="&#x3a7;" horiz-adv-x="1456" 
d="M20 0l638 747l-314 696h291l225 -523h17l439 523h289l-640 -730l326 -713h-283l-237 522h-18l-448 -522h-285z" />
    <glyph glyph-name="Psigreek" unicode="&#x3a8;" horiz-adv-x="1751" 
d="M932 0h-251l68 318q-485 44 -485 433q0 62 13 127l119 565h251l-115 -545q-17 -77 -17 -130q0 -111 69.5 -166t210.5 -63l193 904h250l-194 -909q183 6 281.5 92t133.5 251l120 566h251l-123 -587q-57 -266 -221 -397t-487 -146z" />
    <glyph glyph-name="Omegagreek" unicode="&#x3a9;" horiz-adv-x="1640" 
d="M892 0l57 273q187 98 285 254t98 356q0 169 -98.5 267.5t-271.5 98.5q-222 0 -357.5 -153.5t-135.5 -404.5q0 -135 60.5 -242.5t176.5 -175.5l-57 -273h-558l45 216h296l4 19q-108 74 -166.5 194.5t-58.5 270.5q0 229 98.5 406.5t276 275t405.5 97.5q278 0 442.5 -155.5
t164.5 -413.5q0 -208 -105.5 -392.5t-285.5 -282.5l-4 -19h302l-45 -216h-568z" />
    <glyph glyph-name="Omegagreek" unicode="&#x2126;" horiz-adv-x="1640" 
d="M892 0l57 273q187 98 285 254t98 356q0 169 -98.5 267.5t-271.5 98.5q-222 0 -357.5 -153.5t-135.5 -404.5q0 -135 60.5 -242.5t176.5 -175.5l-57 -273h-558l45 216h296l4 19q-108 74 -166.5 194.5t-58.5 270.5q0 229 98.5 406.5t276 275t405.5 97.5q278 0 442.5 -155.5
t164.5 -413.5q0 -208 -105.5 -392.5t-285.5 -282.5l-4 -19h302l-45 -216h-568z" />
    <glyph glyph-name="Iotadieresisgreek" unicode="&#x3aa;" horiz-adv-x="614" 
d="M368 0h-260l307 1443h260zM382 1577q-61 0 -102 40.5t-41 100.5t41 100.5t102 40.5t102 -40.5t41 -100.5t-41 -100.5t-102 -40.5zM827 1577q-61 0 -102 40.5t-41 100.5t41 100.5t102 40.5t102 -40.5t41 -100.5t-41 -100.5t-102 -40.5z" />
    <glyph glyph-name="Upsilondieresisgreek" unicode="&#x3ab;" horiz-adv-x="1412" 
d="M768 0h-261l121 564l-319 879h268l223 -622h17l476 622h285l-695 -896zM778 1577q-61 0 -102 40.5t-41 100.5t41 100.5t102 40.5t102 -40.5t41 -100.5t-41 -100.5t-102 -40.5zM1223 1577q-61 0 -102 40.5t-41 100.5t41 100.5t102 40.5t102 -40.5t41 -100.5t-41 -100.5
t-102 -40.5z" />
    <glyph glyph-name="alphatonosgreek" unicode="&#x3ac;" horiz-adv-x="1328" 
d="M487 -18q-165 0 -265.5 118t-100.5 313q0 197 69.5 357.5t192 251t272.5 90.5q260 0 328 -223h17l44 205h242l-166 -778q-8 -32 -8 -59q0 -36 20.5 -51t66.5 -15q21 0 54 7l-41 -193q-52 -15 -117 -15q-121 0 -175 45t-54 147v11h-17q-51 -99 -147 -155t-215 -56z
M585 193q143 0 242 124.5t99 305.5q0 129 -61.5 203.5t-167.5 74.5q-138 0 -230 -128t-92 -320q0 -117 58 -188.5t152 -71.5zM855 1265h-215l163 364h265z" />
    <glyph glyph-name="epsilontonosgreek" unicode="&#x3ad;" horiz-adv-x="1169" 
d="M830 1265h-215l163 364h265zM548 -23q-203 0 -326 77t-123 221q0 104 66 177t178 101l4 17q-142 65 -142 201q0 159 133 251.5t353 92.5q455 0 488 -346h-249q-16 73 -74 107.5t-174 34.5q-106 0 -165 -40t-59 -103q0 -120 189 -120h153l-40 -194h-178q-105 0 -162.5 -38
t-57.5 -104q0 -62 56.5 -96.5t159.5 -34.5q111 0 193 44t114 124h256q-41 -169 -202 -270.5t-391 -101.5z" />
    <glyph glyph-name="etatonosgreek" unicode="&#x3ae;" horiz-adv-x="1336" 
d="M803 -364l210 991q9 42 9 85q0 87 -53 137.5t-141 50.5q-100 0 -175 -66t-100 -182l-140 -652h-249l165 775q8 40 8 59q0 37 -19.5 53t-64.5 16q-31 0 -56 -7l41 194q50 14 124 14q107 0 160 -40.5t66 -128.5l4 -27h18q120 204 343 204q145 0 237.5 -90t92.5 -239
q0 -53 -16 -128l-217 -1019h-247zM879 1265h-215l163 364h265z" />
    <glyph glyph-name="iotatonosgreek" unicode="&#x3af;" horiz-adv-x="652" 
d="M546 1094l-154 -722q-10 -40 -10 -73q0 -103 126 -103q56 0 85 4l-41 -196q-42 -9 -139 -9q-143 0 -218.5 58.5t-75.5 169.5q0 45 11 94l167 777h249zM561 1265h-215l163 364h265z" />
    <glyph glyph-name="upsilondieresistonosgreek" unicode="&#x3b0;" horiz-adv-x="1211" 
d="M815 1265h-194l101 364h246zM413 1265q-55 0 -90.5 35t-35.5 88q0 62 41.5 103.5t107.5 41.5q55 0 90 -34.5t35 -87.5q0 -61 -41.5 -103.5t-106.5 -42.5zM1103 1265q-55 0 -90 35t-35 88q0 62 41.5 103.5t106.5 41.5q55 0 90.5 -34.5t35.5 -87.5q0 -61 -42 -103.5
t-107 -42.5zM901 1094h241q30 -114 30 -283q0 -400 -166.5 -616.5t-456.5 -216.5q-194 0 -300.5 91t-106.5 256q0 68 19 166l127 603h238l-129 -612q-15 -71 -15 -131q1 -155 186 -155q172 0 266 160t94 451q0 166 -27 287z" />
    <glyph glyph-name="alphagreek" unicode="&#x3b1;" horiz-adv-x="1328" 
d="M487 -18q-165 0 -265.5 118t-100.5 313q0 197 69.5 357.5t192 251t272.5 90.5q260 0 328 -223h17l44 205h242l-166 -778q-8 -32 -8 -59q0 -36 20.5 -51t66.5 -15q21 0 54 7l-41 -193q-52 -15 -117 -15q-121 0 -175 45t-54 147v11h-17q-51 -99 -147 -155t-215 -56z
M585 193q143 0 242 124.5t99 305.5q0 129 -61.5 203.5t-167.5 74.5q-138 0 -230 -128t-92 -320q0 -117 58 -188.5t152 -71.5z" />
    <glyph glyph-name="betagreek" unicode="&#x3b2;" horiz-adv-x="1304" 
d="M294 1040q54 258 181 378.5t354 120.5q192 0 310.5 -96.5t118.5 -256.5q0 -122 -65.5 -213.5t-190.5 -140.5l-3 -18q253 -86 253 -334q0 -214 -148 -356t-371 -142q-271 0 -353 217h-17l-120 -563h-248zM620 711l41 197h84q123 0 196.5 67.5t73.5 178.5q0 83 -51.5 130.5
t-151.5 47.5q-104 0 -170 -66t-96 -206l-110 -510q-14 -67 -14 -103q0 -119 73.5 -186.5t199.5 -67.5q129 0 214 80.5t85 201.5q0 112 -72 174t-203 62h-99z" />
    <glyph glyph-name="gammagreek" unicode="&#x3b3;" horiz-adv-x="1167" 
d="M1201 1029q0 -221 -150.5 -476.5t-461.5 -589.5l-68 -320h-248l65 305l-141 1146h256l80 -866h19q410 478 410 807q0 45 -4 59h239q4 -20 4 -65z" />
    <glyph glyph-name="deltagreek" unicode="&#x3b4;" horiz-adv-x="1219" 
d="M575 -22q-215 0 -342.5 119t-127.5 321q0 222 129 380t349 190l5 19q-162 91 -162 231q0 139 113 220t307 81q119 0 225.5 -27t164.5 -73l-48 -189q-160 94 -341 94q-79 0 -121 -28t-42 -77q0 -40 29.5 -71.5t117.5 -81.5q193 -121 271.5 -233.5t78.5 -267.5
q0 -125 -47 -237t-128 -193.5t-193.5 -129t-237.5 -47.5zM590 173q142 0 236 117.5t94 295.5q0 119 -63 189t-170 70q-138 0 -231.5 -118t-93.5 -303q0 -116 61 -183.5t167 -67.5z" />
    <glyph glyph-name="epsilongreek" unicode="&#x3b5;" horiz-adv-x="1169" 
d="M548 -22q-203 0 -326 77t-123 221q0 104 66 177t178 101l4 17q-142 65 -142 201q0 159 133 251.5t353 92.5q455 0 488 -346h-249q-16 73 -74 107.5t-174 34.5q-106 0 -165 -40t-59 -103q0 -120 189 -120h153l-40 -194h-178q-105 0 -162.5 -38t-57.5 -104
q0 -62 56.5 -96.5t159.5 -34.5q111 0 193 44t114 124h256q-41 -169 -202 -270.5t-391 -101.5z" />
    <glyph glyph-name="zetagreek" unicode="&#x3b6;" horiz-adv-x="981" 
d="M731 -372l-172 66q55 65 79 114t24 97q0 49 -34 83t-124 74q-216 96 -305.5 202.5t-89.5 265.5q0 215 153 399t461 359l4 17h-415l45 212h769l10 -191q-372 -183 -572 -375t-200 -383q0 -101 51 -160t194 -123q173 -78 233.5 -144t60.5 -167q0 -87 -41.5 -170.5
t-130.5 -175.5z" />
    <glyph glyph-name="etagreek" unicode="&#x3b7;" horiz-adv-x="1338" 
d="M803 -364l210 991q9 42 9 85q0 87 -53 137.5t-141 50.5q-100 0 -175 -66t-100 -182l-140 -652h-249l165 775q8 40 8 59q0 37 -19.5 53t-64.5 16q-31 0 -56 -7l41 194q50 14 124 14q107 0 160 -40.5t66 -128.5l4 -27h18q120 204 343 204q145 0 237.5 -90t92.5 -239
q0 -53 -16 -128l-217 -1019h-247z" />
    <glyph glyph-name="thetagreek" unicode="&#x3b8;" horiz-adv-x="1275" 
d="M606 -22q-221 0 -336 134.5t-115 392.5q0 122 26 273q66 371 233 566t418 195q220 0 335 -134t115 -392q0 -120 -27 -274q-64 -372 -230.5 -566.5t-418.5 -194.5zM617 177q138 0 227.5 117.5t141.5 368.5h-570q-17 -114 -17 -187q0 -140 54.5 -219.5t163.5 -79.5z
M451 868h570q13 85 13 162q0 311 -221 311q-260 0 -362 -473z" />
    <glyph glyph-name="iotagreek" unicode="&#x3b9;" horiz-adv-x="654" 
d="M546 1094l-154 -722q-10 -40 -10 -73q0 -103 126 -103q56 0 85 4l-41 -196q-42 -9 -139 -9q-143 0 -218.5 58.5t-75.5 169.5q0 45 11 94l167 777h249z" />
    <glyph glyph-name="kappagreek" unicode="&#x3ba;" horiz-adv-x="1198" 
d="M1144 1104q67 0 112 -14l-40 -194q-37 7 -58 7q-37 0 -68 -16t-77 -62l-195 -192l276 -633h-245l-208 489l-272 -258l-48 -231h-246l232 1094h246l-109 -509h17l360 353q104 102 166.5 134t156.5 32z" />
    <glyph glyph-name="lambdagreek" unicode="&#x3bb;" horiz-adv-x="1167" 
d="M1082 188q23 0 53 6l-40 -189q-45 -15 -121 -15q-116 0 -170.5 53t-71.5 181l-60 457h-17l-410 -681h-270l652 1033l-13 89q-15 96 -34.5 140.5t-50.5 60t-93 15.5q-28 0 -57 -6l40 193q49 14 112 14q79 0 129 -17t86.5 -63.5t57.5 -120.5t38 -197l118 -836
q9 -67 35.5 -92t86.5 -25z" />
    <glyph glyph-name="nugreek" unicode="&#x3bd;" horiz-adv-x="1168" 
d="M1201 1029q0 -216 -141 -459t-436 -570h-292l-135 1094h256l80 -866h19q194 224 302 431t108 376q0 45 -4 59h239q4 -20 4 -65z" />
    <glyph glyph-name="xigreek" unicode="&#x3be;" horiz-adv-x="998" 
d="M722 -372l-172 66q56 65 79.5 113.5t23.5 96.5q0 49 -33.5 83.5t-125.5 74.5q-232 100 -320 185t-88 204q0 255 329 332l4 17q-159 69 -159 223q0 194 240 266l3 16h-199l44 212h742l10 -193l-152 -15q-438 -42 -438 -237q0 -79 80 -118.5t230 -39.5h127l-43 -205h-160
q-184 0 -289 -50.5t-105 -151.5q0 -63 53 -110.5t199 -112.5q169 -77 231 -142.5t62 -166.5q0 -88 -40.5 -169.5t-132.5 -177.5z" />
    <glyph glyph-name="omicrongreek" unicode="&#x3bf;" horiz-adv-x="1227" 
d="M597 -22q-208 0 -339.5 128.5t-131.5 344.5q0 135 43.5 256.5t122 212t194 143.5t252.5 53q205 0 331 -132t126 -331q0 -148 -46.5 -274.5t-127 -214t-190.5 -137t-234 -49.5zM610 186q131 0 228 126t97 311q0 129 -58 207t-163 78q-145 0 -236.5 -127.5t-91.5 -313.5
q0 -132 63.5 -206.5t160.5 -74.5z" />
    <glyph glyph-name="pigreek" unicode="&#x3c0;" horiz-adv-x="1459" 
d="M902 302l123 580h-367l-188 -882h-237l188 882h-235l44 212h1295l-44 -212h-218l-119 -553q-9 -49 -9 -64q0 -39 21.5 -56.5t72.5 -17.5q29 0 57 7l-41 -193q-47 -15 -126 -15q-117 0 -175 52t-58 147q0 37 16 113z" />
    <glyph glyph-name="rhogreek" unicode="&#x3c1;" horiz-adv-x="1270" 
d="M657 193q135 0 231 120t96 317q0 132 -61.5 205t-175.5 73q-145 0 -238 -127.5t-93 -331.5q0 -124 63.5 -190t177.5 -66zM770 1116q219 0 345.5 -128.5t126.5 -338.5q0 -184 -73 -337.5t-199.5 -241.5t-277.5 -88q-118 0 -205.5 60t-114.5 157h-18l-121 -563h-248
l192 899q65 306 210.5 443.5t382.5 137.5z" />
    <glyph glyph-name="sigmafinalgreek" unicode="&#x3c2;" horiz-adv-x="1150" 
d="M631 285q170 -76 232.5 -142.5t62.5 -168.5q0 -87 -42 -170.5t-131 -175.5l-172 66q55 65 79 114t24 97q0 49 -34 83t-125 74q-216 94 -305 203t-89 281q0 120 38.5 223t111 180.5t184.5 122t251 44.5q203 0 325.5 -112t128.5 -280h-238q-12 81 -72 132t-153 51
q-151 0 -233.5 -95t-82.5 -241q0 -102 53.5 -164t186.5 -122z" />
    <glyph glyph-name="sigmagreek" unicode="&#x3c3;" horiz-adv-x="1331" 
d="M591 -22q-213 0 -340 126t-127 337q0 182 72.5 329t214.5 235.5t329 88.5h661l-43 -212h-274l-4 -17q92 -95 92 -245q0 -173 -71 -318.5t-205.5 -234.5t-304.5 -89zM600 183q148 0 238 124.5t90 318.5q0 124 -52 189t-150 65q-151 0 -247.5 -124.5t-96.5 -319.5
q0 -123 56 -188t162 -65z" />
    <glyph glyph-name="taugreek" unicode="&#x3c4;" horiz-adv-x="1103" 
d="M847 200l-41 -196q-49 -9 -142 -9q-140 0 -217 57.5t-77 170.5q0 46 11 94l122 565h-351l45 212h975l-45 -212h-375l-110 -510q-9 -42 -9 -73q0 -103 127 -103q55 0 87 4z" />
    <glyph glyph-name="upsilongreek" unicode="&#x3c5;" horiz-adv-x="1212" 
d="M901 1094h241q30 -114 30 -283q0 -400 -166.5 -616.5t-456.5 -216.5q-194 0 -300.5 91t-106.5 256q0 68 19 166l127 603h238l-129 -612q-15 -71 -15 -131q1 -155 186 -155q172 0 266 160t94 451q0 166 -27 287z" />
    <glyph glyph-name="phigreek" unicode="&#x3c6;" horiz-adv-x="1575" 
d="M527 -364l74 347q-222 20 -352 146.5t-130 320.5q0 195 91.5 347t256 236.5t374.5 84.5l49 232h233l-51 -240q218 -19 347 -147t129 -322q0 -144 -53.5 -267.5t-147.5 -211t-227.5 -137t-288.5 -49.5l-71 -340h-233zM644 182l159 738q-199 -5 -319 -127t-120 -319
q0 -125 72.5 -200.5t207.5 -91.5zM867 173q200 8 318.5 129t118.5 317q0 123 -72.5 199.5t-204.5 92.5z" />
    <glyph glyph-name="chigreek" unicode="&#x3c7;" horiz-adv-x="1192" 
d="M911 -374q-98 0 -152 39.5t-83 129.5l-108 344h-17l-367 -503h-251l563 743l-134 411q-21 68 -48 90.5t-82 22.5q-22 0 -52 -6l40 193q54 14 122 14q96 0 148 -40t83 -138l105 -337h16l368 505h253l-561 -743l128 -406q23 -72 50 -94.5t85 -22.5q29 0 54 6l-42 -193
q-50 -15 -118 -15z" />
    <glyph glyph-name="psigreek" unicode="&#x3c8;" horiz-adv-x="1570" 
d="M747 -364h-236l73 341q-219 5 -331 92.5t-112 252.5q0 70 19 167l128 605h237l-127 -598q-17 -79 -17 -132q0 -85 58.5 -125t188.5 -44l248 1155h235l-248 -1159q423 9 423 608q0 175 -29 295h240q34 -104 34 -286q0 -199 -42.5 -352t-129 -261.5t-222.5 -165t-318 -56.5
z" />
    <glyph glyph-name="omegagreek" unicode="&#x3c9;" horiz-adv-x="1641" 
d="M1586 641q0 -185 -65 -337t-179 -239t-252 -87q-116 0 -181.5 53t-91.5 169h-18q-104 -222 -333 -222q-165 0 -254 104t-89 298q0 189 77 384.5t203 329.5h251q-135 -152 -210 -336t-75 -367q0 -93 38.5 -144t107.5 -51q79 0 131.5 52.5t74.5 152.5l83 380h230l-74 -351
q-8 -35 -8 -75q0 -76 37 -117.5t104 -41.5q112 0 180.5 124.5t68.5 329.5q0 250 -121 444h252q113 -176 113 -453z" />
    <glyph glyph-name="iotadieresisgreek" unicode="&#x3ca;" horiz-adv-x="652" 
d="M241 1242q-61 0 -102 40.5t-41 100.5t41 100.5t102 40.5t102 -40.5t41 -100.5t-41 -100.5t-102 -40.5zM686 1242q-61 0 -102 40.5t-41 100.5t41 100.5t102 40.5t102 -40.5t41 -100.5t-41 -100.5t-102 -40.5zM546 1094l-154 -722q-10 -40 -10 -73q0 -103 126 -103
q56 0 85 4l-41 -196q-42 -9 -139 -9q-143 0 -218.5 58.5t-75.5 169.5q0 45 11 94l167 777h249z" />
    <glyph glyph-name="upsilondieresisgreek" unicode="&#x3cb;" horiz-adv-x="1211" 
d="M539 1242q-61 0 -102 40.5t-41 100.5t41 100.5t102 40.5t102 -40.5t41 -100.5t-41 -100.5t-102 -40.5zM984 1242q-61 0 -102 40.5t-41 100.5t41 100.5t102 40.5t102 -40.5t41 -100.5t-41 -100.5t-102 -40.5zM901 1094h241q30 -114 30 -283q0 -400 -166.5 -616.5
t-456.5 -216.5q-194 0 -300.5 91t-106.5 256q0 68 19 166l127 603h238l-129 -612q-15 -71 -15 -131q1 -155 186 -155q172 0 266 160t94 451q0 166 -27 287z" />
    <glyph glyph-name="omicrontonosgreek" unicode="&#x3cc;" horiz-adv-x="1226" 
d="M597 -22q-208 0 -339.5 128.5t-131.5 344.5q0 135 43.5 256.5t122 212t194 143.5t252.5 53q205 0 331 -132t126 -331q0 -148 -46.5 -274.5t-127 -214t-190.5 -137t-234 -49.5zM610 186q131 0 228 126t97 311q0 129 -58 207t-163 78q-145 0 -236.5 -127.5t-91.5 -313.5
q0 -132 63.5 -206.5t160.5 -74.5zM850 1265h-215l163 364h265z" />
    <glyph glyph-name="upsilontonosgreek" unicode="&#x3cd;" horiz-adv-x="1211" 
d="M842 1265h-215l163 364h265zM901 1094h241q30 -114 30 -283q0 -400 -166.5 -616.5t-456.5 -216.5q-194 0 -300.5 91t-106.5 256q0 68 19 166l127 603h238l-129 -612q-15 -71 -15 -131q1 -155 186 -155q172 0 266 160t94 451q0 166 -27 287z" />
    <glyph glyph-name="omegatonosgreek" unicode="&#x3ce;" horiz-adv-x="1641" 
d="M1586 641q0 -185 -65 -337t-179 -239t-252 -87q-116 0 -181.5 53t-91.5 169h-18q-104 -222 -333 -222q-165 0 -254 104t-89 298q0 189 77 384.5t203 329.5h251q-135 -152 -210 -336t-75 -367q0 -93 38.5 -144t107.5 -51q79 0 131.5 52.5t74.5 152.5l83 380h230l-74 -351
q-8 -35 -8 -75q0 -76 37 -117.5t104 -41.5q112 0 180.5 124.5t68.5 329.5q0 250 -121 444h252q113 -176 113 -453zM1073 1264h-215l163 364h265z" />
    <glyph glyph-name="Iocyrillic" unicode="&#x401;" horiz-adv-x="1274" 
d="M728 1577q-61 0 -102 40.5t-41 100.5t41 100.5t102 40.5t102 -40.5t41 -100.5t-41 -100.5t-102 -40.5zM1173 1577q-61 0 -102 40.5t-41 100.5t41 100.5t102 40.5t102 -40.5t41 -100.5t-41 -100.5t-102 -40.5zM1099 223l-46 -223h-935l307 1443h935l-47 -223h-674
l-83 -383h637l-44 -210h-637l-88 -404h675z" />
    <glyph glyph-name="Djecyrillic" unicode="&#x402;" horiz-adv-x="1776" 
d="M1685 476q0 -109 -41.5 -205.5t-115 -168t-181 -113t-231.5 -41.5q-54 0 -95.5 4.5t-56.5 9.5l-15 4l45 214q36 -14 122 -14q134 0 218.5 82.5t84.5 203.5q0 104 -61 165t-182 61q-104 0 -197.5 -53t-143.5 -124l-107 -501h-261l261 1220h-437l46 223h1135l-47 -223h-437
l-95 -442h14q60 57 146.5 93t187.5 36q214 0 329 -118.5t115 -312.5z" />
    <glyph glyph-name="Gjecyrillic" unicode="&#x403;" horiz-adv-x="1204" 
d="M721 1574l354 310h282l-386 -310h-250zM379 0h-261l307 1443h911l-46 -223h-650z" />
    <glyph glyph-name="Ecyrillic" unicode="&#x404;" horiz-adv-x="1508" 
d="M1422 451q-64 -225 -240.5 -356t-417.5 -131q-300 0 -452 206t-95 568q21 163 84 299.5t160 234.5t229.5 152.5t287.5 54.5q149 0 274.5 -61t200.5 -173t77 -253v-21h-256q-6 127 -94 202t-223 75q-163 0 -288.5 -111.5t-175.5 -296.5h601l-44 -213h-588
q-18 -202 70.5 -317.5t258.5 -115.5q131 0 230 71t145 186h256z" />
    <glyph glyph-name="Dzecyrillic" unicode="&#x405;" horiz-adv-x="1351" 
d="M121 407h252q19 -103 109 -165.5t218 -62.5q131 0 213 59t82 154q0 74 -53.5 123t-179.5 90l-145 47q-156 51 -241 151.5t-85 234.5q0 190 155.5 315.5t391.5 125.5q225 0 373.5 -122t159.5 -315h-247q-19 102 -99.5 162t-198.5 60q-117 0 -193.5 -56t-76.5 -142
q0 -67 50 -115.5t157 -84.5l142 -47q182 -60 268 -155t86 -236q0 -208 -160.5 -336t-418.5 -128q-238 0 -389 119t-170 324z" />
    <glyph glyph-name="Icyrillic" unicode="&#x406;" horiz-adv-x="636" 
d="M378 0h-260l307 1443h260z" />
    <glyph glyph-name="Yicyrillic" unicode="&#x407;" horiz-adv-x="636" 
d="M378 0h-260l307 1443h260zM392 1577q-61 0 -102 40.5t-41 100.5t41 100.5t102 40.5t102 -40.5t41 -100.5t-41 -100.5t-102 -40.5zM837 1577q-61 0 -102 40.5t-41 100.5t41 100.5t102 40.5t102 -40.5t41 -100.5t-41 -100.5t-102 -40.5z" />
    <glyph glyph-name="Jecyrillic" unicode="&#x408;" horiz-adv-x="1204" 
d="M100 386h252v-6q2 -83 54 -131.5t141 -48.5q183 0 232 231l216 1012h257l-224 -1056q-43 -205 -170 -314t-327 -109q-197 0 -318.5 113t-113.5 289q0 13 1 20z" />
    <glyph glyph-name="Ljecyrillic" unicode="&#x409;" horiz-adv-x="2212" 
d="M598 561q-39 -145 -81.5 -244t-103.5 -176.5t-146 -114.5t-198 -37q-58 0 -92 12l48 231q28 -7 61 -7q103 0 166 90.5t109 261.5l231 866h948l-103 -480h233q219 0 350 -114.5t131 -311.5q0 -109 -43 -207t-118.5 -171t-187 -116t-241.5 -43h-588l261 1220h-456z
M1617 747h-224l-115 -533h272q145 0 241.5 84.5t96.5 209.5q0 118 -72.5 178.5t-198.5 60.5z" />
    <glyph glyph-name="Njecyrillic" unicode="&#x40a;" horiz-adv-x="2234" 
d="M1007 0l135 633h-629l-135 -633h-260l307 1443h261l-127 -590h629l126 590h260l-126 -591h256q209 0 334 -101t125 -271q0 -131 -68 -239.5t-198.5 -174.5t-300.5 -66h-589zM1312 214h275q142 0 227.5 67t85.5 172q0 93 -66 140t-180 47h-250z" />
    <glyph glyph-name="Tshecyrillic" unicode="&#x40b;" horiz-adv-x="1795" 
d="M1177 678q-101 0 -192.5 -50t-149.5 -127l-107 -501h-261l261 1220h-437l46 223h1135l-47 -223h-437l-95 -441h17q156 128 347 128q234 0 339.5 -147.5t55.5 -382.5l-81 -377h-260l81 381q30 138 -26 217.5t-189 79.5z" />
    <glyph glyph-name="Kjecyrillic" unicode="&#x40c;" horiz-adv-x="1420" 
d="M1459 1884l-386 -310h-250l354 310h282zM1572 1443l-778 -721l494 -722h-293l-438 622h-45l-133 -622h-261l307 1443h261l-132 -616h45l660 616h313z" />
    <glyph glyph-name="Ushortcyrillic" unicode="&#x40e;" horiz-adv-x="1393" 
d="M630 1901h195q-14 -75 24 -120t112 -45t131 45t73 120h195q-30 -148 -142.5 -231t-273.5 -83q-167 0 -256 87.5t-58 226.5zM298 -12q-78 0 -102 14l46 221q31 -9 81 -9q144 0 240 119l-246 1110h271l158 -838h17l506 838h284l-678 -1057q-66 -103 -122.5 -171
t-125.5 -122.5t-149.5 -79.5t-179.5 -25z" />
    <glyph glyph-name="Dzhecyrillic" unicode="&#x40f;" horiz-adv-x="1575" 
d="M598 0h-480l307 1443h258l-261 -1219h683l260 1219h260l-307 -1443h-479l-61 -285h-241z" />
    <glyph glyph-name="Acyrillic" unicode="&#x410;" horiz-adv-x="1477" 
d="M1063 0l-43 369h-535l-203 -369h-270l829 1443h283l201 -1443h-262zM914 1166l-325 -593h415l-72 593h-18z" />
    <glyph glyph-name="Becyrillic" unicode="&#x411;" horiz-adv-x="1372" 
d="M707 0h-588l306 1443h925l-47 -223h-663l-72 -329h248q219 0 350 -103.5t131 -282.5q0 -211 -165 -358t-425 -147zM424 214h272q145 0 241.5 75.5t96.5 186.5q0 102 -71 154t-195 52h-243z" />
    <glyph glyph-name="Vecyrillic" unicode="&#x412;" horiz-adv-x="1413" 
d="M772 0h-654l307 1443h557q185 0 298 -86t113 -228q0 -140 -89.5 -242.5t-231.5 -125.5l-3 -18q118 -21 186.5 -97.5t68.5 -188.5q0 -200 -155.5 -328.5t-396.5 -128.5zM643 1242l-86 -402h260q139 0 226.5 65t87.5 168q0 169 -242 169h-246zM421 208h316q140 0 231.5 72
t91.5 181q0 95 -65.5 144t-191.5 49h-286z" />
    <glyph glyph-name="Gecyrillic" unicode="&#x413;" horiz-adv-x="1204" 
d="M379 0h-261l307 1443h911l-46 -223h-650z" />
    <glyph glyph-name="Decyrillic" unicode="&#x414;" horiz-adv-x="1568" 
d="M583 583q-36 -130 -73.5 -210t-94.5 -134l-3 -16h628l215 997h-493zM205 0l-61 -285h-235l108 508h103q83 48 134 136.5t92 240.5l233 843h983l-261 -1220h180l-107 -508h-235l61 285h-995z" />
    <glyph glyph-name="Iecyrillic" unicode="&#x415;" horiz-adv-x="1274" 
d="M1099 223l-46 -223h-935l307 1443h935l-47 -223h-674l-83 -383h637l-44 -210h-637l-88 -404h675z" />
    <glyph glyph-name="Zhecyrillic" unicode="&#x416;" horiz-adv-x="2134" 
d="M962 623l-654 -623h-323l784 763l-405 680h278l363 -619h46l132 619h255l-133 -619h46l628 619h313l-742 -726l442 -717h-293l-388 623h-47l-133 -623h-255l134 623h-48z" />
    <glyph glyph-name="Zecyrillic" unicode="&#x417;" horiz-adv-x="1333" 
d="M522 632l44 214h199q132 0 217 65.5t85 165.5q0 89 -57.5 139.5t-167.5 50.5q-114 0 -199 -59t-115 -159h-241q50 201 206 315.5t376 114.5q216 0 337 -103.5t121 -265.5q0 -144 -93.5 -243t-248.5 -124l-4 -17q122 -22 190 -98t68 -198q0 -198 -162.5 -332t-414.5 -134
q-258 0 -396.5 123t-136.5 323h245q1 -100 75 -164.5t214 -64.5q135 0 222.5 69.5t87.5 177.5q0 100 -67.5 152t-196.5 52h-187z" />
    <glyph glyph-name="Iicyrillic" unicode="&#x418;" horiz-adv-x="1596" 
d="M1083 0l220 1022h-18l-914 -1022h-253l307 1443h256l-221 -1025h18l915 1025h252l-307 -1443h-255z" />
    <glyph glyph-name="Iishortcyrillic" unicode="&#x419;" horiz-adv-x="1596" 
d="M726 1901h195q-14 -75 24 -120t112 -45t131 45t73 120h195q-30 -148 -142.5 -231t-273.5 -83q-167 0 -256 87.5t-58 226.5zM1083 0l220 1022h-18l-914 -1022h-253l307 1443h256l-221 -1025h18l915 1025h252l-307 -1443h-255z" />
    <glyph glyph-name="Kacyrillic" unicode="&#x41a;" horiz-adv-x="1423" 
d="M1572 1443l-778 -721l494 -722h-293l-438 622h-45l-133 -622h-261l307 1443h261l-132 -616h45l660 616h313z" />
    <glyph glyph-name="Elcyrillic" unicode="&#x41b;" horiz-adv-x="1497" 
d="M1240 0h-260l260 1220h-462l-180 -659q-30 -114 -62.5 -198t-77 -157.5t-99 -119.5t-127.5 -71.5t-163 -25.5q-58 0 -92 12l48 231q28 -7 61 -7q53 0 96 25t75.5 74.5t56.5 109.5t47 143l231 866h955z" />
    <glyph glyph-name="Emcyrillic" unicode="&#x41c;" horiz-adv-x="1868" 
d="M360 0h-242l307 1443h294l207 -1051h17l659 1051h315l-307 -1443h-242l217 1015h-14l-604 -959h-184l-191 959h-15z" />
    <glyph glyph-name="Encyrillic" unicode="&#x41d;" horiz-adv-x="1595" 
d="M1338 0h-262l134 623h-699l-134 -623h-259l307 1443h260l-128 -597h699l128 597h261z" />
    <glyph glyph-name="Ocyrillic" unicode="&#x41e;" horiz-adv-x="1623" 
d="M808 -36q-178 0 -318 79t-216 217t-76 311q0 195 60 364.5t164.5 288.5t250.5 187t312 68q271 0 439 -171.5t168 -435.5q0 -196 -59.5 -365.5t-163.5 -288.5t-249.5 -186.5t-311.5 -67.5zM1326 851q0 178 -97.5 286.5t-256.5 108.5q-141 0 -257.5 -86t-183 -236.5
t-66.5 -332.5q0 -178 98 -286.5t258 -108.5q142 0 257.5 85t181.5 235t66 335z" />
    <glyph glyph-name="Pecyrillic" unicode="&#x41f;" horiz-adv-x="1575" 
d="M1318 0h-258l260 1219h-682l-260 -1219h-260l307 1443h1200z" />
    <glyph glyph-name="Ercyrillic" unicode="&#x420;" horiz-adv-x="1372" 
d="M425 1443h520q200 0 325.5 -112.5t125.5 -298.5q0 -170 -78.5 -298t-215 -194.5t-312.5 -66.5h-310l-101 -473h-260zM641 1227l-117 -540h260q158 0 253.5 86.5t95.5 235.5q0 105 -68 161.5t-189 56.5h-235z" />
    <glyph glyph-name="Escyrillic" unicode="&#x421;" horiz-adv-x="1523" 
d="M779 -39q-264 0 -421.5 167.5t-157.5 448.5q0 193 58 361t159 286.5t244 186.5t308 68q248 0 410.5 -143.5t162.5 -363.5v-11h-256q-10 132 -99.5 209t-232.5 77q-137 0 -250 -85.5t-178 -235.5t-65 -331q0 -186 93 -294.5t253 -108.5q132 0 230.5 65t135.5 177h261
q-54 -219 -229 -346t-426 -127z" />
    <glyph glyph-name="Tecyrillic" unicode="&#x422;" horiz-adv-x="1348" 
d="M735 0h-260l260 1220h-443l46 223h1147l-46 -223h-444z" />
    <glyph glyph-name="Ucyrillic" unicode="&#x423;" horiz-adv-x="1393" 
d="M298 -12q-78 0 -102 14l46 221q31 -9 81 -9q144 0 240 119l-246 1110h271l158 -838h17l506 838h284l-678 -1057q-66 -103 -122.5 -171t-125.5 -122.5t-149.5 -79.5t-179.5 -25z" />
    <glyph glyph-name="Efcyrillic" unicode="&#x424;" horiz-adv-x="1806" 
d="M955 -27h-255l32 153q-250 10 -394.5 146t-144.5 359q0 195 100 350.5t281 245t413 96.5l31 147h255l-31 -147q250 -10 395 -146t145 -360q0 -194 -100 -349t-281.5 -245t-413.5 -97zM456 640q0 -133 85.5 -211t237.5 -85l164 761q-211 -10 -349 -141t-138 -324z
M1519 806q0 135 -85.5 214t-237.5 85l-165 -761q212 10 350 140.5t138 321.5z" />
    <glyph glyph-name="Xacyrillic" unicode="&#x425;" horiz-adv-x="1476" 
d="M30 0l638 747l-314 696h291l225 -523h17l439 523h289l-640 -730l326 -713h-283l-237 522h-18l-448 -522h-285z" />
    <glyph glyph-name="Tsecyrillic" unicode="&#x426;" horiz-adv-x="1632" 
d="M1437 -285h-234l61 285h-1146l308 1443h258l-261 -1219h682l261 1219h259l-261 -1220h180z" />
    <glyph glyph-name="Checyrillic" unicode="&#x427;" horiz-adv-x="1483" 
d="M1225 0h-257l136 637h-17q-164 -128 -372 -128q-238 0 -356 157t-66 402l79 375h258l-80 -376q-32 -148 29 -237t210 -89q121 0 220 50t155 130l111 522h257z" />
    <glyph glyph-name="Shacyrillic" unicode="&#x428;" horiz-adv-x="2053" 
d="M118 0l307 1443h261l-262 -1220h448l262 1220h260l-261 -1220h448l261 1220h260l-307 -1443h-1677z" />
    <glyph glyph-name="Shchacyrillic" unicode="&#x429;" horiz-adv-x="2109" 
d="M1915 -285h-235l61 285h-1622l307 1443h260l-261 -1220h448l261 1220h261l-261 -1220h448l261 1220h260l-261 -1220h180z" />
    <glyph glyph-name="Hardsigncyrillic" unicode="&#x42a;" horiz-adv-x="1568" 
d="M918 0h-589l261 1220h-333l46 223h593l-103 -480h233q219 0 350 -114.5t131 -311.5q0 -109 -43 -207t-118.5 -171t-186.5 -116t-241 -43zM973 747h-224l-115 -533h272q145 0 242 84.5t97 209.5q0 118 -73 178.5t-199 60.5z" />
    <glyph glyph-name="Yericyrillic" unicode="&#x42b;" horiz-adv-x="1871" 
d="M1613 0h-260l307 1443h260zM762 747h-223l-116 -533h273q144 0 241 84.5t97 209.5q0 118 -72.5 178.5t-199.5 60.5zM118 0l307 1443h261l-103 -480h233q219 0 350 -114.5t131 -311.5q0 -109 -43 -207t-118.5 -171t-187 -116t-241.5 -43h-589z" />
    <glyph glyph-name="Softsigncyrillic" unicode="&#x42c;" horiz-adv-x="1357" 
d="M762 747h-223l-116 -533h273q144 0 241 84.5t97 209.5q0 118 -72.5 178.5t-199.5 60.5zM118 0l307 1443h261l-103 -480h233q219 0 350 -114.5t131 -311.5q0 -109 -43 -207t-118.5 -171t-187 -116t-241.5 -43h-589z" />
    <glyph glyph-name="Ereversedcyrillic" unicode="&#x42d;" horiz-adv-x="1518" 
d="M703 -36q-149 0 -271.5 59.5t-197.5 171.5t-82 256h257q14 -118 100.5 -187t214.5 -69q172 0 298.5 118t172.5 314h-602l45 213h585q10 192 -78 300.5t-255 108.5q-136 0 -237 -75.5t-147 -202.5h-256q63 240 241.5 374t425.5 134q300 0 452.5 -206.5t95.5 -567.5
q-29 -218 -128.5 -385t-263.5 -261.5t-370 -94.5z" />
    <glyph glyph-name="IUcyrillic" unicode="&#x42e;" horiz-adv-x="2163" 
d="M1368 193q137 0 251.5 89t179.5 238.5t65 324.5q0 187 -96 296t-247 109q-137 0 -251.5 -85t-180.5 -233t-66 -326q0 -193 96.5 -303t248.5 -110zM558 846h232q45 186 148 328.5t258 223.5t338 81q170 0 304.5 -75.5t212 -215.5t77.5 -321q0 -147 -36 -283.5t-104 -248.5
t-160.5 -195.5t-212 -129.5t-252.5 -46q-269 0 -436.5 165.5t-167.5 453.5q0 27 1 40h-249l-133 -623h-260l307 1443h261z" />
    <glyph glyph-name="IAcyrillic" unicode="&#x42f;" horiz-adv-x="1419" 
d="M818 723h236l110 506h-279q-145 0 -242 -81t-97 -199q0 -112 73 -169t199 -57zM806 517l-468 -517h-315l508 563q-117 46 -182 140.5t-65 224.5q0 103 43.5 197t119.5 164.5t188 112t241 41.5h592l-307 -1443h-260l111 517h-206z" />
    <glyph glyph-name="acyrillic" unicode="&#x430;" horiz-adv-x="1194" 
d="M528 176q103 0 183 59t100 150l23 106l-250 -11q-111 -4 -174 -48t-63 -116q0 -61 50.5 -100.5t130.5 -39.5zM430 -18q-140 0 -234.5 86t-94.5 214q0 165 126.5 261t355.5 104l286 11l15 70q5 25 5 44q0 66 -53.5 104t-146.5 38q-78 0 -132 -29t-77 -83h-241
q35 145 162 229.5t307 84.5q193 0 310.5 -87t117.5 -229q0 -40 -9 -89l-151 -711h-241l29 138h-17q-50 -72 -135 -114t-182 -42z" />
    <glyph glyph-name="becyrillic" unicode="&#x431;" horiz-adv-x="1282" 
d="M792 1062q196 0 310.5 -125t114.5 -324q0 -132 -40.5 -248t-115 -203t-188.5 -137.5t-253 -50.5q-199 0 -324 121.5t-136 322.5q-8 156 52 385q33 126 71.5 222t94.5 178.5t127 136.5t167.5 86t217.5 37l143 6q77 3 151 15.5t110 23.5l36 11l-43 -206q-9 -5 -28 -13
t-92 -22.5t-163 -17.5l-140 -6q-76 -3 -137.5 -22t-106.5 -50t-82 -79.5t-63 -102t-51 -125.5h17q132 187 351 187zM642 186q131 0 224.5 113.5t93.5 275.5q0 135 -61 210.5t-171 75.5q-144 0 -234 -117t-90 -291q0 -125 63 -196t175 -71z" />
    <glyph glyph-name="vecyrillic" unicode="&#x432;" horiz-adv-x="1190" 
d="M89 0l232 1094h489q154 0 239 -66t85 -183q0 -96 -71 -169t-177 -90l-3 -18q96 -12 150 -68.5t54 -139.5q0 -158 -128.5 -259t-342.5 -101h-527zM650 484h-211l-66 -310h233q103 0 165 49t62 128q0 133 -183 133zM733 920h-201l-59 -273h194q101 0 156.5 46t55.5 115
q0 112 -146 112z" />
    <glyph glyph-name="gecyrillic" unicode="&#x433;" horiz-adv-x="975" 
d="M1007 896h-476l-192 -896h-250l232 1094h727z" />
    <glyph glyph-name="decyrillic" unicode="&#x434;" horiz-adv-x="1333" 
d="M837 198l150 699h-366l-112 -388q-59 -202 -143 -293l-3 -18h474zM134 -285h-228l103 483h86q58 32 109 119.5t84 205.5l160 571h830l-191 -896h167l-102 -483h-228l61 285h-790z" />
    <glyph glyph-name="iecyrillic" unicode="&#x435;" horiz-adv-x="1243" 
d="M623 -22q-207 0 -338.5 124.5t-131.5 340.5q0 301 162.5 487t421.5 186q192 0 318.5 -123t127.5 -330q0 -77 -16 -173h-773q0 -6 -0.5 -19.5t-0.5 -19.5q0 -133 71 -202t175 -69q177 0 237 122h245q-37 -145 -170.5 -234.5t-327.5 -89.5zM423 658h517q3 9 3 40
q0 95 -58.5 157.5t-160.5 62.5q-108 0 -188.5 -70.5t-112.5 -189.5z" />
    <glyph glyph-name="zhecyrillic" unicode="&#x436;" horiz-adv-x="1713" 
d="M1817 1094l-521 -531l305 -563h-275l-260 474h-52l-101 -474h-245l101 474h-57l-439 -474h-300l555 603l-265 491h256l233 -442h54l94 442h245l-94 -442h51l424 442h291z" />
    <glyph glyph-name="zecyrillic" unicode="&#x437;" horiz-adv-x="1141" 
d="M1039 356q-3 -162 -141 -270t-350 -108q-193 0 -316 105.5t-126 275.5h238q4 -81 62.5 -127.5t149.5 -46.5q100 0 164 46.5t66 120.5q2 63 -41 93t-136 30h-157l39 177h152q89 0 141 40t53 101q2 58 -37.5 89t-118.5 31q-184 0 -256 -166h-237q56 172 191.5 270.5
t331.5 98.5q182 0 283.5 -77t98.5 -207q-2 -90 -62 -158.5t-150 -86.5l-4 -17q81 -22 122.5 -77t39.5 -137z" />
    <glyph glyph-name="iicyrillic" unicode="&#x438;" horiz-adv-x="1294" 
d="M337 0h-248l232 1094h246l-156 -723h17l623 723h247l-232 -1094h-246l157 730h-17z" />
    <glyph glyph-name="iishortcyrillic" unicode="&#x439;" horiz-adv-x="1294" 
d="M520 1594h192q-16 -82 18.5 -137.5t111.5 -55.5q80 0 138.5 55.5t75.5 137.5h195q-33 -157 -143 -249.5t-287 -92.5q-161 0 -246.5 97t-54.5 245zM337 0h-248l232 1094h246l-156 -723h17l623 723h247l-232 -1094h-246l157 730h-17z" />
    <glyph glyph-name="kacyrillic" unicode="&#x43a;" horiz-adv-x="1154" 
d="M1257 1094l-549 -524l333 -570h-280l-274 470h-48l-100 -470h-250l232 1094h251l-94 -438h45l441 438h293z" />
    <glyph glyph-name="elcyrillic" unicode="&#x43b;" horiz-adv-x="1240" 
d="M523 501q-40 -141 -80.5 -234t-95.5 -157.5t-124.5 -92.5t-163.5 -28q-48 0 -80 12l46 220q23 -7 58 -7q69 0 121.5 74.5t95.5 228.5l160 577h784l-232 -1094h-251l192 896h-318z" />
    <glyph glyph-name="emcyrillic" unicode="&#x43c;" horiz-adv-x="1612" 
d="M326 0h-237l232 1094h316l162 -753h18l487 753h312l-232 -1094h-240l159 744h-19l-450 -693h-178l-153 693h-19z" />
    <glyph glyph-name="encyrillic" unicode="&#x43d;" horiz-adv-x="1274" 
d="M89 0l232 1094h251l-93 -432h457l92 432h250l-232 -1094h-250l99 464h-456l-100 -464h-250z" />
    <glyph glyph-name="ocyrillic" unicode="&#x43e;" horiz-adv-x="1287" 
d="M412 460q0 -125 63 -199.5t170 -74.5q133 0 227.5 128.5t94.5 307.5q0 134 -60 210t-166 76q-144 0 -236.5 -126.5t-92.5 -321.5zM626 -22q-212 0 -343 129.5t-131 339.5q0 191 77.5 344t215.5 239t311 86q212 0 342 -129t130 -340q0 -189 -78 -342.5t-215.5 -240
t-308.5 -86.5z" />
    <glyph glyph-name="pecyrillic" unicode="&#x43f;" horiz-adv-x="1264" 
d="M786 0l191 896h-446l-192 -896h-250l232 1094h947l-232 -1094h-250z" />
    <glyph glyph-name="ercyrillic" unicode="&#x440;" horiz-adv-x="1317" 
d="M673 196q144 0 241 130.5t97 324.5q0 120 -60.5 186t-164.5 66q-144 0 -245 -131.5t-101 -317.5q0 -121 63.5 -189.5t169.5 -68.5zM260 -364h-248l310 1458h240l-32 -151h17q59 79 147.5 124t194.5 45q166 0 273 -116.5t107 -303.5q0 -199 -73 -362t-200 -255.5
t-281 -92.5q-117 0 -203 60t-113 157h-18z" />
    <glyph glyph-name="escyrillic" unicode="&#x441;" horiz-adv-x="1209" 
d="M1188 734h-239q-10 74 -70 123.5t-143 49.5q-150 0 -241 -123.5t-91 -302.5q0 -141 59.5 -217t175.5 -76q83 0 146 46t98 124h245q-59 -177 -189 -278.5t-315 -101.5q-231 0 -349.5 129.5t-118.5 364.5q0 130 41 247t115.5 205t186 139.5t243.5 51.5q193 0 314 -108.5
t132 -272.5z" />
    <glyph glyph-name="tecyrillic" unicode="&#x442;" horiz-adv-x="1022" 
d="M1131 1094l-41 -198h-332l-191 -896h-251l192 896h-333l41 198h915z" />
    <glyph glyph-name="ucyrillic" unicode="&#x443;" horiz-adv-x="1193" 
d="M151 -399q-25 0 -73 4t-58 6l41 200q37 -8 90 -8q68 0 119 33.5t90 110.5l28 54l-155 1093h251l87 -835h17l430 835h267l-650 -1163q-101 -185 -210 -257.5t-274 -72.5z" />
    <glyph glyph-name="efcyrillic" unicode="&#x444;" horiz-adv-x="1662" 
d="M807 -364h-247l74 345q-216 8 -350 134t-134 334q0 138 49 257.5t139.5 209.5t228.5 142t307 55l72 339h247l-73 -339q216 -8 350 -134t134 -334q0 -138 -49 -257.5t-139.5 -209.5t-228.5 -142t-307 -55zM1349 621q0 135 -73 211.5t-199 80.5l-157 -732q101 4 183.5 42
t135.5 99t81.5 138t28.5 161zM405 474q0 -135 73 -212t199 -81l156 732q-100 -4 -182.5 -42t-135.5 -99t-81.5 -137.5t-28.5 -160.5z" />
    <glyph glyph-name="hacyrillic" unicode="&#x445;" horiz-adv-x="1169" 
d="M606 372h-17l-300 -372h-278l471 551l-241 543h271l147 -374h17l295 374h281l-471 -548l242 -546h-261z" />
    <glyph glyph-name="tsecyrillic" unicode="&#x446;" horiz-adv-x="1324" 
d="M1143 -285h-228l61 285h-887l232 1094h251l-192 -896h446l192 896h250l-191 -896h168z" />
    <glyph glyph-name="checyrillic" unicode="&#x447;" horiz-adv-x="1215" 
d="M987 0h-251l101 474h-17q-126 -113 -286 -113q-176 0 -261.5 118t-45.5 313l64 302h250l-63 -297q-23 -106 17 -163t140 -57q79 0 143 35t106 83l85 399h250z" />
    <glyph glyph-name="shacyrillic" unicode="&#x448;" horiz-adv-x="1759" 
d="M89 0l232 1094h251l-190 -896h344l191 896h250l-190 -896h345l191 896h250l-232 -1094h-1442z" />
    <glyph glyph-name="shchacyrillic" unicode="&#x449;" horiz-adv-x="1820" 
d="M1639 -285h-228l61 285h-1383l232 1094h251l-190 -896h344l191 896h250l-190 -896h345l191 896h250l-190 -896h168z" />
    <glyph glyph-name="hardsigncyrillic" unicode="&#x44a;" horiz-adv-x="1301" 
d="M719 0h-460l190 896h-284l41 198h535l-70 -328h196q166 0 264 -86.5t98 -224.5q0 -196 -142.5 -325.5t-367.5 -129.5zM811 569h-181l-80 -371h181q108 0 177 66.5t69 161.5q0 67 -44 105t-122 38z" />
    <glyph glyph-name="yericyrillic" unicode="&#x44b;" horiz-adv-x="1567" 
d="M1089 0l232 1094h250l-232 -1094h-250zM639 569h-178l-80 -371h178q108 0 177 66.5t69 161.5q0 67 -44 105t-122 38zM89 0l232 1094h251l-70 -328h193q166 0 264 -86.5t98 -224.5q0 -196 -142.5 -325.5t-367.5 -129.5h-458z" />
    <glyph glyph-name="softsigncyrillic" unicode="&#x44c;" horiz-adv-x="1128" 
d="M639 569h-178l-80 -371h178q108 0 177 66.5t69 161.5q0 67 -44 105t-122 38zM89 0l232 1094h251l-70 -328h193q166 0 264 -86.5t98 -224.5q0 -196 -142.5 -325.5t-367.5 -129.5h-458z" />
    <glyph glyph-name="ereversedcyrillic" unicode="&#x44d;" horiz-adv-x="1212" 
d="M175 733q54 180 187.5 281.5t327.5 101.5q212 0 336.5 -126t124.5 -340q0 -190 -70.5 -341.5t-206.5 -241t-315 -89.5q-204 0 -318.5 104t-121.5 275h238q7 -76 63 -123t145 -47q122 0 206.5 79t108.5 206h-437l37 178h422q1 120 -62 188t-174 68q-86 0 -151.5 -45
t-102.5 -128h-237z" />
    <glyph glyph-name="iucyrillic" unicode="&#x44e;" horiz-adv-x="1752" 
d="M1100 -26q-207 0 -333 123t-132 328q0 26 1 39h-197l-100 -464h-250l232 1094h251l-93 -432h183q54 205 204 329.5t362 124.5t338 -130.5t126 -345.5q0 -183 -70 -333.5t-206.5 -241.5t-315.5 -91zM1123 186q126 0 219 122.5t93 303.5q0 138 -60.5 217t-165.5 79
q-143 0 -231.5 -127.5t-88.5 -317.5q0 -125 63 -201t171 -76z" />
    <glyph glyph-name="iacyrillic" unicode="&#x44f;" horiz-adv-x="1166" 
d="M626 553h182l74 344h-182q-107 0 -174.5 -58t-67.5 -142q0 -67 44 -105.5t124 -38.5zM690 0l79 367h-130l-333 -367h-302l384 413q-86 36 -133.5 107.5t-47.5 165.5q0 172 135 290t370 118h461l-232 -1094h-251z" />
    <glyph glyph-name="iocyrillic" unicode="&#x451;" horiz-adv-x="1243" 
d="M623 -22q-207 0 -338.5 124.5t-131.5 340.5q0 301 162.5 487t421.5 186q192 0 318.5 -123t127.5 -330q0 -77 -16 -173h-773q0 -6 -0.5 -19.5t-0.5 -19.5q0 -133 71 -202t175 -69q177 0 237 122h245q-37 -145 -170.5 -234.5t-327.5 -89.5zM423 658h517q3 9 3 40
q0 95 -58.5 157.5t-160.5 62.5q-108 0 -188.5 -70.5t-112.5 -189.5zM569 1242q-61 0 -102 40.5t-41 100.5t41 100.5t102 40.5t102 -40.5t41 -100.5t-41 -100.5t-102 -40.5zM1014 1242q-61 0 -102 40.5t-41 100.5t41 100.5t102 40.5t102 -40.5t41 -100.5t-41 -100.5
t-102 -40.5z" />
    <glyph glyph-name="djecyrillic" unicode="&#x452;" horiz-adv-x="1290" 
d="M544 930h17q121 184 329 184q154 0 244.5 -91.5t90.5 -227.5q0 -60 -15 -129l-152 -721q-34 -159 -128 -238.5t-259 -79.5q-95 0 -111 2l45 205q2 0 25.5 -0.5t26.5 -0.5q128 0 156 131l140 661q12 55 12 91q0 86 -53 137t-147 51q-107 0 -180.5 -68t-97.5 -178
l-140 -658h-249l270 1270h-148l31 146h149l20 96h249l-21 -96h226l-30 -146h-227z" />
    <glyph glyph-name="gjecyrillic" unicode="&#x453;" horiz-adv-x="976" 
d="M567 1275l323 347h280l-357 -347h-246zM1007 896h-476l-192 -896h-250l232 1094h727z" />
    <glyph glyph-name="ecyrillic" unicode="&#x454;" horiz-adv-x="1211" 
d="M1130 358q-59 -177 -189 -278.5t-315 -101.5q-231 0 -350.5 130t-119.5 364q0 130 41.5 247t116.5 205t186.5 139.5t243.5 51.5q193 0 314 -108.5t132 -272.5h-239q-10 74 -70 123.5t-143 49.5q-117 0 -200 -71.5t-109 -183.5h439l-36 -177h-428q-2 -136 59 -211.5
t178 -75.5q83 0 145.5 46t98.5 124h245z" />
    <glyph glyph-name="dzecyrillic" unicode="&#x455;" horiz-adv-x="1135" 
d="M98 307h243q15 -63 74.5 -102t147.5 -39q94 0 152.5 37.5t58.5 97.5q0 41 -28 70.5t-93 50.5l-170 57q-130 45 -193 115.5t-63 177.5q0 154 122 249t316 95q188 0 305 -86t132 -230h-232q-13 59 -68.5 93t-138.5 34q-85 0 -140 -36.5t-55 -93.5q0 -41 32.5 -70.5
t100.5 -52.5l167 -57q134 -45 195 -114t61 -176q0 -155 -129.5 -252t-334.5 -97q-199 0 -326.5 91t-135.5 238z" />
    <glyph glyph-name="icyrillic" unicode="&#x456;" horiz-adv-x="589" 
d="M101 0l232 1094h248l-232 -1094h-248zM525 1272q-67 0 -110 38t-43 96q0 59 43 99.5t110 40.5q68 0 110.5 -38t42.5 -96q0 -59 -43 -99.5t-110 -40.5z" />
    <glyph glyph-name="yicyrillic" unicode="&#x457;" horiz-adv-x="583" 
d="M318 1272q-61 0 -101.5 40t-40.5 100t40.5 100t101.5 40t101.5 -40t40.5 -100t-40.5 -100t-101.5 -40zM730 1272q-61 0 -101.5 40t-40.5 100t40.5 100t101.5 40t101.5 -40t40.5 -100t-40.5 -100t-101.5 -40zM91 0l232 1094h248l-232 -1094h-248z" />
    <glyph glyph-name="jecyrillic" unicode="&#x458;" horiz-adv-x="579" 
d="M582 1094l-247 -1159q-64 -309 -382 -309q-65 0 -119 10l44 199q27 -5 61 -5q67 0 103 30.5t52 103.5l240 1130h248zM525 1272q-68 0 -110.5 38t-42.5 96q0 59 43 99.5t110 40.5t110 -38t43 -96q0 -59 -43 -99.5t-110 -40.5z" />
    <glyph glyph-name="ljecyrillic" unicode="&#x459;" horiz-adv-x="1800" 
d="M59 -11q-48 0 -80 12l46 220q23 -7 58 -7q69 0 121.5 73.5t94.5 224.5l161 582h784l-70 -328h193q166 0 263.5 -86.5t97.5 -224.5q0 -196 -142 -325.5t-368 -129.5h-457l190 896h-316l-113 -396q-39 -142 -79.5 -235t-95 -157t-124 -91.5t-164.5 -27.5zM1311 569h-178
l-80 -371h178q108 0 177 66.5t69 161.5q0 67 -44 105t-122 38z" />
    <glyph glyph-name="njecyrillic" unicode="&#x45a;" horiz-adv-x="1839" 
d="M1088 195h178q106 0 173 52t67 125q0 60 -42 93t-117 33h-194zM339 0h-250l232 1094h251l-87 -405h458l86 405h250l-85 -403h198q169 0 267 -81.5t98 -209.5q0 -171 -139.5 -285.5t-363.5 -114.5h-457l105 494h-457z" />
    <glyph glyph-name="tshecyrillic" unicode="&#x45b;" horiz-adv-x="1290" 
d="M544 930h17q121 184 329 184q154 0 244.5 -91.5t90.5 -227.5q0 -60 -15 -129l-140 -666h-249l132 625q12 55 12 91q0 86 -53 137t-147 51q-107 0 -180.5 -68t-97.5 -178l-140 -658h-249l270 1270h-148l31 146h149l20 96h249l-21 -96h226l-30 -146h-227z" />
    <glyph glyph-name="kjecyrillic" unicode="&#x45c;" horiz-adv-x="1154" 
d="M1255 1622l-357 -347h-246l323 347h280zM1257 1094l-549 -524l333 -570h-280l-274 470h-48l-100 -470h-250l232 1094h251l-94 -438h45l441 438h293z" />
    <glyph glyph-name="ushortcyrillic" unicode="&#x45e;" horiz-adv-x="1193" 
d="M470 1594h192q-16 -82 18.5 -137.5t111.5 -55.5q80 0 138.5 55.5t75.5 137.5h195q-33 -157 -143 -249.5t-287 -92.5q-161 0 -246.5 97t-54.5 245zM151 -399q-25 0 -73 4t-58 6l41 200q37 -8 90 -8q68 0 119 33.5t90 110.5l28 54l-155 1093h251l87 -835h17l430 835h267
l-650 -1163q-101 -185 -210 -257.5t-274 -72.5z" />
    <glyph glyph-name="dzhecyrillic" unicode="&#x45f;" horiz-adv-x="1269" 
d="M1041 0h-362l-61 -285h-228l61 285h-362l232 1094h251l-192 -896h451l191 896h251z" />
    <glyph glyph-name="Geupturncyrillic" unicode="&#x490;" horiz-adv-x="1204" 
d="M640 1220l-261 -1220h-261l307 1443h671l60 285h241l-107 -508h-650z" />
    <glyph glyph-name="geupturncyrillic" unicode="&#x491;" horiz-adv-x="975" 
d="M1007 896h-476l-192 -896h-250l232 1094h499l60 285h228z" />
    <glyph glyph-name="baht" unicode="&#xe3f;" horiz-adv-x="1383" 
d="M773 653l-94 -445q132 1 218 73t86 180q0 178 -210 192zM389 208h152l94 446h-150zM611 1242l-87 -402h151l85 402h-149zM897 1237l-83 -393q111 14 175 76t64 153q0 140 -156 164zM989 761l-3 -18q115 -23 185 -99.5t70 -186.5q0 -200 -151 -328.5t-387 -128.5h-68
l-30 -139h-138l30 139h-407l307 1443h406l32 150h138l-32 -151q168 -7 268.5 -92t100.5 -221q0 -140 -89.5 -242.5t-231.5 -125.5z" />
    <glyph glyph-name="Aringbelow" unicode="&#x1e00;" horiz-adv-x="1457" 
d="M1053 0l-43 369h-535l-203 -369h-270l829 1443h283l201 -1443h-262zM904 1166l-325 -593h415l-72 593h-18zM593 -571q-102 0 -171.5 67.5t-69.5 168.5t69.5 168t171.5 67t171 -67t69 -168t-69 -168.5t-171 -67.5zM592 -446q49 0 80.5 31.5t31.5 78.5q0 48 -32 79.5
t-80 31.5t-79.5 -32t-31.5 -79t31.5 -78.5t79.5 -31.5z" />
    <glyph glyph-name="aringbelow" unicode="&#x1e01;" horiz-adv-x="1174" 
d="M518 176q103 0 183 59t100 150l23 106l-250 -11q-111 -4 -174 -48t-63 -116q0 -61 50.5 -100.5t130.5 -39.5zM420 -18q-140 0 -234.5 86t-94.5 214q0 165 126.5 261t355.5 104l286 11l15 70q5 25 5 44q0 66 -53.5 104t-146.5 38q-78 0 -132 -29t-77 -83h-241
q35 145 162 229.5t307 84.5q193 0 310.5 -87t117.5 -229q0 -40 -9 -89l-151 -711h-241l29 138h-17q-50 -72 -135 -114t-182 -42zM484 -571q-102 0 -171.5 67.5t-69.5 168.5t69.5 168t171.5 67t171 -67t69 -168t-69 -168.5t-171 -67.5zM483 -446q49 0 80.5 31.5t31.5 78.5
q0 48 -32 79.5t-80 31.5t-79.5 -32t-31.5 -79t31.5 -78.5t79.5 -31.5z" />
    <glyph glyph-name="Bdotaccent" unicode="&#x1e02;" horiz-adv-x="1393" 
d="M914 1578q-63 0 -104 41.5t-41 102.5q0 62 41 103.5t104 41.5q61 0 102 -41.5t41 -103.5q0 -61 -41 -102.5t-102 -41.5zM762 0h-654l307 1443h557q185 0 298 -86t113 -228q0 -140 -89.5 -242.5t-231.5 -125.5l-3 -18q118 -21 186.5 -97.5t68.5 -188.5
q0 -200 -155.5 -328.5t-396.5 -128.5zM633 1242l-86 -402h260q139 0 226.5 65t87.5 168q0 169 -242 169h-246zM411 208h316q140 0 231.5 72t91.5 181q0 95 -65.5 144t-191.5 49h-286z" />
    <glyph glyph-name="bdotaccent" unicode="&#x1e03;" horiz-adv-x="1310" 
d="M594 1652q-63 0 -104 41.5t-41 102.5q0 62 41 103.5t104 41.5q61 0 102 -41.5t41 -103.5q0 -61 -41 -102.5t-102 -41.5zM717 -18q-115 0 -207 60.5t-122 156.5h-17l-44 -199h-239l322 1517h248l-121 -575l18 1q117 169 334 169q166 0 272.5 -116.5t106.5 -303.5
q0 -199 -72.5 -362t-199 -255.5t-279.5 -92.5zM672 196q144 0 241 130.5t97 324.5q0 120 -60.5 186t-164.5 66q-144 0 -245 -131.5t-101 -317.5q0 -121 63.5 -189.5t169.5 -68.5z" />
    </font>
</defs>
</svg>
